<svg xmlns="http://www.w3.org/2000/svg" width="73" height="73" viewBox="0 0 73 73">
  <g id="Grupo_1114615" data-name="Grupo 1114615" transform="translate(-211.711 -3926)">
    <circle id="Elipse_11660" data-name="Elipse 11660" cx="36.5" cy="36.5" r="36.5" transform="translate(211.711 3926)" fill="#e8624e"/>
    <g id="weight-loss_15537165" transform="translate(160.974 3934.002)">
      <g id="Grupo_1114548" data-name="Grupo 1114548" transform="translate(69.313 4.57)">
        <path id="Trazado_899568" data-name="Trazado 899568" d="M120,36.058c-.208.035-19.8.055-19.8.055a1.144,1.144,0,0,1-1.144-1.144V30.077a1.144,1.144,0,0,1,1.144-1.144h17.266a19.566,19.566,0,0,1-1.247-6.043c0-6.057,2.692-12.891,2.692-12.891H92.892a46.811,46.811,0,0,1,1.765,5.825H111.6a1.144,1.144,0,0,1,1.144,1.144V21.86A1.144,1.144,0,0,1,111.6,23H95.583c-.067,6.039-5.495,13.628-5.495,22.322,0,8.748,3.253,11.562,3.253,11.562h25.117s3.253-2.814,3.253-11.562A29.827,29.827,0,0,0,120,36.058Z" transform="translate(-88.63 -10)" fill="#ffd5ae"/>
        <path id="Trazado_899569" data-name="Trazado 899569" d="M78.6,71.119H97.76A1.144,1.144,0,0,1,98.9,72.263v4.892A1.144,1.144,0,0,1,97.76,78.3H74.787V74.931A3.814,3.814,0,0,1,78.6,71.119Z" transform="translate(-74.787 -65.294)" fill="#a1d8c6"/>
        <path id="Trazado_899570" data-name="Trazado 899570" d="M291.563,71.119H289V78.3h2.558a1.144,1.144,0,0,0,1.144-1.144V72.263A1.144,1.144,0,0,0,291.563,71.119Z" transform="translate(-268.59 -65.294)" fill="#ffb6b9"/>
        <path id="Trazado_899571" data-name="Trazado 899571" d="M3.812,0H22.973a1.144,1.144,0,0,1,1.144,1.144V6.035a1.144,1.144,0,0,1-1.144,1.144H0V3.812A3.814,3.814,0,0,1,3.812,0Z" transform="translate(34.539 26.113) rotate(180)" fill="#a1d8c6"/>
        <path id="Trazado_899572" data-name="Trazado 899572" d="M185.3,215.855h2.558v-7.179H185.3a1.144,1.144,0,0,0-1.144,1.144v4.892A1.144,1.144,0,0,0,185.3,215.855Z" transform="translate(-173.73 -189.742)" fill="#ffb6b9"/>
        <path id="Trazado_899573" data-name="Trazado 899573" d="M81.08,150.486a15.931,15.931,0,0,0,.66-4.038H74.787v.226a3.812,3.812,0,0,0,3.812,3.812Z" transform="translate(-74.787 -133.445)" fill="#169f70"/>
        <path id="Trazado_899574" data-name="Trazado 899574" d="M369.058,166.3h-2.966a26.381,26.381,0,0,0,1.07,4.038h5.707v-.226A3.812,3.812,0,0,0,369.058,166.3Z" transform="translate(-338.331 -151.408)" fill="#169f70"/>
        <path id="Trazado_899575" data-name="Trazado 899575" d="M131.875,220.587H112.714a1.144,1.144,0,0,1-1.144-1.144v-4.37a39.664,39.664,0,0,1-4.885-1.167c-.852,2.462-1.927,5.1-2.761,7.887a17.164,17.164,0,0,1,11.413,5.219,4.28,4.28,0,0,0,6.159,0,17.164,17.164,0,0,1,11.413-5.219q-.19-.636-.4-1.261a3.833,3.833,0,0,1-.639.054Z" transform="translate(-101.148 -194.475)" fill="#7000d2"/>
      </g>
      <g id="Grupo_1114549" data-name="Grupo 1114549" transform="translate(68.737 3.998)">
        <path id="Trazado_899576" data-name="Trazado 899576" d="M104.424,23.5a4.4,4.4,0,0,0-4.384-4.608H97.57a23.615,23.615,0,0,1,.6-7.427.572.572,0,1,0-1.119-.236,23.281,23.281,0,0,0-.547,8.288,24.21,24.21,0,0,0,.85,3.414H80.879a1.717,1.717,0,0,0-1.707,1.553c-1.21-.231-2.413-.519-3.591-.861a21.952,21.952,0,0,0,1.236-5.478c1.876,0,13.919,0,15.469,0A1.717,1.717,0,0,0,94,16.43V11.539a1.717,1.717,0,0,0-1.715-1.715c-1.4,0-14.729,0-16.495,0a46.559,46.559,0,0,0-1.684-5.462.572.572,0,0,0-1.064.419,46.209,46.209,0,0,1,1.569,5.043H73.125a4.389,4.389,0,0,0-4.384,4.384v3.367a4.4,4.4,0,0,0,4.384,4.61h1.717c-.9,2.919-2.2,5.974-3.122,8.961-2.909,8.223-1.214,17.87,1.93,20.745a.572.572,0,0,0,.751-.862,7.468,7.468,0,0,1-1.523-2.4c-2.166-5.495-1.855-10.921-.367-16.139a16.579,16.579,0,0,1,10.581,5.014,4.813,4.813,0,0,0,2.919,1.447v12.5a.572.572,0,1,0,1.144,0v-12.5a4.813,4.813,0,0,0,2.919-1.447,16.579,16.579,0,0,1,10.582-5.015c2.508,7.654.5,16.4-1.892,18.536a.574.574,0,0,0,.377,1c.584.006,3.751-3.122,3.825-12.134a29.277,29.277,0,0,0-1.555-8.861,4.391,4.391,0,0,0,3.014-4.163s0-3.368,0-3.369Zm-4.384-3.464a3.245,3.245,0,0,1,3.222,2.895h-4.7a26.669,26.669,0,0,1-.793-2.895h2.276Zm-19.733,4.61a.572.572,0,0,1,.572-.572h1.986v6.033l-1.986,0a.572.572,0,0,1-.572-.572c0-.314,0-4.7,0-4.892ZM92.286,10.967a.572.572,0,0,1,.572.572V16.43a.572.572,0,0,1-.572.572H90.3V10.967Zm-22.4,3.24a3.244,3.244,0,0,1,3.24-3.24H89.156V17H86.9V15.331a.572.572,0,1,0-1.144,0V17H83.495V14.284a.572.572,0,1,0-1.144,0V17H80.092V15.331a.572.572,0,1,0-1.144,0V17H76.69V14.284a.572.572,0,1,0-1.144,0V17H73.287V15.331a.572.572,0,1,0-1.144,0V17H69.885v-2.8Zm3.24,6.833A3.245,3.245,0,0,1,69.9,18.146h5.767a15.864,15.864,0,0,1-.505,2.895ZM89.251,36.712a3.726,3.726,0,0,1-5.337,0,17.72,17.72,0,0,0-11.066-5.338c.7-2.244,1.585-4.477,2.362-6.666a40.486,40.486,0,0,0,3.954.941c.03.325-.077,4.214.077,4.4a1.719,1.719,0,0,0,1.638,1.206c1.449-.006,17.511.012,19.4-.007.013.042.026.083.039.125a17.719,17.719,0,0,0-11.067,5.338Zm14.029-9.84a3.246,3.246,0,0,1-2.259,3.088v-1.6a.572.572,0,1,0-1.144,0v1.707c-.53,0-1.309.008-2.259.011V27.315a.572.572,0,1,0-1.144,0v2.769l-2.259.006V28.362a.572.572,0,1,0-1.144,0v1.731l-2.259,0V27.315a.572.572,0,1,0-1.144,0V30.1l-2.259,0V28.362a.572.572,0,1,0-1.144,0V30.1l-2.259,0V24.076h19.271v2.8Z" transform="translate(-68.737 -3.999)"/>
        <path id="Trazado_899577" data-name="Trazado 899577" d="M371.865,52.965a.572.572,0,1,0-.572-.572A.572.572,0,0,0,371.865,52.965Z" transform="translate(-342.459 -47.268)"/>
        <path id="Trazado_899578" data-name="Trazado 899578" d="M378.359,7.472a.573.573,0,0,0,.717-.374c.442-1.408.8-2.309.8-2.318a.572.572,0,0,0-1.064-.419c-.015.038-.371.944-.826,2.395a.572.572,0,0,0,.374.717Z" transform="translate(-348.49 -3.998)"/>
      </g>
    </g>
  </g>
</svg>
