<svg xmlns="http://www.w3.org/2000/svg" width="85" height="85" viewBox="0 0 85 85">
  <g id="biomecanica" transform="translate(-9 -9.001)">
    <path id="Trazado_895319" data-name="Trazado 895319" d="M137.83,108.643l.015-.018.009-.01a2.8,2.8,0,0,1,2.931-.841l.037.01,11.083,2.561,10.088,5.765a3.79,3.79,0,0,1,1.92,2.015c.292,1.083-.431,2.278-.956,3.182l-.058.1-8.381,14.515a.517.517,0,0,0,.049.587l3.866,4.675a3.243,3.243,0,0,1,.737,2.313l-1.555,21.258a3.263,3.263,0,0,1-6.509-.48l1.46-19.762a.518.518,0,0,0-.118-.367l-9.7-11.732a3.523,3.523,0,0,1-.878-2.108,6.651,6.651,0,0,1,.993-3.427l6.018-10.425a.514.514,0,0,0-.314-.757l-7.481-1.994a.519.519,0,0,0-.51.146l-9.346,9.959a2.783,2.783,0,1,1-4.055-3.814Z" transform="translate(-97.218 -81.676)" fill="#f9b5a6" fill-rule="evenodd"/>
    <path id="Trazado_895320" data-name="Trazado 895320" d="M83.94,11.41a1.566,1.566,0,1,1-1.567,1.566A1.568,1.568,0,0,1,83.94,11.41ZM76.8,18.3a1.194,1.194,0,0,0,.6-.162l3.858-2.227a3.981,3.981,0,1,0-1.205-2.085L76.2,16.054a1.205,1.205,0,0,0,.6,2.248ZM15.136,39.964a1.567,1.567,0,1,1-1.567,1.567A1.57,1.57,0,0,1,15.136,39.964Zm0,5.542a3.982,3.982,0,0,0,3.789-2.771h4.453a1.2,1.2,0,1,0,0-2.408H18.925a3.976,3.976,0,1,0-3.789,5.18ZM29.213,17.749a1.567,1.567,0,1,1-1.567,1.566A1.568,1.568,0,0,1,29.213,17.749Zm0,5.542a3.955,3.955,0,0,0,2.677-1.039l3.858,2.228a1.2,1.2,0,0,0,1.2-2.086L33.1,20.167a3.976,3.976,0,1,0-3.883,3.124ZM53.025,11.41a1.567,1.567,0,1,1-1.566,1.567A1.57,1.57,0,0,1,53.025,11.41Zm-1.2,5.355v4.453a1.2,1.2,0,0,0,2.408,0V16.765a3.975,3.975,0,1,0-2.408,0Zm-9.3,63.028a1.566,1.566,0,1,1,1.567-1.566A1.568,1.568,0,0,1,42.526,79.794Zm1.2-5.355V69.986a1.2,1.2,0,1,0-2.409,0v4.453a3.976,3.976,0,1,0,2.409,0ZM76.483,61.934a1.566,1.566,0,1,1,1.567-1.566A1.568,1.568,0,0,1,76.483,61.934Zm0-5.542a3.983,3.983,0,0,0-3.789,2.771H68.242a1.2,1.2,0,1,0,0,2.409h4.452a3.976,3.976,0,1,0,3.789-5.18Zm-3.721,35.2a1.567,1.567,0,1,1,1.566-1.567A1.57,1.57,0,0,1,72.761,91.593Zm0-5.542a3.961,3.961,0,0,0-2.678,1.039l-3.857-2.227a1.2,1.2,0,0,0-1.2,2.086l3.856,2.226a3.975,3.975,0,1,0,3.884-3.124ZM12.975,80.934a1.566,1.566,0,1,1,1.567-1.566A1.568,1.568,0,0,1,12.975,80.934Zm6.536-6.73-3.858,2.227a3.978,3.978,0,1,0,1.206,2.085l3.856-2.226a1.2,1.2,0,0,0-1.2-2.086ZM90.025,48.221a1.567,1.567,0,1,1,1.567-1.566A1.568,1.568,0,0,1,90.025,48.221Zm0-5.542a3.957,3.957,0,0,0-2.676,1.039L83.491,41.49a1.2,1.2,0,1,0-1.2,2.086L86.142,45.8a3.975,3.975,0,1,0,3.882-3.124ZM66.493,17.588a5.059,5.059,0,1,1-5.059,5.06A5.065,5.065,0,0,1,66.493,17.588Zm0,12.527a7.468,7.468,0,1,0-7.468-7.467A7.476,7.476,0,0,0,66.493,30.115ZM61.267,61.77a2.549,2.549,0,0,0-.581-1.824l-3.866-4.675A1.206,1.206,0,0,1,56.7,53.9l8.381-14.516.058-.1c.537-.929,1.093-1.891.886-2.657a3.085,3.085,0,0,0-1.6-1.6l-10-5.715L43.457,26.781c-.03-.007-.059-.015-.088-.024a2.1,2.1,0,0,0-2.213.632l-.032.037L30.46,38.788a2.1,2.1,0,1,0,3.051,2.872L42.858,31.7a1.206,1.206,0,0,1,1.189-.34l7.481,1.994a1.2,1.2,0,0,1,.733,1.766L46.25,45.533c-1.457,2.66-.913,3.9-.189,4.766l9.7,11.732a1.209,1.209,0,0,1,.274.857l-1.46,19.762a2.575,2.575,0,0,0,5.137.379Zm-18.82.657a2.553,2.553,0,0,1-1.532,1.15L20.33,69.107A2.575,2.575,0,0,1,19,64.132L38.138,59a1.2,1.2,0,0,0,.719-.54L43.5,50.792a5.892,5.892,0,0,0,.708,1.048l2.682,3.244ZM71.961,38.414a1.206,1.206,0,0,0,1.131-.354L82.438,28.1a2.094,2.094,0,1,1,3.049,2.872L74.826,42.335l-.032.036A2.1,2.1,0,0,1,72.58,43c-.029-.009-.058-.017-.087-.023l-5.912-1.367.647-1.123a8.656,8.656,0,0,0,1.194-2.834ZM59.209,54.381,65.321,43.8l6.589,1.523A4.508,4.508,0,0,0,76.6,43.966L87.244,32.623a4.5,4.5,0,0,0-6.563-6.171L71.8,35.916,67.981,35.1a6.016,6.016,0,0,0-2.352-2.159l-10.155-5.8a1.181,1.181,0,0,0-.325-.128l-11.11-2.567A4.506,4.506,0,0,0,39.351,25.8L28.705,37.138a4.5,4.5,0,1,0,6.562,6.171l8.853-9.434,5.268,1.4-5.23,9.061-.014.023a10.784,10.784,0,0,0-.972,2.324L37.047,56.8l-18.673,5a4.984,4.984,0,1,0,2.582,9.628L41.54,65.9a4.944,4.944,0,0,0,2.968-2.23l4.009-6.624,5.08,6.143L52.173,82.472a4.991,4.991,0,0,0,4.6,5.337c.124.009.246.014.37.014A4.99,4.99,0,0,0,62.113,83.2l1.556-21.258A4.945,4.945,0,0,0,62.54,58.41Z" fill="#e8624e" fill-rule="evenodd"/>
  </g>
</svg>
