<svg id="Grupo_1105084" data-name="Grupo 1105084" xmlns="http://www.w3.org/2000/svg" xmlns:xlink="http://www.w3.org/1999/xlink" width="73" height="73" viewBox="0 0 73 73">
  <defs>
    <clipPath id="clip-path">
      <rect id="Rectángulo_404163" data-name="Rectángulo 404163" width="49" height="49" fill="#fff"/>
    </clipPath>
  </defs>
  <circle id="Elipse_11620" data-name="Elipse 11620" cx="36.5" cy="36.5" r="36.5" fill="#e8624e"/>
  <g id="Enmascarar_grupo_1098766" data-name="Enmascarar grupo 1098766" transform="translate(12 12)" clip-path="url(#clip-path)">
    <g id="sastre_1_" data-name="sastre (1)" transform="translate(0.871 0.622)">
      <g id="Grupo_1104890" data-name="Grupo 1104890" transform="translate(0 0)">
        <path id="Trazado_882782" data-name="Trazado 882782" d="M21.885,26.187l-1.367-.239a1.187,1.187,0,0,1-.983-1.169V18h-8.1v6.781a1.187,1.187,0,0,1-.983,1.169l-1.7.3A16.348,16.348,0,0,0,21.885,26.187Z" transform="translate(0.953 2.717)" fill="#ffb09e"/>
        <path id="Trazado_882783" data-name="Trazado 882783" d="M30.972,32.116l.455,7.746c0,.656-3.184,3.5-3.84,3.5H1.788A1.187,1.187,0,0,1,.6,42.172V32.116A6.528,6.528,0,0,1,6,25.685l2.4-.42,1.9-.332a16.35,16.35,0,0,0,13.136-.057l4.628.809C31.192,26.23,30.972,28.944,30.972,32.116Z" transform="translate(-0.601 4.029)" fill="#fd8087"/>
        <path id="Trazado_882784" data-name="Trazado 882784" d="M17.19,1.736h0a4.683,4.683,0,0,0-4.683,4.683V25.651H22.836a3.484,3.484,0,0,0,3.484-3.484v-11.3A9.13,9.13,0,0,0,17.19,1.736Z" transform="translate(1.67 -0.384)" fill="#ffe177"/>
        <path id="Trazado_882785" data-name="Trazado 882785" d="M15.857.6h0A11.157,11.157,0,0,0,4.7,11.758V22.384a3.484,3.484,0,0,0,3.484,3.484H19.73a2.531,2.531,0,0,0,2.531-2.531V7A6.4,6.4,0,0,0,15.857.6Z" transform="translate(0.181 -0.601)" fill="#ffe177"/>
        <path id="Trazado_882786" data-name="Trazado 882786" d="M25.729,10.866v11.3a3.485,3.485,0,0,1-3.485,3.484H19.86a3.485,3.485,0,0,0,3.485-3.484v-11.3a9.132,9.132,0,0,0-7.737-9.025,4.642,4.642,0,0,1,.99-.106A9.13,9.13,0,0,1,25.729,10.866Z" transform="translate(2.261 -0.384)" fill="#ffd15b"/>
        <path id="Trazado_882787" data-name="Trazado 882787" d="M20.691,7V23.336a2.532,2.532,0,0,1-2.531,2.532H15.776a2.532,2.532,0,0,0,2.532-2.532V7A6.405,6.405,0,0,0,12.932.683,11.169,11.169,0,0,1,14.288.6,6.4,6.4,0,0,1,20.691,7Z" transform="translate(1.751 -0.601)" fill="#ffd15b"/>
        <path id="Trazado_882788" data-name="Trazado 882788" d="M20.088,25.948a1.187,1.187,0,0,1-.983-1.169V18H11v5.907a8.514,8.514,0,0,0,5.721.862v2.394a1.188,1.188,0,0,0,.042.315,16.312,16.312,0,0,0,4.692-1.29Z" transform="translate(1.383 2.717)" fill="#ffa78f"/>
        <path id="Trazado_882789" data-name="Trazado 882789" d="M25.161,25.685l-4.628-.809a16.313,16.313,0,0,1-4.692,1.29,1.187,1.187,0,0,0,.94.854l6,1.048a6.529,6.529,0,0,1,5.4,6.431l1.147-2.247C29.329,29.081,28.286,26.231,25.161,25.685Z" transform="translate(2.306 4.029)" fill="#fe646f"/>
        <path id="Trazado_882790" data-name="Trazado 882790" d="M25.162,15.423H7.347A2.647,2.647,0,0,1,4.7,12.776h0A2.647,2.647,0,0,1,7.347,10.13H25.162a2.647,2.647,0,0,1,2.647,2.647h0A2.647,2.647,0,0,1,25.162,15.423Z" transform="translate(0.181 1.217)" fill="#ffa78f"/>
        <path id="Trazado_882791" data-name="Trazado 882791" d="M15.764,24.814h0a8.49,8.49,0,0,0,8.49-8.49V11.185A5.056,5.056,0,0,0,19.2,6.129H12.33a5.056,5.056,0,0,0-5.056,5.056v5.139A8.49,8.49,0,0,0,15.764,24.814Z" transform="translate(0.672 0.454)" fill="#ffcebf"/>
        <path id="Trazado_882792" data-name="Trazado 882792" d="M18.029,6.129H15.645A5.056,5.056,0,0,1,20.7,11.185v5.139a8.491,8.491,0,0,1-7.3,8.406,8.56,8.56,0,0,0,1.192.084h0a8.49,8.49,0,0,0,8.49-8.49V11.185A5.056,5.056,0,0,0,18.029,6.129Z" transform="translate(1.841 0.454)" fill="#ffb09e"/>
        <path id="Trazado_882793" data-name="Trazado 882793" d="M8.408,28.363,8.4,43.3H1.788A1.187,1.187,0,0,1,.6,42.11V32.054A6.528,6.528,0,0,1,6,25.622l2.4-.42Z" transform="translate(-0.601 4.091)" fill="#ffb09e"/>
        <path id="Trazado_882794" data-name="Trazado 882794" d="M23.548,33H20.595a1.526,1.526,0,0,1-1.526-1.526V28.954a1.526,1.526,0,0,1,1.526-1.526h2.953Z" transform="translate(2.921 4.515)" fill="#7a8c98"/>
        <path id="Trazado_882795" data-name="Trazado 882795" d="M21.3,25.587V41.282H29.37V33.367a.763.763,0,0,1,.763-.763h6.142a.763.763,0,0,1,.763.763v1.281a.763.763,0,0,0,.763.763h4.484a.763.763,0,0,0,.763-.763V25.587A1.907,1.907,0,0,0,41.14,23.68H23.21A1.907,1.907,0,0,0,21.3,25.587Z" transform="translate(3.347 3.801)" fill="#8d9ca8"/>
        <path id="Trazado_882796" data-name="Trazado 882796" d="M40.252,25.588v9.06a.763.763,0,0,1-.763.763H37.105a.763.763,0,0,0,.763-.763v-9.06a1.907,1.907,0,0,0-1.907-1.907h2.384A1.907,1.907,0,0,1,40.252,25.588Z" transform="translate(6.143 3.801)" fill="#7a8c98"/>
        <path id="Trazado_882797" data-name="Trazado 882797" d="M43.636,40.9H19.428V38.519a.763.763,0,0,1,.763-.763H43.636a.763.763,0,0,1,.763.763V40.14A.763.763,0,0,1,43.636,40.9Z" transform="translate(2.99 6.485)" fill="#7a8c98"/>
        <path id="Trazado_882798" data-name="Trazado 882798" d="M40.9,38.519V40.14a.763.763,0,0,1-.763.763H37.757a.763.763,0,0,0,.763-.763V38.519a.763.763,0,0,0-.763-.763H40.14A.763.763,0,0,1,40.9,38.519Z" transform="translate(6.485 6.485)" fill="#596c76"/>
        <line id="Línea_4300" data-name="Línea 4300" x1="24.208" transform="translate(20.034 47.388)" fill="#d9b1ee"/>
        <circle id="Elipse_11626" data-name="Elipse 11626" cx="1.43" cy="1.43" r="1.43" transform="translate(27.511 30.513)" fill="#eaf6ff"/>
        <circle id="Elipse_11627" data-name="Elipse 11627" cx="1.43" cy="1.43" r="1.43" transform="translate(33.232 30.513)" fill="#eaf6ff"/>
        <path id="Trazado_882799" data-name="Trazado 882799" d="M5.954,33.958v2.475a.572.572,0,0,0,.572.572H8.243a.572.572,0,0,0,.572-.572V33.958Z" transform="translate(0.42 5.761)" fill="#8d9ca8"/>
        <path id="Trazado_882800" data-name="Trazado 882800" d="M8.815,24.9a.572.572,0,0,0-.572-.572H6.526a.572.572,0,0,0-.572.572V35.8h2.86Z" transform="translate(0.42 3.924)" fill="#ffe177"/>
      </g>
      <g id="Grupo_1104891" data-name="Grupo 1104891" transform="translate(0 0)">
        <path id="Trazado_882801" data-name="Trazado 882801" d="M8.749,24.933a16.344,16.344,0,0,0,13.135-.057" transform="translate(0.953 4.029)" fill="none" stroke="#000" stroke-linecap="round" stroke-linejoin="round" stroke-miterlimit="10" stroke-width="1.201"/>
        <path id="Trazado_882802" data-name="Trazado 882802" d="M8.357,28.394a16.347,16.347,0,0,0,12.755.5" transform="translate(0.879 4.7)" fill="none" stroke="#000" stroke-linecap="round" stroke-linejoin="round" stroke-miterlimit="10" stroke-width="1.201"/>
        <path id="Trazado_882803" data-name="Trazado 882803" d="M17.459,1.8a9.132,9.132,0,0,1,7.917,9.05v11.3a3.485,3.485,0,0,1-3.485,3.484H17.874" transform="translate(2.614 -0.371)" fill="none" stroke="#000" stroke-linecap="round" stroke-linejoin="round" stroke-miterlimit="10" stroke-width="1.201"/>
        <path id="Trazado_882804" data-name="Trazado 882804" d="M12.2,25.868H8.185A3.484,3.484,0,0,1,4.7,22.384V11.757A11.157,11.157,0,0,1,15.857.6a6.4,6.4,0,0,1,6.4,6.4v.881" transform="translate(0.181 -0.601)" fill="none" stroke="#000" stroke-linecap="round" stroke-linejoin="round" stroke-miterlimit="10" stroke-width="1.201"/>
        <path id="Trazado_882805" data-name="Trazado 882805" d="M17.808,20.959v3.256a1.186,1.186,0,0,0,.982,1.169l3.188.557" transform="translate(2.681 3.282)" fill="none" stroke="#000" stroke-linecap="round" stroke-linejoin="round" stroke-miterlimit="10" stroke-width="1.201"/>
        <path id="Trazado_882806" data-name="Trazado 882806" d="M21.527,10.13h.426a2.646,2.646,0,1,1,0,5.293h-.418" transform="translate(3.39 1.217)" fill="none" stroke="#000" stroke-linecap="round" stroke-linejoin="round" stroke-miterlimit="10" stroke-width="1.201"/>
        <path id="Trazado_882807" data-name="Trazado 882807" d="M7.765,15.423H7.347a2.646,2.646,0,1,1,0-5.293h.426" transform="translate(0.181 1.217)" fill="none" stroke="#000" stroke-linecap="round" stroke-linejoin="round" stroke-miterlimit="10" stroke-width="1.201"/>
        <path id="Trazado_882808" data-name="Trazado 882808" d="M15.764,24.814h0a8.49,8.49,0,0,0,8.49-8.49V11.185A5.056,5.056,0,0,0,19.2,6.129H12.33a5.056,5.056,0,0,0-5.056,5.056v5.139A8.49,8.49,0,0,0,15.764,24.814Z" transform="translate(0.672 0.454)" fill="none" stroke="#000" stroke-linecap="round" stroke-linejoin="round" stroke-miterlimit="10" stroke-width="1.201"/>
        <line id="Línea_4301" data-name="Línea 4301" x1="0.002" y2="4.622" transform="translate(7.803 42.767)" fill="none" stroke="#000" stroke-linecap="round" stroke-linejoin="round" stroke-miterlimit="10" stroke-width="1.201"/>
        <line id="Línea_4302" data-name="Línea 4302" y2="0.858" transform="translate(20.383 13.564)" fill="none" stroke="#000" stroke-linecap="round" stroke-linejoin="round" stroke-miterlimit="10" stroke-width="1.201"/>
        <line id="Línea_4303" data-name="Línea 4303" y2="0.858" transform="translate(12.489 13.564)" fill="none" stroke="#000" stroke-linecap="round" stroke-linejoin="round" stroke-miterlimit="10" stroke-width="1.201"/>
        <path id="Trazado_882809" data-name="Trazado 882809" d="M13.018,17.913a2.807,2.807,0,0,0,3.3,0" transform="translate(1.767 2.701)" fill="none" stroke="#000" stroke-linecap="round" stroke-linejoin="round" stroke-miterlimit="10" stroke-width="1.201"/>
        <line id="Línea_4304" data-name="Línea 4304" x2="0.477" transform="translate(16.197 18.02)" fill="none" stroke="#000" stroke-linecap="round" stroke-linejoin="round" stroke-miterlimit="10" stroke-width="1.201"/>
        <path id="Trazado_882810" data-name="Trazado 882810" d="M8.243,38.842H6.526a.572.572,0,0,1-.572-.572V24.9a.572.572,0,0,1,.572-.572H8.243a.572.572,0,0,1,.572.572V38.27A.572.572,0,0,1,8.243,38.842Z" transform="translate(0.42 3.924)" fill="none" stroke="#000" stroke-linecap="round" stroke-linejoin="round" stroke-miterlimit="10" stroke-width="1.201"/>
        <path id="Trazado_882811" data-name="Trazado 882811" d="M21.73,33H20.594a1.526,1.526,0,0,1-1.526-1.527V28.954a1.526,1.526,0,0,1,1.526-1.527H21.73" transform="translate(2.921 4.515)" fill="none" stroke="#000" stroke-linecap="round" stroke-linejoin="round" stroke-miterlimit="10" stroke-width="1.201"/>
        <path id="Trazado_882812" data-name="Trazado 882812" d="M21.3,40.441V25.588a1.906,1.906,0,0,1,1.907-1.907H41.14a1.907,1.907,0,0,1,1.907,1.907v3.438" transform="translate(3.348 3.801)" fill="none" stroke="#000" stroke-linecap="round" stroke-linejoin="round" stroke-miterlimit="10" stroke-width="1.201"/>
        <path id="Trazado_882813" data-name="Trazado 882813" d="M41.755,30.972v2.285a.763.763,0,0,1-.763.763H36.508a.763.763,0,0,1-.763-.763V31.976a.763.763,0,0,0-.763-.763H28.84a.763.763,0,0,0-.763.763V39.05" transform="translate(4.639 5.191)" fill="none" stroke="#000" stroke-linecap="round" stroke-linejoin="round" stroke-miterlimit="10" stroke-width="1.201"/>
        <path id="Trazado_882814" data-name="Trazado 882814" d="M43.636,40.9H19.428V38.519a.763.763,0,0,1,.763-.763H43.636a.763.763,0,0,1,.763.763V40.14A.763.763,0,0,1,43.636,40.9Z" transform="translate(2.99 6.485)" fill="none" stroke="#000" stroke-linecap="round" stroke-linejoin="round" stroke-miterlimit="10" stroke-width="1.201"/>
        <line id="Línea_4305" data-name="Línea 4305" y2="1.947" transform="translate(43.389 39.212)" fill="none" stroke="#000" stroke-linecap="round" stroke-linejoin="round" stroke-miterlimit="10" stroke-width="1.201"/>
        <line id="Línea_4306" data-name="Línea 4306" y1="4.973" transform="translate(43.389 27.481)" fill="none" stroke="#000" stroke-linecap="round" stroke-linejoin="round" stroke-miterlimit="10" stroke-width="1.201"/>
        <circle id="Elipse_11628" data-name="Elipse 11628" cx="1.43" cy="1.43" r="1.43" transform="translate(27.511 30.513)" fill="none" stroke="#000" stroke-linecap="round" stroke-linejoin="round" stroke-miterlimit="10" stroke-width="1.201"/>
        <circle id="Elipse_11629" data-name="Elipse 11629" cx="1.43" cy="1.43" r="1.43" transform="translate(33.232 30.513)" fill="none" stroke="#000" stroke-linecap="round" stroke-linejoin="round" stroke-miterlimit="10" stroke-width="1.201"/>
        <line id="Línea_4307" data-name="Línea 4307" x1="2.293" transform="translate(27.615 41.095)" fill="none" stroke="#000" stroke-linecap="round" stroke-linejoin="round" stroke-miterlimit="10" stroke-width="1.201"/>
        <line id="Línea_4308" data-name="Línea 4308" x2="2.293" transform="translate(27.615 38.1)" fill="none" stroke="#000" stroke-linecap="round" stroke-linejoin="round" stroke-miterlimit="10" stroke-width="1.201"/>
        <line id="Línea_4309" data-name="Línea 4309" x2="2.86" transform="translate(6.375 39.719)" fill="none" stroke="#000" stroke-linecap="round" stroke-linejoin="round" stroke-miterlimit="10" stroke-width="1.201"/>
        <path id="Trazado_882815" data-name="Trazado 882815" d="M.6,33.413v-1.4A6.528,6.528,0,0,1,6,25.584l1.015-.177" transform="translate(-0.601 4.13)" fill="none" stroke="#000" stroke-linecap="round" stroke-linejoin="round" stroke-miterlimit="10" stroke-width="1.201"/>
        <path id="Trazado_882816" data-name="Trazado 882816" d="M.6,34.933v5.321a1.187,1.187,0,0,0,1.187,1.187H33.472" transform="translate(-0.601 5.947)" fill="none" stroke="#000" stroke-linecap="round" stroke-linejoin="round" stroke-miterlimit="10" stroke-width="1.201"/>
        <path id="Trazado_882817" data-name="Trazado 882817" d="M11.505,20.959v3.256a1.187,1.187,0,0,1-.983,1.169l-1.7.3h0l-.467.082" transform="translate(0.879 3.282)" fill="none" stroke="#000" stroke-linecap="round" stroke-linejoin="round" stroke-miterlimit="10" stroke-width="1.201"/>
      </g>
    </g>
  </g>
</svg>
