<svg xmlns="http://www.w3.org/2000/svg" width="73" height="73" viewBox="0 0 73 73">
  <g id="Grupo_1114601" data-name="Grupo 1114601" transform="translate(-212.711 -966)">
    <circle id="Elipse_11620" data-name="Elipse 11620" cx="36.5" cy="36.5" r="36.5" transform="translate(212.711 966)" fill="#e8624e"/>
    <g id="measuring-tape_866796" transform="translate(225.711 979)">
      <g id="Grupo_1113539" data-name="Grupo 1113539" transform="translate(5.85 0.709)">
        <path id="Trazado_895321" data-name="Trazado 895321" d="M353.445,385.368v11.1h8.941v-11.1Zm5.547,7.053a1.5,1.5,0,1,1,1.5-1.5A1.5,1.5,0,0,1,358.992,392.421Z" transform="translate(-326.322 -350.126)" fill="#f0f0f0"/>
        <path id="Trazado_895322" data-name="Trazado 895322" d="M62.71,7.6V18.708h9.815V7.6ZM66.1,14.657a1.5,1.5,0,1,1,1.5-1.5A1.5,1.5,0,0,1,66.1,14.657Z" transform="translate(-62.71 -7.603)" fill="#f0f0f0"/>
      </g>
      <g id="Grupo_1113540" data-name="Grupo 1113540" transform="translate(0.709 8.409)">
        <path id="Trazado_895323" data-name="Trazado 895323" d="M22.7,103.476l-15.1-3.415,17.138-6.516L42.992,90.14l10.961,3.405-17.139,6.516Z" transform="translate(-7.607 -90.14)" fill="#e29f33"/>
        <path id="Trazado_895324" data-name="Trazado 895324" d="M22.7,292.353,7.6,288.938l17.138-6.516,18.247-3.405,10.961,3.405-17.139,6.516Z" transform="translate(-7.604 -261.397)" fill="#e29f33"/>
      </g>
      <g id="Grupo_1113541" data-name="Grupo 1113541" transform="translate(0.709 0.709)">
        <rect id="Rectángulo_407260" data-name="Rectángulo 407260" width="34.417" height="11.105" transform="translate(11.929)" fill="#fcd94e"/>
        <rect id="Rectángulo_407261" data-name="Rectángulo 407261" width="46.346" height="11.105" transform="translate(0 17.621)" fill="#fcd94e"/>
        <rect id="Rectángulo_407262" data-name="Rectángulo 407262" width="34.417" height="11.105" transform="translate(0 35.241)" fill="#fcd94e"/>
      </g>
      <path id="Trazado_895325" data-name="Trazado 895325" d="M97.021,0h-41.2a.709.709,0,0,0-.709.709v11.1a.709.709,0,0,0,.709.709H83.7a.709.709,0,0,0,0-1.419H63.313V1.419h1.962V3.371a.709.709,0,0,0,1.419,0V1.419h2.513V8.891a.709.709,0,1,0,1.419,0V1.419h2.513V3.371a.709.709,0,0,0,1.419,0V1.419h2.513V3.371a.709.709,0,1,0,1.419,0V1.419H81V8.891a.709.709,0,0,0,1.419,0V1.419h2.513V3.371a.709.709,0,1,0,1.419,0V1.419h2.513V3.371a.709.709,0,0,0,1.419,0V1.419H92.8V8.891a.709.709,0,1,0,1.419,0V1.419h2.1V11.1H86.06a.709.709,0,1,0,0,1.419H97.021a.709.709,0,0,0,.709-.709V.709A.709.709,0,0,0,97.021,0Zm-40.5,1.419h5.369V11.1H56.526Z" transform="translate(-49.966)"/>
      <path id="Trazado_895326" data-name="Trazado 895326" d="M52.438,143.059a.706.706,0,0,0,.252-.047l7.461-2.837a.709.709,0,1,0-.5-1.326l-7.461,2.837a.71.71,0,0,0,.252,1.373Z" transform="translate(-46.902 -125.855)"/>
      <path id="Trazado_895327" data-name="Trazado 895327" d="M365.529,143.059a.706.706,0,0,0,.252-.047l7.461-2.837a.709.709,0,1,0-.5-1.326l-7.461,2.837a.71.71,0,0,0,.252,1.373Z" transform="translate(-330.785 -125.855)"/>
      <path id="Trazado_895328" data-name="Trazado 895328" d="M52.434,331.937a.706.706,0,0,0,.252-.047l7.461-2.837a.709.709,0,1,0-.5-1.326l-7.461,2.837a.71.71,0,0,0,.252,1.373Z" transform="translate(-46.899 -297.111)"/>
      <path id="Trazado_895329" data-name="Trazado 895329" d="M372.733,327.728l-7.461,2.837a.709.709,0,1,0,.5,1.326l7.461-2.837a.709.709,0,1,0-.5-1.326Z" transform="translate(-330.782 -297.112)"/>
      <path id="Trazado_895330" data-name="Trazado 895330" d="M47.055,188.879H.709a.709.709,0,0,0-.709.709v11.1a.709.709,0,0,0,.709.709H3.086a.709.709,0,0,0,0-1.419H1.419V190.3h2.1v1.952a.709.709,0,0,0,1.419,0V190.3H7.446v7.472a.709.709,0,0,0,1.419,0V190.3h2.513v1.952a.709.709,0,0,0,1.419,0V190.3h2.513v1.952a.709.709,0,0,0,1.419,0V190.3h2.513v7.472a.709.709,0,0,0,1.419,0V190.3h2.513v1.952a.709.709,0,0,0,1.419,0V190.3H27.1v1.952a.709.709,0,0,0,1.419,0V190.3h2.513v7.472a.709.709,0,0,0,1.419,0V190.3h2.513v1.952a.709.709,0,0,0,1.419,0V190.3H38.9v1.952a.709.709,0,0,0,1.419,0V190.3h2.513v7.472a.709.709,0,0,0,1.419,0V190.3h2.1v9.686H5.451a.709.709,0,0,0,0,1.419h41.6a.709.709,0,0,0,.709-.709v-11.1A.709.709,0,0,0,47.055,188.879Z" transform="translate(0 -171.258)"/>
      <path id="Trazado_895331" data-name="Trazado 895331" d="M41.914,377.759H.709a.709.709,0,0,0-.709.709v11.1a.709.709,0,0,0,.709.709h41.2a.709.709,0,0,0,.709-.709v-11.1A.709.709,0,0,0,41.914,377.759Zm-40.5,1.419H3.447v1.952a.709.709,0,1,0,1.419,0v-1.952H7.379v7.472a.709.709,0,1,0,1.419,0v-7.472h2.513v1.952a.709.709,0,1,0,1.419,0v-1.952h2.513v1.952a.709.709,0,1,0,1.419,0v-1.952h2.513v7.472a.709.709,0,1,0,1.419,0v-7.472h2.513v1.952a.709.709,0,1,0,1.419,0v-1.952h2.513v1.952a.709.709,0,1,0,1.419,0v-1.952H30.97v7.472a.709.709,0,1,0,1.419,0v-7.472h2.028v9.686h-33ZM41.2,388.864H35.836v-9.686H41.2Z" transform="translate(0 -342.518)"/>
      <path id="Trazado_895332" data-name="Trazado 895332" d="M391.42,425.6a2.211,2.211,0,1,0-2.211-2.211A2.213,2.213,0,0,0,391.42,425.6Zm0-3a.792.792,0,1,1-.792.792A.793.793,0,0,1,391.42,422.6Z" transform="translate(-352.9 -381.887)"/>
      <path id="Trazado_895333" data-name="Trazado 895333" d="M77.6,43.42a2.211,2.211,0,1,0,2.211,2.211A2.214,2.214,0,0,0,77.6,43.42Zm0,3a.792.792,0,1,1,.792-.792A.793.793,0,0,1,77.6,46.423Z" transform="translate(-68.357 -39.369)"/>
    </g>
  </g>
</svg>
