<svg xmlns="http://www.w3.org/2000/svg" xmlns:xlink="http://www.w3.org/1999/xlink" width="85" height="69" viewBox="0 0 85 69">
  <defs>
    <clipPath id="clip-path">
      <rect id="Rectángulo_410462" data-name="Rectángulo 410462" width="85" height="69" transform="translate(599.711 9179)" fill="#fff" stroke="#707070" stroke-width="1"/>
    </clipPath>
  </defs>
  <g id="Enmascarar_grupo_1098809" data-name="Enmascarar grupo 1098809" transform="translate(-599.711 -9179)" clip-path="url(#clip-path)">
    <g id="woman_14307961" transform="translate(577.476 9151.307)" style="isolation: isolate">
      <path id="Trazado_900172" data-name="Trazado 900172" d="M97.84,80.955a12.844,12.844,0,0,0-8.024-11.224l-5.47-2.137a2.944,2.944,0,0,0-.08-.544,2.866,2.866,0,0,0-1.579-1.925l-2.715-1.279a2.866,2.866,0,0,0-3.406.721l-1.041-.407a6.475,6.475,0,0,1-4.1-5.647l-.261-4.525a.837.837,0,0,0,.195.023c15.431,0,19.6-3.62,19.758-3.771a.87.87,0,0,0,.24-.92c-2.76-8.282-2.62-21.072-2.618-21.2A.87.87,0,1,0,87,28.1c0,.522-.14,12.606,2.507,21.149-1.383.82-6.22,3.033-18.153,3.033a.851.851,0,0,0-.291.051l-.054-.959a16.425,16.425,0,0,0,6.28-4.137C84.053,40.1,83.528,28.55,83.5,28.061a.87.87,0,0,0-1.738.092c0,.112.505,11.312-5.746,17.888-3,3.167-7.117,4.783-12.229,4.816-5.11-.033-9.223-1.659-12.227-4.816-6.252-6.582-5.752-17.776-5.746-17.888a.87.87,0,0,0-.824-.914.857.857,0,0,0-.9.822c-.027.489-.552,12.039,6.214,19.171a16.508,16.508,0,0,0,7.24,4.46l-.038.636a.841.841,0,0,0-.29-.051c-11.947,0-16.782-2.217-18.153-3.032,2.647-8.543,2.514-20.628,2.507-21.15a.87.87,0,1,0-1.739.024c0,.128.142,12.918-2.62,21.2a.873.873,0,0,0,.241.92c.169.151,4.333,3.771,19.758,3.771a.837.837,0,0,0,.195-.023l-.261,4.525a6.472,6.472,0,0,1-4.1,5.647L52,64.565a2.866,2.866,0,0,0-3.4-.719l-2.715,1.279a2.866,2.866,0,0,0-1.575,1.928,2.947,2.947,0,0,0-.084.541l-5.478,2.14a12.849,12.849,0,0,0-8.018,11.236L30.236,95.3a.87.87,0,0,0,.84.9H31.1a.87.87,0,0,0,.869-.84l.495-14.31a11.09,11.09,0,0,1,6.918-9.694l5.292-2.069a1.658,1.658,0,0,0,.151.214,4.579,4.579,0,0,0,1.928,1.6c.08,2.2.941,8.433,8.042,9.749.715,1.618,3.41,6.745,9.309,7.885h.357c5.9-1.14,8.6-6.267,9.309-7.885,7.1-1.317,7.962-7.541,8.042-9.749a4.586,4.586,0,0,0,1.928-1.6c.053-.071.1-.143.151-.216l5.279,2.059a11.093,11.093,0,0,1,6.936,9.681L96.6,95.359a.87.87,0,0,0,.869.84h.03a.87.87,0,0,0,.84-.9ZM48.489,70.46a.87.87,0,0,0-.867-.937c-.377,0-.893-.392-1.416-1.075A1.166,1.166,0,0,1,46,67.463a1.14,1.14,0,0,1,.626-.766l2.715-1.279a1.134,1.134,0,0,1,.917-.026,1.154,1.154,0,0,1,.65.664c.813,2.139,2.836,6.261,6.908,8.549l-2.826,4.51c-6.936-1.376-6.52-8.353-6.5-8.654ZM63.42,86.773c-4.344-1.341-6.461-5.368-7.025-6.621l3.007-4.8a13.065,13.065,0,0,0,4.018.857Zm.87-12.277c-6.761,0-10.033-4.967-11.482-8.377l.872-.339a8.22,8.22,0,0,0,5.206-7.167l.373-6.485a22.738,22.738,0,0,0,4.315.46h.46a22.074,22.074,0,0,0,5.279-.686l.386,6.715a8.22,8.22,0,0,0,5.2,7.169l.872.339C74.319,69.53,71.048,74.5,64.286,74.5Zm.869,12.279V76.21a13.075,13.075,0,0,0,4.036-.863l3,4.787c-.554,1.232-2.658,5.291-7.042,6.641ZM82.367,68.449c-.523.683-1.039,1.075-1.416,1.075a.873.873,0,0,0-.867.935c.023.3.437,7.267-6.485,8.653L70.772,74.6c4.062-2.29,6.08-6.4,6.893-8.54a1.154,1.154,0,0,1,.65-.664,1.13,1.13,0,0,1,.917.026L81.946,66.7a1.14,1.14,0,0,1,.626.766A1.166,1.166,0,0,1,82.367,68.449Z" transform="translate(0 0)" fill="#e8624e" stroke="#e8624e" stroke-width="0.5"/>
      <path id="Trazado_900173" data-name="Trazado 900173" d="M205.631,127.885a.87.87,0,0,0,.219.027h.667a.87.87,0,0,0,.219-.027,13.688,13.688,0,0,0,8.028-3.178.87.87,0,0,0-1.184-1.274,11.352,11.352,0,0,1-14.781,0,.87.87,0,1,0-1.187,1.273A13.658,13.658,0,0,0,205.631,127.885Z" transform="translate(-141.897 -81.518)" fill="#e8624e" stroke="#e8624e" stroke-width="0.5"/>
      <path id="Trazado_900174" data-name="Trazado 900174" d="M67.3,269.4l4.793,1.11a.889.889,0,0,0,.2.023.87.87,0,0,0,.2-1.718l-4.795-1.11a.87.87,0,1,0-.392,1.7Z" transform="translate(-30.886 -204.206)" fill="#e8624e" stroke="#e8624e" stroke-width="0.5"/>
      <path id="Trazado_900175" data-name="Trazado 900175" d="M95.935,351.173l-3.906,1.508a.87.87,0,1,0,.626,1.623l3.908-1.508a.87.87,0,1,0-.627-1.623Z" transform="translate(-51.975 -275.05)" fill="#e8624e" stroke="#e8624e" stroke-width="0.5"/>
      <path id="Trazado_900176" data-name="Trazado 900176" d="M151.534,416.027l-2.832,3.086a.87.87,0,0,0,1.282,1.176l2.831-3.086a.869.869,0,0,0-1.28-1.176Z" transform="translate(-100.416 -329.94)" fill="#e8624e" stroke="#e8624e" stroke-width="0.5"/>
      <path id="Trazado_900177" data-name="Trazado 900177" d="M401.945,269.86a.869.869,0,0,0,1.044.652l4.795-1.11a.87.87,0,1,0-.392-1.7l-4.795,1.11A.872.872,0,0,0,401.945,269.86Z" transform="translate(-315.628 -204.206)" fill="#e8624e" stroke="#e8624e" stroke-width="0.5"/>
      <path id="Trazado_900178" data-name="Trazado 900178" d="M387.893,352.692l-3.906-1.508a.87.87,0,1,0-.627,1.623l3.908,1.508a.87.87,0,0,0,.626-1.623Z" transform="translate(-299.374 -275.059)" fill="#e8624e" stroke="#e8624e" stroke-width="0.5"/>
      <path id="Trazado_900179" data-name="Trazado 900179" d="M334.81,416.027a.869.869,0,0,0-1.281,1.176l2.831,3.086a.87.87,0,0,0,1.282-1.176Z" transform="translate(-257.355 -329.94)" fill="#e8624e" stroke="#e8624e" stroke-width="0.5"/>
      <path id="Trazado_900180" data-name="Trazado 900180" d="M251.1,445.36a.87.87,0,0,0-.87.87V450.4a.87.87,0,0,0,1.739,0V446.23a.869.869,0,0,0-.869-.87Z" transform="translate(-186.814 -355.088)" fill="#e8624e" stroke="#e8624e" stroke-width="0.5"/>
    </g>
  </g>
</svg>
