<svg xmlns="http://www.w3.org/2000/svg" width="403.136" height="713.281" viewBox="0 0 403.136 713.281">
  <g id="Grupo_1114620" data-name="Grupo 1114620" transform="translate(-645.429 -6678.545)">
    <path id="Trazado_899600" data-name="Trazado 899600" d="M31.582,29.368C.048,153.844,30.475,282.392,34.378,408.2" transform="translate(648.63 6683.94)" fill="none" stroke="#000" stroke-linecap="round" stroke-linejoin="round" stroke-width="1.135"/>
    <path id="Trazado_900544" data-name="Trazado 900544" d="M0,6.733V0" transform="translate(777.336 7136.875)" fill="none" stroke="#000" stroke-linecap="round" stroke-width="0.216"/>
    <path id="Trazado_900545" data-name="Trazado 900545" d="M6.736,0H0" transform="translate(774.192 7140.044)" fill="none" stroke="#000" stroke-linecap="round" stroke-width="0.569"/>
    <path id="Trazado_900546" data-name="Trazado 900546" d="M0,6.733V0" transform="translate(776.669 6901.079)" fill="none" stroke="#000" stroke-linecap="round" stroke-width="0.216"/>
    <path id="Trazado_900547" data-name="Trazado 900547" d="M6.733,0H0" transform="translate(773.303 6904.445)" fill="none" stroke="#000" stroke-linecap="round" stroke-width="0.216"/>
    <path id="Trazado_900548" data-name="Trazado 900548" d="M0,0V181.78" transform="translate(842.077 6723.123)" fill="none" stroke="#000" stroke-linecap="round" stroke-width="0.283" stroke-dasharray="0.28 0.85"/>
    <path id="Trazado_900549" data-name="Trazado 900549" d="M0,0,10.1,122.029" transform="translate(831.466 6722.517)" fill="none" stroke="#000" stroke-linecap="round" stroke-width="0.567"/>
    <path id="Trazado_900550" data-name="Trazado 900550" d="M0,0H161.582" transform="translate(680.494 6723.123)" fill="none" stroke="#000" stroke-linecap="round" stroke-width="0.283" stroke-dasharray="0.28 0.85"/>
    <path id="Trazado_900551" data-name="Trazado 900551" d="M96.893,0H0" transform="translate(680.47 7093.53)" fill="none" stroke="#000" stroke-linecap="round" stroke-width="0.216"/>
    <path id="Trazado_900552" data-name="Trazado 900552" d="M0,0H93.7" transform="translate(776.912 7093.53)" fill="none" stroke="#000" stroke-linecap="round" stroke-width="0.216"/>
    <path id="Trazado_899601" data-name="Trazado 899601" d="M191.064,191.2q-80.72-.282-161.441-.559" transform="translate(650.871 6713.565)" fill="none" stroke="#000" stroke-linecap="round" stroke-linejoin="round" stroke-width="0.216"/>
    <path id="Trazado_900553" data-name="Trazado 900553" d="M0,0,1.623,3.144" transform="translate(841.148 6843.704)" fill="none" stroke="#000" stroke-linecap="round" stroke-width="0.216" stroke-dasharray="0.22 1.08"/>
    <path id="Trazado_899602" data-name="Trazado 899602" d="M166.055,139.522c8.834,41.654,21.881,60.594,30.3,60.594" transform="translate(675.934 6704.175)" fill="none" stroke="#000" stroke-linecap="round" stroke-linejoin="round" stroke-width="0.567"/>
    <path id="Trazado_900554" data-name="Trazado 900554" d="M0,69.339V0" transform="translate(680.494 6834.864)" fill="none" stroke="#000" stroke-linecap="round" stroke-width="0.216" stroke-dasharray="0.22 1.08"/>
    <path id="Trazado_900555" data-name="Trazado 900555" d="M0,111.811V0" transform="translate(680.657 6722.663)" fill="none" stroke="#000" stroke-linecap="round" stroke-width="0.343" stroke-dasharray="0.343 1.028"/>
    <path id="Trazado_899603" data-name="Trazado 899603" d="M110.7,191.492c.175-.2.35-.391.526-.593" transform="translate(665.765 6713.613)" fill="none" stroke="#000" stroke-linecap="round" stroke-linejoin="round" stroke-width="0.216" stroke-dasharray="1.08 1.08"/>
    <path id="Trazado_899604" data-name="Trazado 899604" d="M29.289,190.1l-.208,4.165C44.566,330.5,48.734,541.752,52.4,660.518" transform="translate(650.771 6713.466)" fill="none" stroke="#000" stroke-linecap="round" stroke-linejoin="round" stroke-width="0.567"/>
    <path id="Trazado_899605" data-name="Trazado 899605" d="M105.566,33.934l11.5.788" transform="translate(664.822 6684.779)" fill="none" stroke="#000" stroke-linecap="round" stroke-linejoin="round" stroke-width="0.567"/>
    <path id="Trazado_899606" data-name="Trazado 899606" d="M115.281,34.6l50.427,3.434" transform="translate(666.606 6684.901)" fill="none" stroke="#000" stroke-linecap="round" stroke-linejoin="round" stroke-width="0.567"/>
    <path id="Trazado_899607" data-name="Trazado 899607" d="M110.543,34.276c.007.962.007,1.926.013,2.888" transform="translate(665.736 6684.841)" fill="none" stroke="#000" stroke-linecap="round" stroke-linejoin="round" stroke-width="0.216"/>
    <path id="Trazado_899608" data-name="Trazado 899608" d="M110.554,36.716q.243,91.162.491,182.332" transform="translate(665.738 6685.29)" fill="none" stroke="#000" stroke-linecap="round" stroke-linejoin="round" stroke-width="0.216"/>
    <path id="Trazado_899609" data-name="Trazado 899609" d="M110.97,190.751q.435,235.557.491,471.121" transform="translate(665.814 6713.586)" fill="none" stroke="#000" stroke-linecap="round" stroke-linejoin="round" stroke-width="0.216"/>
    <path id="Trazado_899610" data-name="Trazado 899610" d="M48.393,30.038q33.842,2.314,67.676,4.612" transform="translate(654.319 6684.063)" fill="none" stroke="#000" stroke-linecap="round" stroke-linejoin="round" stroke-width="0.567"/>
    <path id="Trazado_899611" data-name="Trazado 899611" d="M49.442,37.023c-24.816,80.643-17.4,122.425-20.245,182.77" transform="translate(650.793 6685.346)" fill="none" stroke="#000" stroke-linecap="round" stroke-linejoin="round" stroke-width="0.567"/>
    <path id="Trazado_899612" data-name="Trazado 899612" d="M48.777,30.391q-1.293,3.99-2.477,7.85" transform="translate(653.935 6684.128)" fill="none" stroke="#000" stroke-linecap="round" stroke-linejoin="round" stroke-width="0.567"/>
    <path id="Trazado_900556" data-name="Trazado 900556" d="M7.687,281.113,0,0" transform="translate(682.4 7092.81)" fill="none" stroke="#000" stroke-linecap="round" stroke-width="1.134"/>
    <path id="Trazado_900557" data-name="Trazado 900557" d="M11.358,0,0,281.053" transform="translate(850.748 7093.847)" fill="none" stroke="#000" stroke-linecap="round" stroke-width="0.567"/>
    <path id="Trazado_899613" data-name="Trazado 899613" d="M193.112,190.757c-10.3,28.466-10.125,72.773-9.594,117.605" transform="translate(679.106 6713.587)" fill="none" stroke="#000" stroke-linecap="round" stroke-linejoin="round" stroke-width="0.567"/>
    <path id="Trazado_900558" data-name="Trazado 900558" d="M9.209,60.814,0,0" transform="translate(826.557 6843.407)" fill="none" stroke="#000" stroke-linecap="round" stroke-width="1.135"/>
    <path id="Trazado_899614" data-name="Trazado 899614" d="M156.364,160.35c14.6,47.176,58.971,39.162,65.359,39.16" transform="translate(674.153 6708.001)" fill="none" stroke="#000" stroke-linecap="round" stroke-linejoin="round" stroke-width="1.135"/>
    <path id="Trazado_900559" data-name="Trazado 900559" d="M14.782,122.273,0,0" transform="translate(811.52 6721.519)" fill="none" stroke="#000" stroke-linecap="round" stroke-width="1.134"/>
    <path id="Trazado_900560" data-name="Trazado 900560" d="M0,0,172.872.8" transform="translate(690.255 7373.875)" fill="none" stroke="#000" stroke-linecap="round" stroke-width="1.135"/>
    <path id="Trazado_900561" data-name="Trazado 900561" d="M0,280.642,7.84,0" transform="translate(862.849 7094.08)" fill="none" stroke="#000" stroke-linecap="round" stroke-width="1.134"/>
    <path id="Trazado_899615" data-name="Trazado 899615" d="M183.576,290.27c-.774,23.934.954,47.768-.514,71.965" transform="translate(679.058 6731.868)" fill="none" stroke="#000" stroke-linecap="round" stroke-linejoin="round" stroke-width="0.567"/>
    <path id="Trazado_899616" data-name="Trazado 899616" d="M191.582,289.717c-.582,23.617-1.352,47.906-1.029,72.371" transform="translate(680.42 6731.766)" fill="none" stroke="#000" stroke-linecap="round" stroke-linejoin="round" stroke-width="1.135"/>
    <path id="Trazado_899617" data-name="Trazado 899617" d="M215.284,193.433c-.21.4-1.572,3.381-1.778,3.783-18.749,36.624-20.891,72.951-22.1,110.188" transform="translate(680.591 6714.079)" fill="none" stroke="#000" stroke-linecap="round" stroke-linejoin="round" stroke-width="1.135"/>
    <path id="Trazado_899618" data-name="Trazado 899618" d="M46.432,157.588a1.672,1.672,0,0,0,1.084-.376,1.324,1.324,0,0,0,.514-.94h1.1a2.1,2.1,0,0,1-.4,1.109,2.644,2.644,0,0,1-.986.84,2.857,2.857,0,0,1-1.307.312,2.8,2.8,0,0,1-2.2-.923,3.688,3.688,0,0,1-.818-2.53v-.194a4.093,4.093,0,0,1,.363-1.76,2.772,2.772,0,0,1,1.044-1.2,2.963,2.963,0,0,1,1.607-.426,2.719,2.719,0,0,1,1.9.683,2.441,2.441,0,0,1,.8,1.773h-1.1a1.6,1.6,0,0,0-.5-1.081,1.55,1.55,0,0,0-1.106-.423,1.622,1.622,0,0,0-1.37.636,2.981,2.981,0,0,0-.485,1.838v.22a2.922,2.922,0,0,0,.482,1.8,1.63,1.63,0,0,0,1.379.633" transform="translate(653.404 6706.376)"/>
    <path id="Trazado_899619" data-name="Trazado 899619" d="M53.556,158.41a2.447,2.447,0,0,1-.162-.715,2.589,2.589,0,0,1-1.931.84,2.393,2.393,0,0,1-1.644-.567,1.836,1.836,0,0,1-.643-1.438,1.918,1.918,0,0,1,.8-1.645,3.8,3.8,0,0,1,2.266-.586h1.128v-.533a1.306,1.306,0,0,0-.363-.968,1.461,1.461,0,0,0-1.071-.36,1.685,1.685,0,0,0-1.04.314.923.923,0,0,0-.42.758H49.314a1.6,1.6,0,0,1,.36-.98,2.449,2.449,0,0,1,.978-.749,3.293,3.293,0,0,1,1.357-.276,2.68,2.68,0,0,1,1.836.586,2.112,2.112,0,0,1,.689,1.613v3.12a3.818,3.818,0,0,0,.238,1.486v.1Zm-1.924-.884a2.04,2.04,0,0,0,1.035-.282,1.711,1.711,0,0,0,.708-.733v-1.392h-.909q-2.131,0-2.131,1.248a1.058,1.058,0,0,0,.363.852,1.4,1.4,0,0,0,.934.307" transform="translate(654.463 6706.376)"/>
    <path id="Trazado_899620" data-name="Trazado 899620" d="M55,155.385a3.968,3.968,0,0,1,.74-2.509,2.516,2.516,0,0,1,3.822-.135v-3.535H60.72v9.625H59.653L59.6,158.1a2.355,2.355,0,0,1-1.934.852,2.319,2.319,0,0,1-1.922-.965A4.027,4.027,0,0,1,55,155.473Zm1.159.131a3,3,0,0,0,.476,1.8,1.539,1.539,0,0,0,1.316.652,1.694,1.694,0,0,0,1.611-.99v-3.114a1.7,1.7,0,0,0-1.6-.959,1.547,1.547,0,0,0-1.329.658,3.3,3.3,0,0,0-.476,1.948" transform="translate(655.532 6705.954)"/>
    <path id="Trazado_899621" data-name="Trazado 899621" d="M64.21,158.535a2.961,2.961,0,0,1-2.243-.906,3.361,3.361,0,0,1-.865-2.422v-.213a4.052,4.052,0,0,1,.386-1.8,3,3,0,0,1,1.077-1.241,2.715,2.715,0,0,1,1.5-.449,2.54,2.54,0,0,1,2.055.871,3.772,3.772,0,0,1,.733,2.494v.483H62.262a2.415,2.415,0,0,0,.585,1.619,1.842,1.842,0,0,0,1.426.617,2.017,2.017,0,0,0,1.039-.25,2.645,2.645,0,0,0,.746-.664l.708.55a2.844,2.844,0,0,1-2.556,1.31m-.144-6.078a1.543,1.543,0,0,0-1.178.511A2.483,2.483,0,0,0,62.3,154.4h3.4v-.088a2.208,2.208,0,0,0-.476-1.37,1.458,1.458,0,0,0-1.153-.485" transform="translate(656.654 6706.376)"/>
    <path id="Trazado_899622" data-name="Trazado 899622" d="M70.372,152.67a3.438,3.438,0,0,0-.571-.044,1.529,1.529,0,0,0-1.548.971v4.813H67.094v-6.78h1.128l.019.784a1.806,1.806,0,0,1,1.617-.909,1.194,1.194,0,0,1,.514.088Z" transform="translate(657.754 6706.376)"/>
    <path id="Trazado_899623" data-name="Trazado 899623" d="M74.978,158.41a2.447,2.447,0,0,1-.162-.715,2.589,2.589,0,0,1-1.931.84,2.393,2.393,0,0,1-1.644-.567,1.836,1.836,0,0,1-.643-1.438,1.918,1.918,0,0,1,.8-1.645,3.8,3.8,0,0,1,2.266-.586H74.8v-.533a1.306,1.306,0,0,0-.363-.968,1.461,1.461,0,0,0-1.071-.36,1.685,1.685,0,0,0-1.04.314.923.923,0,0,0-.42.758H70.736a1.6,1.6,0,0,1,.36-.98,2.45,2.45,0,0,1,.978-.749,3.293,3.293,0,0,1,1.357-.276,2.68,2.68,0,0,1,1.836.586,2.112,2.112,0,0,1,.689,1.613v3.12a3.818,3.818,0,0,0,.238,1.486v.1Zm-1.924-.884a2.04,2.04,0,0,0,1.035-.282,1.711,1.711,0,0,0,.708-.733v-1.392h-.909q-2.131,0-2.131,1.248a1.058,1.058,0,0,0,.363.852,1.4,1.4,0,0,0,.934.307" transform="translate(658.398 6706.376)"/>
    <path id="Trazado_899624" data-name="Trazado 899624" d="M76.538,159.536h-1l3.809-9.906h.991Z" transform="translate(659.306 6706.032)"/>
    <path id="Trazado_899625" data-name="Trazado 899625" d="M86.468,155.689h1.265v.946H86.468v2.118H85.3v-2.118H81.148v-.683l4.085-6.322h1.235Zm-4,0H85.3v-4.474l-.137.251Z" transform="translate(660.336 6706.032)"/>
    <path id="Trazado_899626" data-name="Trazado 899626" d="M93.093,153.617h2.544v1.1H93.093v2.882H91.928v-2.882H89.385v-1.1h2.544v-2.663h1.165Z" transform="translate(661.849 6706.275)"/>
    <path id="Trazado_899627" data-name="Trazado 899627" d="M103.319,157.588a1.672,1.672,0,0,0,1.084-.376,1.324,1.324,0,0,0,.514-.94h1.1a2.1,2.1,0,0,1-.4,1.109,2.644,2.644,0,0,1-.986.84,2.857,2.857,0,0,1-1.307.312,2.8,2.8,0,0,1-2.2-.923,3.688,3.688,0,0,1-.818-2.53v-.194a4.093,4.093,0,0,1,.363-1.76,2.772,2.772,0,0,1,1.044-1.2,2.963,2.963,0,0,1,1.607-.426,2.719,2.719,0,0,1,1.9.683,2.441,2.441,0,0,1,.8,1.773h-1.1a1.6,1.6,0,0,0-.5-1.081,1.55,1.55,0,0,0-1.106-.423,1.622,1.622,0,0,0-1.37.636,2.981,2.981,0,0,0-.485,1.838v.22a2.922,2.922,0,0,0,.482,1.8,1.63,1.63,0,0,0,1.379.633" transform="translate(663.854 6706.376)"/>
    <path id="Trazado_899628" data-name="Trazado 899628" d="M105.969,154.957a3.994,3.994,0,0,1,.391-1.792,2.928,2.928,0,0,1,1.09-1.229,2.975,2.975,0,0,1,1.594-.432,2.859,2.859,0,0,1,2.241.959,3.686,3.686,0,0,1,.855,2.55v.082a4.031,4.031,0,0,1-.379,1.777,2.872,2.872,0,0,1-1.083,1.225,3.008,3.008,0,0,1-1.62.438,2.853,2.853,0,0,1-2.234-.959,3.666,3.666,0,0,1-.855-2.537Zm1.165.137a2.9,2.9,0,0,0,.523,1.811,1.773,1.773,0,0,0,2.8-.009,3.17,3.17,0,0,0,.52-1.939,2.9,2.9,0,0,0-.529-1.809,1.686,1.686,0,0,0-1.407-.692,1.663,1.663,0,0,0-1.384.684,3.141,3.141,0,0,0-.527,1.954" transform="translate(664.896 6706.376)"/>
    <path id="Trazado_899629" data-name="Trazado 899629" d="M116.4,156.61a.855.855,0,0,0-.354-.73,3.4,3.4,0,0,0-1.235-.447,5.844,5.844,0,0,1-1.4-.451,1.993,1.993,0,0,1-.765-.627,1.491,1.491,0,0,1-.247-.864,1.759,1.759,0,0,1,.7-1.41,2.752,2.752,0,0,1,1.8-.576,2.841,2.841,0,0,1,1.87.594,1.894,1.894,0,0,1,.717,1.523h-1.166a1.048,1.048,0,0,0-.4-.821,1.513,1.513,0,0,0-1.018-.344,1.582,1.582,0,0,0-.99.276.87.87,0,0,0-.357.721.7.7,0,0,0,.331.633,4.113,4.113,0,0,0,1.2.406,6.247,6.247,0,0,1,1.406.465,2.04,2.04,0,0,1,.8.647,1.592,1.592,0,0,1,.26.924,1.737,1.737,0,0,1-.727,1.457,3.048,3.048,0,0,1-1.887.548,3.421,3.421,0,0,1-1.441-.289,2.337,2.337,0,0,1-.98-.8,1.935,1.935,0,0,1-.354-1.119h1.159a1.2,1.2,0,0,0,.466.924,1.815,1.815,0,0,0,1.149.342,1.884,1.884,0,0,0,1.057-.266.82.82,0,0,0,.4-.711" transform="translate(666.035 6706.376)"/>
    <path id="Trazado_899630" data-name="Trazado 899630" d="M119.7,150.223v1.642h1.265v.9H119.7v4.209a.937.937,0,0,0,.17.612.707.707,0,0,0,.575.2,2.833,2.833,0,0,0,.552-.075v.934a3.38,3.38,0,0,1-.889.124,1.444,1.444,0,0,1-1.173-.47,2.018,2.018,0,0,1-.394-1.334v-4.2h-1.233v-.9h1.233v-1.642Z" transform="translate(666.979 6706.141)"/>
    <path id="Trazado_899631" data-name="Trazado 899631" d="M125.731,157.719a2.464,2.464,0,0,1-1.987.8,2.1,2.1,0,0,1-1.65-.63,2.722,2.722,0,0,1-.574-1.864v-4.41h1.16v4.38q0,1.541,1.252,1.541a1.735,1.735,0,0,0,1.768-.99V151.61h1.158v6.779h-1.1Z" transform="translate(667.752 6706.396)"/>
    <path id="Trazado_899632" data-name="Trazado 899632" d="M130.795,152.67a3.433,3.433,0,0,0-.569-.044,1.527,1.527,0,0,0-1.548.971v4.813h-1.16v-6.78h1.129l.018.784a1.805,1.805,0,0,1,1.616-.909,1.2,1.2,0,0,1,.515.088Z" transform="translate(668.854 6706.376)"/>
    <path id="Trazado_899633" data-name="Trazado 899633" d="M135.4,158.41a2.4,2.4,0,0,1-.163-.715,2.587,2.587,0,0,1-1.931.84,2.4,2.4,0,0,1-1.644-.567,1.835,1.835,0,0,1-.642-1.438,1.917,1.917,0,0,1,.8-1.645,3.8,3.8,0,0,1,2.267-.586h1.128v-.533a1.3,1.3,0,0,0-.365-.968,1.458,1.458,0,0,0-1.071-.36,1.689,1.689,0,0,0-1.04.314.922.922,0,0,0-.42.758H131.16a1.6,1.6,0,0,1,.361-.98,2.446,2.446,0,0,1,.977-.749,3.293,3.293,0,0,1,1.357-.276,2.678,2.678,0,0,1,1.836.586,2.108,2.108,0,0,1,.689,1.613v3.12a3.84,3.84,0,0,0,.238,1.486v.1Zm-1.924-.884a2.032,2.032,0,0,0,1.033-.282,1.714,1.714,0,0,0,.709-.733v-1.392h-.909q-2.131,0-2.131,1.248a1.054,1.054,0,0,0,.363.852,1.4,1.4,0,0,0,.934.307" transform="translate(669.498 6706.376)"/>
    <path id="Trazado_900562" data-name="Trazado 900562" d="M0,0H14.488" transform="translate(827.588 6844.31)" fill="none" stroke="#000" stroke-linecap="round" stroke-width="0.216"/>
    <path id="Trazado_899634" data-name="Trazado 899634" d="M169.438,59.467h.824a1.805,1.805,0,0,0,1.223-.41,1.367,1.367,0,0,0,.445-1.074,1.34,1.34,0,0,0-1.513-1.52,1.572,1.572,0,0,0-1.136.406,1.423,1.423,0,0,0-.425,1.077h-1.1a2.207,2.207,0,0,1,.752-1.707,2.739,2.739,0,0,1,1.908-.679,2.705,2.705,0,0,1,1.918.647,2.337,2.337,0,0,1,.694,1.8,1.9,1.9,0,0,1-.363,1.091,2.208,2.208,0,0,1-1,.79,2.121,2.121,0,0,1,1.1.748,2.078,2.078,0,0,1,.389,1.276,2.356,2.356,0,0,1-.76,1.845,2.842,2.842,0,0,1-1.977.683,2.917,2.917,0,0,1-1.979-.658,2.186,2.186,0,0,1-.762-1.74h1.1a1.41,1.41,0,0,0,.445,1.093,1.693,1.693,0,0,0,1.193.41,1.661,1.661,0,0,0,1.217-.415,1.6,1.6,0,0,0,.421-1.193,1.453,1.453,0,0,0-.463-1.158,2.023,2.023,0,0,0-1.336-.415h-.824Z" transform="translate(676.232 6688.751)"/>
    <path id="Trazado_899635" data-name="Trazado 899635" d="M175.667,63.2a1.588,1.588,0,0,0,1.027-.356,1.253,1.253,0,0,0,.486-.89h1.039a1.991,1.991,0,0,1-.38,1.05,2.5,2.5,0,0,1-.935.8,2.7,2.7,0,0,1-1.238.3,2.645,2.645,0,0,1-2.086-.875,3.492,3.492,0,0,1-.775-2.4v-.185a3.889,3.889,0,0,1,.344-1.668,2.625,2.625,0,0,1,.988-1.133,2.8,2.8,0,0,1,1.522-.4,2.583,2.583,0,0,1,1.8.647,2.319,2.319,0,0,1,.762,1.68h-1.039a1.52,1.52,0,0,0-.471-1.024,1.471,1.471,0,0,0-1.049-.4,1.538,1.538,0,0,0-1.3.6,2.838,2.838,0,0,0-.459,1.742v.207a2.774,2.774,0,0,0,.457,1.709,1.543,1.543,0,0,0,1.306.6" transform="translate(677.174 6689.096)"/>
    <path id="Trazado_899636" data-name="Trazado 899636" d="M179.456,57.557l.03.713a2.374,2.374,0,0,1,1.906-.832,1.838,1.838,0,0,1,1.835,1.033,2.424,2.424,0,0,1,.835-.748,2.468,2.468,0,0,1,1.213-.285q2.111,0,2.148,2.238v4.3h-1.1V59.74a1.471,1.471,0,0,0-.316-1.03,1.384,1.384,0,0,0-1.056-.341,1.463,1.463,0,0,0-1.016.365,1.48,1.48,0,0,0-.468.982v4.263h-1.1V59.771a1.226,1.226,0,0,0-1.372-1.4,1.467,1.467,0,0,0-1.477.92v4.69h-1.1V57.557Z" transform="translate(678.205 6689.096)"/>
    <path id="Trazado_899637" data-name="Trazado 899637" d="M114.111,29.6h.825a1.81,1.81,0,0,0,1.223-.41,1.368,1.368,0,0,0,.445-1.074,1.34,1.34,0,0,0-1.513-1.52,1.574,1.574,0,0,0-1.138.406,1.422,1.422,0,0,0-.424,1.077h-1.1a2.206,2.206,0,0,1,.75-1.707,2.742,2.742,0,0,1,1.909-.679,2.7,2.7,0,0,1,1.916.647,2.338,2.338,0,0,1,.695,1.8,1.9,1.9,0,0,1-.365,1.091,2.2,2.2,0,0,1-.994.79,2.126,2.126,0,0,1,1.1.748,2.078,2.078,0,0,1,.389,1.276,2.356,2.356,0,0,1-.761,1.845,2.839,2.839,0,0,1-1.976.683,2.922,2.922,0,0,1-1.98-.658,2.186,2.186,0,0,1-.762-1.74h1.1a1.41,1.41,0,0,0,.445,1.093,1.689,1.689,0,0,0,1.193.41,1.658,1.658,0,0,0,1.216-.415,1.6,1.6,0,0,0,.423-1.193,1.457,1.457,0,0,0-.463-1.158,2.025,2.025,0,0,0-1.336-.415h-.825Z" transform="translate(666.069 6683.264)"/>
    <path id="Trazado_899638" data-name="Trazado 899638" d="M120.34,33.329a1.583,1.583,0,0,0,1.026-.356,1.251,1.251,0,0,0,.488-.89h1.038a1.99,1.99,0,0,1-.379,1.05,2.494,2.494,0,0,1-.936.8,2.692,2.692,0,0,1-1.237.3,2.652,2.652,0,0,1-2.087-.875,3.5,3.5,0,0,1-.774-2.4v-.185a3.855,3.855,0,0,1,.346-1.668,2.615,2.615,0,0,1,.987-1.133,2.8,2.8,0,0,1,1.522-.4,2.581,2.581,0,0,1,1.8.647,2.318,2.318,0,0,1,.761,1.68h-1.038a1.515,1.515,0,0,0-.471-1.024,1.473,1.473,0,0,0-1.049-.4,1.532,1.532,0,0,0-1.3.6,2.83,2.83,0,0,0-.459,1.742v.207a2.767,2.767,0,0,0,.456,1.709,1.543,1.543,0,0,0,1.306.6" transform="translate(667.01 6683.608)"/>
    <path id="Trazado_899639" data-name="Trazado 899639" d="M124.129,27.684l.03.713a2.374,2.374,0,0,1,1.906-.832A1.838,1.838,0,0,1,127.9,28.6a2.424,2.424,0,0,1,.834-.748,2.468,2.468,0,0,1,1.213-.285q2.111,0,2.148,2.238v4.3H131V29.867a1.471,1.471,0,0,0-.316-1.03,1.384,1.384,0,0,0-1.056-.341,1.463,1.463,0,0,0-1.016.365,1.48,1.48,0,0,0-.468.982v4.263h-1.1V29.9a1.226,1.226,0,0,0-1.372-1.4,1.467,1.467,0,0,0-1.477.92v4.69h-1.1V27.684Z" transform="translate(668.041 6683.608)"/>
    <path id="Trazado_899640" data-name="Trazado 899640" d="M59.525,15.79a2.044,2.044,0,0,1-.65,1.359,2.133,2.133,0,0,1-1.456.478,1.954,1.954,0,0,1-1.577-.705,2.833,2.833,0,0,1-.593-1.887V14.5a3.151,3.151,0,0,1,.277-1.361,2.055,2.055,0,0,1,.784-.9,2.181,2.181,0,0,1,1.174-.316,2.01,2.01,0,0,1,1.419.495,2.071,2.071,0,0,1,.621,1.367h-.736a1.6,1.6,0,0,0-.414-.964,1.251,1.251,0,0,0-.89-.3,1.309,1.309,0,0,0-1.1.518,2.38,2.38,0,0,0-.4,1.477v.539a2.454,2.454,0,0,0,.378,1.439,1.222,1.222,0,0,0,1.056.534,1.405,1.405,0,0,0,.936-.277,1.529,1.529,0,0,0,.433-.962Z" transform="translate(655.578 6680.735)"/>
    <path id="Trazado_899641" data-name="Trazado 899641" d="M58.829,18.016h-.606l2.318-6.03h.6Z" transform="translate(656.125 6680.747)"/>
    <path id="Trazado_899642" data-name="Trazado 899642" d="M63.406,15.675h.769v.575h-.769V17.54H62.7V16.251H60.169v-.415l2.486-3.848h.752Zm-2.437,0H62.7V12.953l-.083.153Z" transform="translate(656.482 6680.747)"/>
    <path id="Trazado_899643" data-name="Trazado 899643" d="M67.439,14.413h1.548v.668H67.439v1.754h-.71V15.081H65.181v-.668h1.547V12.793h.71Z" transform="translate(657.403 6680.895)"/>
    <path id="Trazado_899644" data-name="Trazado 899644" d="M74.753,15.313a2.468,2.468,0,0,1-.431,1.518,1.382,1.382,0,0,1-1.167.575,1.516,1.516,0,0,1-1.183-.476v1.986h-.705V13.2h.645l.034.458a1.451,1.451,0,0,1,1.2-.534,1.406,1.406,0,0,1,1.177.56,2.5,2.5,0,0,1,.433,1.56Zm-.705-.08a1.828,1.828,0,0,0-.3-1.1.959.959,0,0,0-.817-.4,1.038,1.038,0,0,0-.961.568v1.971a1.039,1.039,0,0,0,.968.565.954.954,0,0,0,.807-.4,1.985,1.985,0,0,0,.3-1.2" transform="translate(658.521 6680.957)"/>
    <path id="Trazado_899645" data-name="Trazado 899645" d="M74.972,12.33a.412.412,0,0,1,.105-.289.391.391,0,0,1,.31-.12.4.4,0,0,1,.313.12.413.413,0,0,1,.107.289.417.417,0,1,1-.835,0m.762,5.221h-.705V13.425h.705Z" transform="translate(659.202 6680.735)"/>
    <path id="Trazado_899646" data-name="Trazado 899646" d="M77.236,13.2l.024.518a1.5,1.5,0,0,1,1.235-.594q1.309,0,1.32,1.475V17.33h-.705V14.6a.952.952,0,0,0-.2-.659.816.816,0,0,0-.624-.214,1.017,1.017,0,0,0-.6.183,1.244,1.244,0,0,0-.4.481v2.94h-.7V13.2Z" transform="translate(659.495 6680.957)"/>
    <path id="Trazado_899647" data-name="Trazado 899647" d="M80.9,16.743h2.414v.575H80.043V16.8l2.276-3.024H80.077v-.584H83.2v.5Z" transform="translate(660.133 6680.968)"/>
    <path id="Trazado_899648" data-name="Trazado 899648" d="M86.047,17.33a1.516,1.516,0,0,1-.1-.434,1.574,1.574,0,0,1-1.174.511,1.459,1.459,0,0,1-1-.346,1.116,1.116,0,0,1-.391-.875,1.167,1.167,0,0,1,.49-1,2.307,2.307,0,0,1,1.378-.356h.688V14.5a.79.79,0,0,0-.223-.589.889.889,0,0,0-.651-.219,1.024,1.024,0,0,0-.633.191.561.561,0,0,0-.256.462h-.709a.976.976,0,0,1,.219-.6,1.508,1.508,0,0,1,.6-.457,2,2,0,0,1,.825-.167,1.63,1.63,0,0,1,1.117.356,1.284,1.284,0,0,1,.419.982v1.9a2.309,2.309,0,0,0,.146.9v.062Zm-1.171-.537a1.231,1.231,0,0,0,.629-.172,1.043,1.043,0,0,0,.432-.446v-.846h-.554q-1.3,0-1.3.759a.64.64,0,0,0,.221.518.851.851,0,0,0,.568.187" transform="translate(660.746 6680.957)"/>
    <path id="Trazado_899649" data-name="Trazado 899649" d="M89.127,14.413h1.548v.668H89.127v1.754h-.71V15.081H86.87v-.668h1.547V12.793h.71Z" transform="translate(661.387 6680.895)"/>
    <path id="Trazado_899650" data-name="Trazado 899650" d="M94.126,16.831a1.019,1.019,0,0,0,.661-.228.813.813,0,0,0,.312-.573h.666a1.273,1.273,0,0,1-.244.676,1.6,1.6,0,0,1-.6.51,1.728,1.728,0,0,1-.8.191,1.7,1.7,0,0,1-1.34-.562,2.237,2.237,0,0,1-.5-1.539v-.118a2.493,2.493,0,0,1,.221-1.071,1.7,1.7,0,0,1,.634-.728,1.806,1.806,0,0,1,.979-.259,1.659,1.659,0,0,1,1.154.415,1.487,1.487,0,0,1,.489,1.078H95.1a.975.975,0,0,0-.3-.657.94.94,0,0,0-.672-.258.987.987,0,0,0-.833.387,1.816,1.816,0,0,0-.3,1.12v.134a1.773,1.773,0,0,0,.295,1.1.987.987,0,0,0,.838.386" transform="translate(662.383 6680.957)"/>
    <path id="Trazado_899651" data-name="Trazado 899651" d="M95.738,15.229a2.443,2.443,0,0,1,.239-1.091,1.776,1.776,0,0,1,.664-.747,1.8,1.8,0,0,1,.969-.263,1.741,1.741,0,0,1,1.364.582,2.25,2.25,0,0,1,.521,1.553v.05a2.455,2.455,0,0,1-.231,1.081,1.751,1.751,0,0,1-.659.746,1.835,1.835,0,0,1-.986.268,1.735,1.735,0,0,1-1.36-.585,2.231,2.231,0,0,1-.521-1.544Zm.71.084a1.761,1.761,0,0,0,.318,1.1,1.078,1.078,0,0,0,1.706-.006,1.924,1.924,0,0,0,.317-1.18,1.764,1.764,0,0,0-.322-1.1,1.024,1.024,0,0,0-.857-.421,1.011,1.011,0,0,0-.842.415,1.911,1.911,0,0,0-.321,1.19" transform="translate(663.016 6680.957)"/>
    <path id="Trazado_899652" data-name="Trazado 899652" d="M102.088,16.235a.52.52,0,0,0-.215-.444,2.067,2.067,0,0,0-.75-.272,3.592,3.592,0,0,1-.851-.275,1.218,1.218,0,0,1-.465-.382.906.906,0,0,1-.15-.526,1.069,1.069,0,0,1,.428-.858,1.672,1.672,0,0,1,1.1-.35,1.726,1.726,0,0,1,1.139.362,1.15,1.15,0,0,1,.437.926h-.709a.633.633,0,0,0-.246-.5.916.916,0,0,0-.62-.211.966.966,0,0,0-.6.168.527.527,0,0,0-.218.438.429.429,0,0,0,.2.386,2.476,2.476,0,0,0,.732.247,3.8,3.8,0,0,1,.856.283,1.237,1.237,0,0,1,.485.394.962.962,0,0,1,.159.562,1.057,1.057,0,0,1-.442.888,1.859,1.859,0,0,1-1.148.333,2.076,2.076,0,0,1-.877-.175,1.425,1.425,0,0,1-.6-.49,1.175,1.175,0,0,1-.215-.681h.7a.729.729,0,0,0,.285.562,1.1,1.1,0,0,0,.7.208,1.135,1.135,0,0,0,.642-.162.5.5,0,0,0,.243-.433" transform="translate(663.71 6680.957)"/>
    <path id="Trazado_899653" data-name="Trazado 899653" d="M104.1,12.348v1h.771v.546H104.1v2.562a.574.574,0,0,0,.1.373.433.433,0,0,0,.35.124,1.7,1.7,0,0,0,.336-.046v.569a2.1,2.1,0,0,1-.542.076.878.878,0,0,1-.713-.286,1.231,1.231,0,0,1-.24-.812V13.893h-.752v-.546h.752v-1Z" transform="translate(664.284 6680.813)"/>
    <path id="Trazado_899654" data-name="Trazado 899654" d="M107.767,16.91a1.5,1.5,0,0,1-1.209.484,1.281,1.281,0,0,1-1-.384,1.657,1.657,0,0,1-.349-1.134V13.192h.705v2.666q0,.937.763.937a1.056,1.056,0,0,0,1.075-.6v-3h.705v4.126h-.671Z" transform="translate(664.755 6680.968)"/>
    <path id="Trazado_899655" data-name="Trazado 899655" d="M110.849,13.837a2.109,2.109,0,0,0-.347-.026.93.93,0,0,0-.942.591V17.33h-.705V13.2h.687l.012.477a1.1,1.1,0,0,1,.984-.553.721.721,0,0,1,.313.053Z" transform="translate(665.426 6680.957)"/>
    <path id="Trazado_899656" data-name="Trazado 899656" d="M113.653,17.33a1.517,1.517,0,0,1-.1-.434,1.574,1.574,0,0,1-1.174.511,1.459,1.459,0,0,1-1-.346,1.116,1.116,0,0,1-.391-.875,1.167,1.167,0,0,1,.49-1,2.307,2.307,0,0,1,1.378-.356h.688V14.5a.79.79,0,0,0-.223-.589.889.889,0,0,0-.651-.219,1.024,1.024,0,0,0-.633.191.561.561,0,0,0-.256.462h-.709a.976.976,0,0,1,.219-.6,1.508,1.508,0,0,1,.6-.457,2,2,0,0,1,.825-.167,1.63,1.63,0,0,1,1.117.356,1.284,1.284,0,0,1,.419.982v1.9a2.309,2.309,0,0,0,.146.9v.062Zm-1.171-.537a1.231,1.231,0,0,0,.629-.172,1.043,1.043,0,0,0,.432-.446v-.846h-.554q-1.3,0-1.3.759a.64.64,0,0,0,.221.518.851.851,0,0,0,.568.187" transform="translate(665.818 6680.957)"/>
    <path id="Trazado_900563" data-name="Trazado 900563" d="M0,0H175.57" transform="translate(665.935 6843.926)" fill="none" stroke="#000" stroke-linecap="round" stroke-width="0.622"/>
    <path id="Trazado_900564" data-name="Trazado 900564" d="M3.1,20.614,0,0" transform="translate(808.794 6702.061)" fill="none" stroke="#000" stroke-linecap="round" stroke-width="1.135"/>
    <path id="Trazado_899657" data-name="Trazado 899657" d="M29.385,31.114c41.264,5.895,88.577-3.668,128.582-11.248" transform="translate(650.827 6682.194)" fill="none" stroke="#000" stroke-linecap="round" stroke-linejoin="round" stroke-width="1.135"/>
    <path id="Trazado_900565" data-name="Trazado 900565" d="M0,0,5.832.114" transform="translate(832.517 6839.16)" fill="none" stroke="#000" stroke-linecap="round" stroke-width="0.567"/>
    <path id="Trazado_900566" data-name="Trazado 900566" d="M2.817,5.108,0,0" transform="translate(835.532 6834.166)" fill="none" stroke="#000" stroke-linecap="round" stroke-width="0.567"/>
    <path id="Trazado_900567" data-name="Trazado 900567" d="M3.016,0,0,4.99" transform="translate(832.668 6834.654)" fill="none" stroke="#000" stroke-linecap="round" stroke-width="0.567"/>
    <path id="Trazado_900568" data-name="Trazado 900568" d="M0,0,5.83,0" transform="translate(670.025 6841.084)" fill="none" stroke="#000" stroke-linecap="round" stroke-width="0.567"/>
    <path id="Trazado_900569" data-name="Trazado 900569" d="M2.917,5.047,0,0" transform="translate(672.938 6836.037)" fill="none" stroke="#000" stroke-linecap="round" stroke-width="0.567"/>
    <path id="Trazado_900570" data-name="Trazado 900570" d="M2.912,0,0,5.052" transform="translate(669.845 6835.897)" fill="none" stroke="#000" stroke-linecap="round" stroke-width="0.567"/>
    <path id="Trazado_900571" data-name="Trazado 900571" d="M0,0,3.369,17.684" transform="translate(801.456 6704.156)" fill="none" stroke="#000" stroke-linecap="round" stroke-width="0.569"/>
    <path id="Trazado_900572" data-name="Trazado 900572" d="M0,0,3.449,5.787" transform="translate(801.456 6704.156)" fill="none" stroke="#000" stroke-linecap="round" stroke-width="0.569"/>
    <path id="Trazado_900573" data-name="Trazado 900573" d="M1.078,0,0,6.649" transform="translate(800.377 6704.156)" fill="none" stroke="#000" stroke-linecap="round" stroke-width="0.569"/>
    <path id="Trazado_900574" data-name="Trazado 900574" d="M3.449,5.787,0,0" transform="translate(801.375 6716.053)" fill="none" stroke="#000" stroke-linecap="round" stroke-width="0.569"/>
    <path id="Trazado_900575" data-name="Trazado 900575" d="M0,6.649,1.077,0" transform="translate(804.824 6715.191)" fill="none" stroke="#000" stroke-linecap="round" stroke-width="0.569"/>
    <path id="Trazado_900576" data-name="Trazado 900576" d="M0,0H27.79" transform="translate(812.821 6726.893)" fill="none" stroke="#000" stroke-linecap="round" stroke-width="0.569"/>
    <path id="Trazado_900577" data-name="Trazado 900577" d="M0,2.3,6.326,0" transform="translate(812.821 6724.588)" fill="none" stroke="#000" stroke-linecap="round" stroke-width="0.569"/>
    <path id="Trazado_900578" data-name="Trazado 900578" d="M0,0,6.326,2.3" transform="translate(812.821 6726.893)" fill="none" stroke="#000" stroke-linecap="round" stroke-width="0.569"/>
    <path id="Trazado_900579" data-name="Trazado 900579" d="M6.333,0,0,2.3" transform="translate(834.278 6726.893)" fill="none" stroke="#000" stroke-linecap="round" stroke-width="0.569"/>
    <path id="Trazado_900580" data-name="Trazado 900580" d="M6.328,2.3,0,0" transform="translate(834.018 6725.049)" fill="none" stroke="#000" stroke-linecap="round" stroke-width="0.216"/>
    <path id="Trazado_900581" data-name="Trazado 900581" d="M0,12.631,1.684,0" transform="translate(698.705 7368.492)" fill="none" stroke="#000" stroke-linecap="round" stroke-width="0.569"/>
    <path id="Trazado_900582" data-name="Trazado 900582" d="M0,0,1.367,6.225" transform="translate(700.389 7368.492)" fill="none" stroke="#000" stroke-linecap="round" stroke-width="0.569"/>
    <path id="Trazado_900583" data-name="Trazado 900583" d="M2.951,0,0,5.652" transform="translate(697.438 7368.492)" fill="none" stroke="#000" stroke-linecap="round" stroke-width="0.569"/>
    <path id="Trazado_900584" data-name="Trazado 900584" d="M2.526,10.947,0,0" transform="translate(854.496 7371.437)" fill="none" stroke="#000" stroke-linecap="round" stroke-width="0.569"/>
    <path id="Trazado_900585" data-name="Trazado 900585" d="M0,0,3.059,4.716" transform="translate(854.495 7371.436)" fill="none" stroke="#000" stroke-linecap="round" stroke-width="0.569"/>
    <path id="Trazado_900586" data-name="Trazado 900586" d="M.688,0,0,5.578" transform="translate(853.807 7371.436)" fill="none" stroke="#000" stroke-linecap="round" stroke-width="0.569"/>
    <path id="Trazado_899658" data-name="Trazado 899658" d="M5.829,357.535H.166v-.789l2.992-3.325a7.034,7.034,0,0,0,.916-1.225,2.045,2.045,0,0,0,.252-.977,1.547,1.547,0,0,0-.41-1.109,1.426,1.426,0,0,0-1.091-.434,1.7,1.7,0,0,0-1.274.466,1.781,1.781,0,0,0-.455,1.3H0a2.55,2.55,0,0,1,.768-1.929,2.852,2.852,0,0,1,2.057-.735,2.731,2.731,0,0,1,1.9.632,2.151,2.151,0,0,1,.7,1.682,4.947,4.947,0,0,1-1.626,3.04l-2.315,2.511H5.829Z" transform="translate(645.429 6742.615)"/>
    <path id="Trazado_899659" data-name="Trazado 899659" d="M8.623,356.412a1.582,1.582,0,0,0,1.027-.356,1.253,1.253,0,0,0,.487-.89h1.038a1.979,1.979,0,0,1-.38,1.051,2.5,2.5,0,0,1-.935.8,2.7,2.7,0,0,1-1.237.3,2.648,2.648,0,0,1-2.087-.876,3.49,3.49,0,0,1-.774-2.4v-.183a3.864,3.864,0,0,1,.344-1.668,2.618,2.618,0,0,1,.987-1.134,2.814,2.814,0,0,1,1.523-.4,2.572,2.572,0,0,1,1.8.648,2.31,2.31,0,0,1,.762,1.68H10.137a1.519,1.519,0,0,0-.472-1.025,1.47,1.47,0,0,0-1.048-.4,1.537,1.537,0,0,0-1.3.6A2.83,2.83,0,0,0,6.86,353.9v.208a2.769,2.769,0,0,0,.457,1.709,1.545,1.545,0,0,0,1.306.6" transform="translate(646.488 6742.959)"/>
    <path id="Trazado_899660" data-name="Trazado 899660" d="M12.412,350.768l.03.713a2.373,2.373,0,0,1,1.906-.832,1.835,1.835,0,0,1,1.834,1.033,2.4,2.4,0,0,1,2.048-1.033q2.113,0,2.148,2.238v4.3h-1.1v-4.238a1.475,1.475,0,0,0-.315-1.03,1.38,1.38,0,0,0-1.056-.342,1.459,1.459,0,0,0-1.016.365,1.487,1.487,0,0,0-.469.982v4.262h-1.1v-4.209a1.225,1.225,0,0,0-1.371-1.4,1.469,1.469,0,0,0-1.478.92v4.69h-1.1v-6.423Z" transform="translate(647.519 6742.959)"/>
    <path id="Trazado_899661" data-name="Trazado 899661" d="M24.153,351.679l-1.792-.534.272-.9,1.793.665-.053-2.041h.908l-.059,2.07,1.763-.653.273.9-1.823.54,1.175,1.609-.736.557-1.1-1.709L23.7,353.857l-.742-.54Z" transform="translate(649.537 6742.633)"/>
    <path id="Trazado_900587" data-name="Trazado 900587" d="M0,1.684,6.738,0" transform="translate(680.603 7092.731)" fill="none" stroke="#000" stroke-linecap="round" stroke-width="0.57"/>
    <path id="Trazado_900588" data-name="Trazado 900588" d="M2.876,0,0,1.947" transform="translate(684.464 7092.731)" fill="none" stroke="#000" stroke-linecap="round" stroke-width="0.57"/>
    <path id="Trazado_899662" data-name="Trazado 899662" d="M194.323,350.8l-1.793-.534.273-.9,1.792.665-.052-2.041h.907l-.059,2.07,1.764-.653.272.9-1.822.54,1.174,1.609-.735.557-1.1-1.709-1.069,1.668-.742-.54Z" transform="translate(680.797 6742.472)"/>
    <path id="Trazado_899663" data-name="Trazado 899663" d="M208.193,356.655H202.53v-.79l2.991-3.325a7.073,7.073,0,0,0,.919-1.225,2.057,2.057,0,0,0,.251-.977,1.551,1.551,0,0,0-.408-1.109,1.433,1.433,0,0,0-1.093-.434,1.7,1.7,0,0,0-1.274.466,1.78,1.78,0,0,0-.453,1.3h-1.1a2.546,2.546,0,0,1,.769-1.929,2.847,2.847,0,0,1,2.056-.735,2.729,2.729,0,0,1,1.9.632,2.151,2.151,0,0,1,.7,1.682,4.948,4.948,0,0,1-1.626,3.04l-2.315,2.511h4.339Z" transform="translate(682.604 6742.453)"/>
    <path id="Trazado_899664" data-name="Trazado 899664" d="M213.529,355.532a1.582,1.582,0,0,0,1.027-.356,1.253,1.253,0,0,0,.486-.89h1.039a2,2,0,0,1-.38,1.051,2.51,2.51,0,0,1-.935.8,2.7,2.7,0,0,1-1.238.3,2.646,2.646,0,0,1-2.086-.876,3.49,3.49,0,0,1-.775-2.4v-.183a3.882,3.882,0,0,1,.344-1.668,2.629,2.629,0,0,1,.988-1.134,2.813,2.813,0,0,1,1.522-.4,2.577,2.577,0,0,1,1.8.647,2.315,2.315,0,0,1,.762,1.68h-1.039a1.523,1.523,0,0,0-.471-1.025,1.471,1.471,0,0,0-1.049-.4,1.54,1.54,0,0,0-1.3.6,2.838,2.838,0,0,0-.459,1.742v.208a2.777,2.777,0,0,0,.457,1.709,1.545,1.545,0,0,0,1.306.6" transform="translate(684.129 6742.798)"/>
    <path id="Trazado_899665" data-name="Trazado 899665" d="M217.317,349.888l.03.713a2.374,2.374,0,0,1,1.906-.832,1.838,1.838,0,0,1,1.835,1.033,2.4,2.4,0,0,1,2.048-1.033q2.111,0,2.148,2.238v4.3h-1.1v-4.238a1.469,1.469,0,0,0-.316-1.03,1.38,1.38,0,0,0-1.056-.342,1.462,1.462,0,0,0-1.016.365,1.48,1.48,0,0,0-.468.982v4.263h-1.1V352.1a1.225,1.225,0,0,0-1.372-1.4,1.467,1.467,0,0,0-1.477.92v4.69h-1.1v-6.423Z" transform="translate(685.16 6742.797)"/>
    <path id="Trazado_899666" data-name="Trazado 899666" d="M227.793,353.3a9.149,9.149,0,0,1,.36-2.576,7.5,7.5,0,0,1,1.07-2.243,4.542,4.542,0,0,1,1.478-1.425l.225.724a4.721,4.721,0,0,0-1.422,2.03,8.809,8.809,0,0,0-.607,3.056l-.006.505a8.833,8.833,0,0,0,.837,3.976,4.757,4.757,0,0,0,1.2,1.579l-.225.67a4.692,4.692,0,0,1-1.507-1.471,8.25,8.25,0,0,1-1.4-4.826" transform="translate(687.275 6742.299)"/>
    <path id="Trazado_899667" data-name="Trazado 899667" d="M232.372,349.888l.03.713a2.374,2.374,0,0,1,1.906-.832,1.838,1.838,0,0,1,1.835,1.033,2.4,2.4,0,0,1,2.048-1.033q2.111,0,2.148,2.238v4.3h-1.1v-4.238a1.469,1.469,0,0,0-.316-1.03,1.38,1.38,0,0,0-1.056-.342,1.463,1.463,0,0,0-1.016.365,1.48,1.48,0,0,0-.468.982v4.263h-1.1V352.1a1.226,1.226,0,0,0-1.372-1.4,1.467,1.467,0,0,0-1.477.92v4.69h-1.1v-6.423Z" transform="translate(687.925 6742.797)"/>
    <path id="Trazado_899668" data-name="Trazado 899668" d="M240.093,353.041a3.794,3.794,0,0,1,.372-1.7,2.757,2.757,0,0,1,1.033-1.162,2.8,2.8,0,0,1,1.51-.411,2.7,2.7,0,0,1,2.121.909,3.488,3.488,0,0,1,.811,2.416v.077a3.826,3.826,0,0,1-.359,1.682,2.723,2.723,0,0,1-1.027,1.16,2.833,2.833,0,0,1-1.534.417,2.7,2.7,0,0,1-2.116-.909,3.477,3.477,0,0,1-.811-2.4Zm1.1.13a2.746,2.746,0,0,0,.5,1.715,1.68,1.68,0,0,0,2.656-.009,3,3,0,0,0,.492-1.836,2.743,2.743,0,0,0-.5-1.714,1.592,1.592,0,0,0-1.332-.655,1.573,1.573,0,0,0-1.312.646,2.983,2.983,0,0,0-.5,1.852" transform="translate(689.534 6742.798)"/>
    <path id="Trazado_899669" data-name="Trazado 899669" d="M245.971,353.446a3.768,3.768,0,0,1,.7-2.378,2.383,2.383,0,0,1,3.621-.128v-3.348h1.1v9.117h-1.008l-.053-.689a2.237,2.237,0,0,1-1.835.808,2.195,2.195,0,0,1-1.819-.915,3.809,3.809,0,0,1-.7-2.385Zm1.1.124a2.843,2.843,0,0,0,.451,1.708,1.456,1.456,0,0,0,1.246.619,1.6,1.6,0,0,0,1.526-.939v-2.95a1.615,1.615,0,0,0-1.514-.909,1.465,1.465,0,0,0-1.258.624,3.138,3.138,0,0,0-.451,1.847" transform="translate(690.614 6742.398)"/>
    <path id="Trazado_899670" data-name="Trazado 899670" d="M251.994,348.528a.652.652,0,0,1,.163-.451.611.611,0,0,1,.484-.183.62.62,0,0,1,.487.183.644.644,0,0,1,.167.451.626.626,0,0,1-.167.445.634.634,0,0,1-.487.178.625.625,0,0,1-.484-.178.633.633,0,0,1-.163-.445m1.187,8.126h-1.1v-6.423h1.1Z" transform="translate(691.721 6742.453)"/>
    <path id="Trazado_899671" data-name="Trazado 899671" d="M255.1,356.729v-5.574h-1.014v-.849H255.1v-.658a2.18,2.18,0,0,1,.552-1.6,2.083,2.083,0,0,1,1.561-.565,2.912,2.912,0,0,1,.753.1l-.058.884a3.166,3.166,0,0,0-.593-.053,1.068,1.068,0,0,0-.825.313,1.266,1.266,0,0,0-.292.9v.678h1.371v.849h-1.371v5.574Z" transform="translate(692.104 6742.378)"/>
    <path id="Trazado_899672" data-name="Trazado 899672" d="M258.052,348.528a.657.657,0,0,1,.162-.451.614.614,0,0,1,.485-.183.622.622,0,0,1,.487.183.643.643,0,0,1,.166.451.625.625,0,0,1-.166.445.636.636,0,0,1-.487.178.628.628,0,0,1-.485-.178.638.638,0,0,1-.162-.445m1.187,8.126h-1.1v-6.423h1.1Z" transform="translate(692.833 6742.453)"/>
    <path id="Trazado_899673" data-name="Trazado 899673" d="M263.159,355.532a1.582,1.582,0,0,0,1.027-.356,1.253,1.253,0,0,0,.486-.89h1.039a2,2,0,0,1-.38,1.051,2.51,2.51,0,0,1-.935.8,2.7,2.7,0,0,1-1.238.3,2.646,2.646,0,0,1-2.086-.876,3.49,3.49,0,0,1-.775-2.4v-.183a3.882,3.882,0,0,1,.344-1.668,2.629,2.629,0,0,1,.988-1.134,2.813,2.813,0,0,1,1.522-.4,2.577,2.577,0,0,1,1.8.647,2.315,2.315,0,0,1,.762,1.68h-1.039a1.523,1.523,0,0,0-.471-1.025,1.471,1.471,0,0,0-1.049-.4,1.539,1.539,0,0,0-1.3.6,2.837,2.837,0,0,0-.459,1.742v.208a2.777,2.777,0,0,0,.457,1.709,1.545,1.545,0,0,0,1.306.6" transform="translate(693.246 6742.798)"/>
    <path id="Trazado_899674" data-name="Trazado 899674" d="M269.908,356.31a2.277,2.277,0,0,1-.154-.676,2.454,2.454,0,0,1-1.829.8,2.27,2.27,0,0,1-1.558-.537,1.74,1.74,0,0,1-.608-1.364,1.813,1.813,0,0,1,.763-1.557,3.585,3.585,0,0,1,2.145-.556h1.069v-.5a1.231,1.231,0,0,0-.344-.916,1.381,1.381,0,0,0-1.016-.342,1.6,1.6,0,0,0-.985.3.87.87,0,0,0-.4.717h-1.1a1.508,1.508,0,0,1,.341-.928,2.334,2.334,0,0,1,.926-.71,3.134,3.134,0,0,1,1.285-.26,2.543,2.543,0,0,1,1.739.554,2,2,0,0,1,.652,1.529v2.956a3.612,3.612,0,0,0,.226,1.407v.095Zm-1.822-.837a1.926,1.926,0,0,0,.979-.268,1.615,1.615,0,0,0,.671-.694v-1.319h-.861q-2.019,0-2.018,1.181a1,1,0,0,0,.344.807,1.318,1.318,0,0,0,.884.291" transform="translate(694.249 6742.798)"/>
    <path id="Trazado_899675" data-name="Trazado 899675" d="M274.606,350.872a3.362,3.362,0,0,0-.541-.041,1.447,1.447,0,0,0-1.465.92v4.56h-1.1v-6.423h1.068l.019.742a1.709,1.709,0,0,1,1.531-.862,1.121,1.121,0,0,1,.488.084Z" transform="translate(695.304 6742.797)"/>
    <path id="Trazado_899676" data-name="Trazado 899676" d="M281.3,354.606a.812.812,0,0,0-.335-.691,3.258,3.258,0,0,0-1.169-.424,5.451,5.451,0,0,1-1.325-.428,1.878,1.878,0,0,1-.723-.592,1.413,1.413,0,0,1-.234-.819,1.666,1.666,0,0,1,.668-1.336,2.613,2.613,0,0,1,1.707-.547,2.689,2.689,0,0,1,1.772.565,1.791,1.791,0,0,1,.679,1.443h-1.106a.988.988,0,0,0-.382-.778,1.439,1.439,0,0,0-.964-.327,1.5,1.5,0,0,0-.939.26.82.82,0,0,0-.337.684.663.663,0,0,0,.314.6,3.865,3.865,0,0,0,1.136.386,5.744,5.744,0,0,1,1.333.44,1.936,1.936,0,0,1,.758.613,1.519,1.519,0,0,1,.246.875,1.644,1.644,0,0,1-.689,1.38,2.885,2.885,0,0,1-1.786.52,3.244,3.244,0,0,1-1.365-.272,2.231,2.231,0,0,1-.93-.763,1.839,1.839,0,0,1-.335-1.058h1.1a1.14,1.14,0,0,0,.441.875,1.724,1.724,0,0,0,1.09.322,1.755,1.755,0,0,0,1-.252.774.774,0,0,0,.376-.674" transform="translate(696.368 6742.797)"/>
    <path id="Trazado_899677" data-name="Trazado 899677" d="M285.522,356.429a2.812,2.812,0,0,1-2.126-.857,3.187,3.187,0,0,1-.818-2.3v-.2a3.845,3.845,0,0,1,.365-1.706,2.847,2.847,0,0,1,1.022-1.175,2.563,2.563,0,0,1,1.42-.425,2.408,2.408,0,0,1,1.948.826,3.576,3.576,0,0,1,.692,2.363v.456h-4.349a2.277,2.277,0,0,0,.554,1.535,1.744,1.744,0,0,0,1.351.584,1.908,1.908,0,0,0,.985-.237,2.455,2.455,0,0,0,.707-.629l.671.521a2.7,2.7,0,0,1-2.422,1.242m-.137-5.758a1.465,1.465,0,0,0-1.115.483,2.352,2.352,0,0,0-.559,1.358h3.218v-.084a2.1,2.1,0,0,0-.452-1.3,1.377,1.377,0,0,0-1.093-.46" transform="translate(697.339 6742.797)"/>
    <path id="Trazado_899678" data-name="Trazado 899678" d="M288.034,353.047a3.778,3.778,0,0,1,.695-2.39,2.394,2.394,0,0,1,3.674-.057l.054-.711h1v6.267a2.616,2.616,0,0,1-.739,1.966,2.728,2.728,0,0,1-1.985.719,3.313,3.313,0,0,1-1.36-.3,2.337,2.337,0,0,1-1.014-.813l.569-.659a2.149,2.149,0,0,0,1.728.872,1.686,1.686,0,0,0,1.25-.451,1.726,1.726,0,0,0,.447-1.27v-.553a2.253,2.253,0,0,1-1.8.761,2.2,2.2,0,0,1-1.825-.909,3.971,3.971,0,0,1-.7-2.474m1.1.124a2.876,2.876,0,0,0,.445,1.706,1.447,1.447,0,0,0,1.248.621,1.61,1.61,0,0,0,1.525-.945V351.62a1.629,1.629,0,0,0-1.514-.92,1.46,1.46,0,0,0-1.252.624,3.138,3.138,0,0,0-.451,1.847" transform="translate(698.341 6742.798)"/>
    <path id="Trazado_899679" data-name="Trazado 899679" d="M297.985,356.075a2.335,2.335,0,0,1-1.882.754,2,2,0,0,1-1.564-.6,2.585,2.585,0,0,1-.543-1.766v-4.18h1.1v4.149q0,1.461,1.187,1.462a1.645,1.645,0,0,0,1.674-.939v-4.672h1.1v6.423h-1.044Zm-.89-8.482h1.329l-1.591,1.745-.884,0Z" transform="translate(699.436 6742.398)"/>
    <path id="Trazado_899680" data-name="Trazado 899680" d="M300.717,349.888l.034.807a2.34,2.34,0,0,1,1.924-.927q2.037,0,2.055,2.3v4.245h-1.1V352.06a1.478,1.478,0,0,0-.318-1.026,1.266,1.266,0,0,0-.969-.333,1.59,1.59,0,0,0-.939.285,1.931,1.931,0,0,0-.629.748v4.576h-1.1v-6.423Z" transform="translate(700.48 6742.797)"/>
    <path id="Trazado_899681" data-name="Trazado 899681" d="M307.661,353.446a3.768,3.768,0,0,1,.7-2.378,2.383,2.383,0,0,1,3.621-.128v-3.348h1.1v9.117h-1.009l-.053-.689a2.237,2.237,0,0,1-1.835.808,2.194,2.194,0,0,1-1.819-.915,3.808,3.808,0,0,1-.7-2.385Zm1.1.124a2.843,2.843,0,0,0,.451,1.708,1.456,1.456,0,0,0,1.246.619,1.6,1.6,0,0,0,1.526-.939v-2.95a1.615,1.615,0,0,0-1.514-.909,1.465,1.465,0,0,0-1.258.624,3.138,3.138,0,0,0-.451,1.847" transform="translate(701.947 6742.398)"/>
    <path id="Trazado_899682" data-name="Trazado 899682" d="M313.684,348.528a.652.652,0,0,1,.162-.451.613.613,0,0,1,.484-.183.623.623,0,0,1,.488.183.649.649,0,0,1,.166.451.63.63,0,0,1-.166.445.637.637,0,0,1-.488.178.587.587,0,0,1-.646-.623m1.187,8.126h-1.1v-6.423h1.1Z" transform="translate(703.053 6742.453)"/>
    <path id="Trazado_899683" data-name="Trazado 899683" d="M319.952,354.606a.812.812,0,0,0-.335-.691,3.258,3.258,0,0,0-1.169-.424,5.45,5.45,0,0,1-1.325-.428,1.878,1.878,0,0,1-.723-.592,1.413,1.413,0,0,1-.234-.819,1.666,1.666,0,0,1,.668-1.336,2.613,2.613,0,0,1,1.707-.547,2.689,2.689,0,0,1,1.772.565,1.791,1.791,0,0,1,.679,1.443h-1.106A.988.988,0,0,0,319.5,351a1.439,1.439,0,0,0-.964-.327,1.5,1.5,0,0,0-.939.26.82.82,0,0,0-.337.684.663.663,0,0,0,.314.6,3.865,3.865,0,0,0,1.136.386,5.744,5.744,0,0,1,1.333.44,1.936,1.936,0,0,1,.758.613,1.519,1.519,0,0,1,.246.875,1.644,1.644,0,0,1-.689,1.38,2.885,2.885,0,0,1-1.786.52,3.244,3.244,0,0,1-1.365-.272,2.231,2.231,0,0,1-.93-.763,1.839,1.839,0,0,1-.335-1.058h1.1a1.14,1.14,0,0,0,.442.875,1.724,1.724,0,0,0,1.09.322,1.755,1.755,0,0,0,1-.252.774.774,0,0,0,.376-.674" transform="translate(703.469 6742.797)"/>
    <path id="Trazado_899684" data-name="Trazado 899684" d="M324.176,356.429a2.812,2.812,0,0,1-2.126-.857,3.187,3.187,0,0,1-.818-2.3v-.2a3.829,3.829,0,0,1,.365-1.706,2.852,2.852,0,0,1,1.02-1.175,2.57,2.57,0,0,1,1.422-.425,2.408,2.408,0,0,1,1.948.826,3.576,3.576,0,0,1,.691,2.363v.456H322.33a2.277,2.277,0,0,0,.554,1.535,1.743,1.743,0,0,0,1.349.584,1.9,1.9,0,0,0,.985-.237,2.458,2.458,0,0,0,.708-.629l.67.521a2.692,2.692,0,0,1-2.421,1.242m-.137-5.758a1.465,1.465,0,0,0-1.115.483,2.344,2.344,0,0,0-.559,1.358h3.218v-.084a2.1,2.1,0,0,0-.452-1.3,1.377,1.377,0,0,0-1.093-.46" transform="translate(704.44 6742.797)"/>
    <path id="Trazado_899685" data-name="Trazado 899685" d="M327.946,350.269l.034.807a2.339,2.339,0,0,1,1.924-.926q2.035,0,2.054,2.3v4.245h-1.1v-4.251a1.48,1.48,0,0,0-.318-1.026,1.267,1.267,0,0,0-.969-.333,1.588,1.588,0,0,0-.939.285,1.923,1.923,0,0,0-.63.748v4.576h-1.1v-6.423Zm3.632-2.5a1.478,1.478,0,0,1-.366,1.039,1.184,1.184,0,0,1-.91.4,1.314,1.314,0,0,1-.421-.06,2.248,2.248,0,0,1-.466-.243,1.915,1.915,0,0,0-.415-.223,1,1,0,0,0-.294-.039.543.543,0,0,0-.415.188.673.673,0,0,0-.173.477l-.735-.041a1.551,1.551,0,0,1,.359-1.051,1.156,1.156,0,0,1,.913-.415,1.122,1.122,0,0,1,.373.059,2.743,2.743,0,0,1,.451.232,2.523,2.523,0,0,0,.437.225,1,1,0,0,0,.335.055.532.532,0,0,0,.424-.2.7.7,0,0,0,.169-.47Z" transform="translate(705.482 6742.416)"/>
    <path id="Trazado_899686" data-name="Trazado 899686" d="M332.328,353.041a3.794,3.794,0,0,1,.372-1.7,2.757,2.757,0,0,1,1.033-1.162,2.8,2.8,0,0,1,1.51-.411,2.7,2.7,0,0,1,2.121.909,3.488,3.488,0,0,1,.811,2.416v.077a3.826,3.826,0,0,1-.359,1.682,2.723,2.723,0,0,1-1.027,1.16,2.833,2.833,0,0,1-1.534.417,2.7,2.7,0,0,1-2.116-.909,3.477,3.477,0,0,1-.811-2.4Zm1.1.13a2.747,2.747,0,0,0,.5,1.715,1.68,1.68,0,0,0,2.656-.009,3,3,0,0,0,.492-1.836,2.743,2.743,0,0,0-.5-1.714,1.592,1.592,0,0,0-1.332-.655,1.573,1.573,0,0,0-1.311.646,2.983,2.983,0,0,0-.5,1.852" transform="translate(706.478 6742.798)"/>
    <path id="Trazado_899687" data-name="Trazado 899687" d="M341.06,353.36a9.214,9.214,0,0,1-.348,2.538,7.507,7.507,0,0,1-1.062,2.24,4.68,4.68,0,0,1-1.5,1.461l-.231-.671a4.779,4.779,0,0,0,1.469-2.176,9.374,9.374,0,0,0,.566-3.273v-.191a9.78,9.78,0,0,0-.26-2.318,7.8,7.8,0,0,0-.728-1.92,4.414,4.414,0,0,0-1.046-1.325l.231-.67a4.654,4.654,0,0,1,1.494,1.448,7.566,7.566,0,0,1,1.062,2.238,9.394,9.394,0,0,1,.354,2.618" transform="translate(707.505 6742.299)"/>
    <path id="Trazado_900589" data-name="Trazado 900589" d="M3.456.357,0,0" transform="translate(683.884 7092.374)" fill="none" stroke="#000" stroke-linecap="round" stroke-width="0.57"/>
    <path id="Trazado_899688" data-name="Trazado 899688" d="M51.347,68.877H50.3V61.965l-2.09.768v-.942l2.971-1.115h.162Z" transform="translate(654.286 6689.691)"/>
    <path id="Trazado_899689" data-name="Trazado 899689" d="M56.793,68.877H55.751V61.965l-2.09.768v-.942l2.971-1.115h.162Z" transform="translate(655.287 6689.691)"/>
    <path id="Trazado_899690" data-name="Trazado 899690" d="M60.245,67.829a1.5,1.5,0,0,0,.969-.336,1.187,1.187,0,0,0,.46-.842h.981a1.888,1.888,0,0,1-.36.993,2.365,2.365,0,0,1-.883.752,2.559,2.559,0,0,1-1.168.279,2.5,2.5,0,0,1-1.971-.826,3.3,3.3,0,0,1-.732-2.263v-.173a3.653,3.653,0,0,1,.326-1.576,2.484,2.484,0,0,1,.933-1.071,2.662,2.662,0,0,1,1.438-.381,2.435,2.435,0,0,1,1.7.611,2.188,2.188,0,0,1,.721,1.587h-.981a1.431,1.431,0,0,0-.446-.967,1.387,1.387,0,0,0-.99-.379,1.451,1.451,0,0,0-1.225.569,2.669,2.669,0,0,0-.434,1.645v.2a2.621,2.621,0,0,0,.432,1.615,1.457,1.457,0,0,0,1.233.566" transform="translate(656 6690.005)"/>
    <path id="Trazado_899691" data-name="Trazado 899691" d="M63.823,62.5l.027.672a2.242,2.242,0,0,1,1.8-.785,1.733,1.733,0,0,1,1.732.975,2.257,2.257,0,0,1,1.935-.975q2,0,2.029,2.114v4.065H70.31v-4a1.4,1.4,0,0,0-.3-.973,1.307,1.307,0,0,0-1-.322,1.377,1.377,0,0,0-.959.344,1.394,1.394,0,0,0-.443.928v4.026H66.571V64.589a1.157,1.157,0,0,0-1.295-1.323,1.389,1.389,0,0,0-1.4.869v4.429H62.842V62.5Z" transform="translate(656.973 6690.005)"/>
    <path id="Trazado_899692" data-name="Trazado 899692" d="M219.652,191.218q-26.827-.06-53.642-.108" transform="translate(675.925 6713.652)" fill="none" stroke="#000" stroke-linecap="round" stroke-linejoin="round" stroke-width="0.216"/>
    <path id="Trazado_900590" data-name="Trazado 900590" d="M0,0,1.509,68.935" transform="translate(743.847 6713.261)" fill="none" stroke="#1a1a18" stroke-width="0.567"/>
    <path id="Trazado_899693" data-name="Trazado 899693" d="M43.445,73.279a1.348,1.348,0,0,1-1.023-.413,1.53,1.53,0,0,1-.394-1.1v-.1a1.873,1.873,0,0,1,.175-.821,1.378,1.378,0,0,1,.491-.565,1.236,1.236,0,0,1,.684-.2,1.156,1.156,0,0,1,.936.4,1.717,1.717,0,0,1,.334,1.136v.219H42.556a1.1,1.1,0,0,0,.268.739.842.842,0,0,0,.65.282.923.923,0,0,0,.473-.115,1.208,1.208,0,0,0,.34-.3l.323.25a1.3,1.3,0,0,1-1.165.6m-.066-2.77a.7.7,0,0,0-.537.233,1.13,1.13,0,0,0-.268.652h1.547v-.04a1.01,1.01,0,0,0-.217-.624.663.663,0,0,0-.526-.221" transform="translate(653.15 6691.418)"/>
    <path id="Trazado_899694" data-name="Trazado 899694" d="M46.577,72.4a.388.388,0,0,0-.161-.333,1.551,1.551,0,0,0-.562-.2,2.661,2.661,0,0,1-.637-.206.907.907,0,0,1-.349-.285.686.686,0,0,1-.112-.394.8.8,0,0,1,.321-.643,1.257,1.257,0,0,1,.821-.263,1.3,1.3,0,0,1,.852.271.862.862,0,0,1,.327.695h-.531a.478.478,0,0,0-.183-.374.689.689,0,0,0-.464-.157.717.717,0,0,0-.451.125.4.4,0,0,0-.163.328.322.322,0,0,0,.152.289,1.848,1.848,0,0,0,.547.186,2.884,2.884,0,0,1,.642.211.95.95,0,0,1,.363.3.724.724,0,0,1,.118.421.792.792,0,0,1-.33.664,1.4,1.4,0,0,1-.861.25,1.548,1.548,0,0,1-.656-.131,1.076,1.076,0,0,1-.447-.367.886.886,0,0,1-.161-.51h.528a.547.547,0,0,0,.213.421.819.819,0,0,0,.523.155.857.857,0,0,0,.482-.121.373.373,0,0,0,.181-.324" transform="translate(653.631 6691.418)"/>
    <path id="Trazado_899695" data-name="Trazado 899695" d="M48.08,69.491v.748h.576v.408H48.08v1.918a.427.427,0,0,0,.077.279.324.324,0,0,0,.263.092,1.31,1.31,0,0,0,.251-.034v.426a1.531,1.531,0,0,1-.4.057.658.658,0,0,1-.534-.214.917.917,0,0,1-.18-.608V70.647h-.563v-.408h.563v-.748Z" transform="translate(654.061 6691.311)"/>
    <path id="Trazado_899696" data-name="Trazado 899696" d="M50.841,73.414a1.088,1.088,0,0,1-.075-.326,1.175,1.175,0,0,1-.879.382,1.088,1.088,0,0,1-.749-.258.834.834,0,0,1-.292-.656.873.873,0,0,1,.367-.749,1.731,1.731,0,0,1,1.032-.266h.514V71.3a.6.6,0,0,0-.166-.44.667.667,0,0,0-.488-.165.774.774,0,0,0-.475.143.419.419,0,0,0-.191.346h-.531a.732.732,0,0,1,.163-.447,1.129,1.129,0,0,1,.446-.341,1.509,1.509,0,0,1,.618-.125,1.222,1.222,0,0,1,.837.266.966.966,0,0,1,.314.736v1.422a1.747,1.747,0,0,0,.109.677v.045Zm-.877-.4a.92.92,0,0,0,.471-.129.769.769,0,0,0,.323-.334v-.634h-.414q-.971,0-.971.569a.482.482,0,0,0,.166.388.634.634,0,0,0,.425.14m.489-3.983h.639l-.765.839H49.9Z" transform="translate(654.402 6691.226)"/>
    <path id="Trazado_899697" data-name="Trazado 899697" d="M52.106,70.132l.018.388a1.124,1.124,0,0,1,.924-.445q.98,0,.988,1.1v2.042h-.528V71.177a.715.715,0,0,0-.154-.495.611.611,0,0,0-.466-.159.761.761,0,0,0-.451.136.926.926,0,0,0-.3.36v2.2h-.528V70.132Z" transform="translate(654.909 6691.418)"/>
    <path id="Trazado_899698" data-name="Trazado 899698" d="M54.224,71.843A1.817,1.817,0,0,1,54.56,70.7a1.148,1.148,0,0,1,1.742-.062v-1.61h.528v4.386h-.485l-.026-.331a1.074,1.074,0,0,1-.882.388,1.056,1.056,0,0,1-.875-.439,1.829,1.829,0,0,1-.339-1.148Zm.528.06a1.36,1.36,0,0,0,.218.821.7.7,0,0,0,.6.3.77.77,0,0,0,.734-.451V71.153a.778.778,0,0,0-.728-.437.7.7,0,0,0-.6.3,1.5,1.5,0,0,0-.218.888" transform="translate(655.39 6691.226)"/>
    <path id="Trazado_899699" data-name="Trazado 899699" d="M59.04,73.221a1.088,1.088,0,0,1-.075-.326,1.178,1.178,0,0,1-.879.384,1.087,1.087,0,0,1-.749-.259.835.835,0,0,1-.294-.655.878.878,0,0,1,.367-.75,1.736,1.736,0,0,1,1.032-.266h.514v-.243a.6.6,0,0,0-.165-.442A.67.67,0,0,0,58.3,70.5a.773.773,0,0,0-.473.142.422.422,0,0,0-.192.346h-.531a.731.731,0,0,1,.165-.446,1.121,1.121,0,0,1,.446-.342,1.509,1.509,0,0,1,.618-.125,1.221,1.221,0,0,1,.837.268.965.965,0,0,1,.314.735V72.5a1.745,1.745,0,0,0,.108.677v.045Zm-.877-.4a.933.933,0,0,0,.471-.128.781.781,0,0,0,.322-.335v-.633h-.413q-.971,0-.972.568a.479.479,0,0,0,.167.388.634.634,0,0,0,.425.14" transform="translate(655.908 6691.418)"/>
    <path id="Trazado_899700" data-name="Trazado 899700" d="M61.3,70.605a1.759,1.759,0,0,0-.259-.02.7.7,0,0,0-.705.443V73.22h-.528V70.132h.514l.008.356a.824.824,0,0,1,.736-.413.531.531,0,0,1,.234.04Z" transform="translate(656.416 6691.418)"/>
    <path id="Trazado_899701" data-name="Trazado 899701" d="M65.31,71.711a1.856,1.856,0,0,1-.322,1.136,1.037,1.037,0,0,1-.874.431,1.134,1.134,0,0,1-.885-.357v1.488H62.7V70.132h.482l.026.342a1.089,1.089,0,0,1,.9-.4,1.053,1.053,0,0,1,.881.42,1.866,1.866,0,0,1,.324,1.168Zm-.528-.06a1.368,1.368,0,0,0-.223-.825.717.717,0,0,0-.612-.3.775.775,0,0,0-.719.426v1.476a.776.776,0,0,0,.724.423.716.716,0,0,0,.6-.3,1.493,1.493,0,0,0,.224-.895" transform="translate(656.947 6691.417)"/>
    <path id="Trazado_899702" data-name="Trazado 899702" d="M65.474,69.478a.312.312,0,0,1,.078-.217.3.3,0,0,1,.233-.089.3.3,0,0,1,.234.089.313.313,0,0,1,.079.217.284.284,0,0,1-.314.3.3.3,0,0,1-.233-.085.306.306,0,0,1-.078-.214m.572,3.909h-.528V70.3h.528Z" transform="translate(657.457 6691.252)"/>
    <path id="Trazado_899703" data-name="Trazado 899703" d="M67.17,70.132l.018.388a1.124,1.124,0,0,1,.924-.445q.98,0,.988,1.1v2.042h-.528V71.177a.715.715,0,0,0-.154-.495.611.611,0,0,0-.466-.159.761.761,0,0,0-.451.136.926.926,0,0,0-.3.36v2.2H66.67V70.132Z" transform="translate(657.677 6691.418)"/>
    <path id="Trazado_899704" data-name="Trazado 899704" d="M69.916,72.781h1.808v.431H69.27v-.388l1.7-2.263H69.3v-.438h2.341V70.5Z" transform="translate(658.154 6691.426)"/>
    <path id="Trazado_899705" data-name="Trazado 899705" d="M73.766,73.221a1.088,1.088,0,0,1-.075-.326,1.178,1.178,0,0,1-.879.384,1.087,1.087,0,0,1-.749-.259.835.835,0,0,1-.294-.655.878.878,0,0,1,.367-.75,1.736,1.736,0,0,1,1.032-.266h.514v-.243a.6.6,0,0,0-.165-.442.67.67,0,0,0-.489-.163.773.773,0,0,0-.473.142.422.422,0,0,0-.192.346h-.531A.731.731,0,0,1,72,70.543a1.121,1.121,0,0,1,.446-.342,1.509,1.509,0,0,1,.618-.125,1.221,1.221,0,0,1,.837.268.965.965,0,0,1,.314.735V72.5a1.745,1.745,0,0,0,.108.677v.045Zm-.877-.4a.933.933,0,0,0,.471-.128.781.781,0,0,0,.322-.335v-.633h-.413q-.971,0-.972.568a.479.479,0,0,0,.167.388.634.634,0,0,0,.425.14" transform="translate(658.613 6691.418)"/>
    <path id="Trazado_900591" data-name="Trazado 900591" d="M0,0H56.285" transform="translate(667.669 6713.775)" fill="none" stroke="#1a1a18" stroke-width="0.283" stroke-dasharray="0.57 0.85"/>
    <path id="Trazado_900592" data-name="Trazado 900592" d="M0,69.92,4.594,0" transform="translate(745.356 6712.276)" fill="none" stroke="#1a1a18" stroke-width="1.134"/>
    <path id="Trazado_900593" data-name="Trazado 900593" d="M7.421,67.251,0,0" transform="translate(738.013 6713.779)" fill="none" stroke="#1a1a18" stroke-width="1.134"/>
    <path id="Trazado_900594" data-name="Trazado 900594" d="M0,31.646,9.768,0" transform="translate(680.05 6682.129)" fill="none" stroke="#1a1a18" stroke-width="0.216"/>
    <path id="Trazado_900595" data-name="Trazado 900595" d="M6.378,23.957,0,0" transform="translate(798.481 6678.578)" fill="none" stroke="#1a1a18" stroke-width="0.216"/>
    <path id="Trazado_900596" data-name="Trazado 900596" d="M0,0,18.433.591" transform="translate(685.944 6694.678)" fill="none" stroke="#1a1a18" stroke-width="0.216"/>
    <path id="Trazado_900597" data-name="Trazado 900597" d="M12.546,0,0,1.889" transform="translate(789.78 6693.023)" fill="none" stroke="#1a1a18" stroke-width="0.216"/>
    <path id="Trazado_900598" data-name="Trazado 900598" d="M0,0,8.108,67.408" transform="translate(731.933 6716.362)" fill="none" stroke="#000" stroke-linecap="round" stroke-width="0.618"/>
    <path id="Trazado_900599" data-name="Trazado 900599" d="M0,0,3.211,6.938" transform="translate(731.933 6716.362)" fill="none" stroke="#000" stroke-linecap="round" stroke-width="0.618"/>
    <path id="Trazado_900600" data-name="Trazado 900600" d="M1.483,0,0,7.5" transform="translate(730.45 6716.362)" fill="none" stroke="#000" stroke-linecap="round" stroke-width="0.618"/>
    <path id="Trazado_900601" data-name="Trazado 900601" d="M3.218,6.936,0,0" transform="translate(736.823 6776.833)" fill="none" stroke="#000" stroke-linecap="round" stroke-width="0.618"/>
    <path id="Trazado_900602" data-name="Trazado 900602" d="M0,7.494,1.476,0" transform="translate(740.042 6776.275)" fill="none" stroke="#000" stroke-linecap="round" stroke-width="0.618"/>
    <path id="Trazado_899706" data-name="Trazado 899706" d="M162.634,195.845a3.4,3.4,0,0,1-.445,1.94,1.854,1.854,0,0,1-2.78.014,3.227,3.227,0,0,1-.464-1.854v-.992a3.322,3.322,0,0,1,.445-1.915,1.6,1.6,0,0,1,1.4-.626,1.612,1.612,0,0,1,1.39.6,3.211,3.211,0,0,1,.458,1.866Zm-.743-1.016a2.717,2.717,0,0,0-.265-1.375.911.911,0,0,0-.839-.431.9.9,0,0,0-.831.428,2.672,2.672,0,0,0-.269,1.322v1.188a2.775,2.775,0,0,0,.275,1.4.91.91,0,0,0,.833.452.9.9,0,0,0,.818-.426,2.675,2.675,0,0,0,.278-1.341Z" transform="translate(674.627 6713.891)"/>
    <path id="Trazado_899707" data-name="Trazado 899707" d="M162.942,197.16a.462.462,0,0,1,.115-.321.433.433,0,0,1,.343-.129.45.45,0,0,1,.348.129.458.458,0,0,1,.117.321.433.433,0,0,1-.117.309.457.457,0,0,1-.348.124.413.413,0,0,1-.458-.433" transform="translate(675.362 6714.681)"/>
    <path id="Trazado_899708" data-name="Trazado 899708" d="M165.015,195.394l.3-2.915h2.995v.687h-2.365l-.176,1.594a1.878,1.878,0,0,1,.975-.253,1.614,1.614,0,0,1,1.269.528,2.07,2.07,0,0,1,.471,1.428,2,2,0,0,1-.488,1.424,1.783,1.783,0,0,1-1.365.52,1.85,1.85,0,0,1-1.264-.428,1.719,1.719,0,0,1-.559-1.19h.7a1.178,1.178,0,0,0,.357.758,1.115,1.115,0,0,0,.762.254,1,1,0,0,0,.814-.354,1.474,1.474,0,0,0,.295-.975,1.353,1.353,0,0,0-.32-.941,1.086,1.086,0,0,0-.85-.356,1.231,1.231,0,0,0-.762.213l-.2.161Z" transform="translate(675.704 6713.903)"/>
    <path id="Trazado_899709" data-name="Trazado 899709" d="M172.152,197.58a1.068,1.068,0,0,0,.695-.242.846.846,0,0,0,.329-.6h.7a1.358,1.358,0,0,1-.257.71,1.709,1.709,0,0,1-.633.539,1.824,1.824,0,0,1-.837.2,1.79,1.79,0,0,1-1.411-.592,2.361,2.361,0,0,1-.524-1.62v-.124a2.623,2.623,0,0,1,.233-1.129,1.754,1.754,0,0,1,.669-.766,1.9,1.9,0,0,1,1.03-.273,1.737,1.737,0,0,1,1.213.438,1.561,1.561,0,0,1,.517,1.136h-.7a1.028,1.028,0,0,0-.318-.694,1,1,0,0,0-.709-.271,1.038,1.038,0,0,0-.877.408,1.906,1.906,0,0,0-.312,1.179v.14a1.868,1.868,0,0,0,.31,1.156,1.043,1.043,0,0,0,.883.406" transform="translate(676.698 6714.124)"/>
    <path id="Trazado_899710" data-name="Trazado 899710" d="M174.715,193.76l.02.482a1.606,1.606,0,0,1,1.288-.562,1.243,1.243,0,0,1,1.242.7,1.62,1.62,0,0,1,1.385-.7q1.431,0,1.455,1.514v2.912h-.743v-2.867a1,1,0,0,0-.213-.7.936.936,0,0,0-.714-.231.986.986,0,0,0-.687.246,1,1,0,0,0-.318.665v2.883h-.747v-2.847a.829.829,0,0,0-.927-.948.994.994,0,0,0-1,.623v3.172h-.743V193.76Z" transform="translate(677.395 6714.124)"/>
    <path id="Trazado_899711" data-name="Trazado 899711" d="M24.4,141.279l.326.5-4.709,3.054-.649-1,4.708-3.054Zm-5.032,2.553v1l-.772-.5Zm0,0,.649,1v-1l4.708,3.053-.649,1-4.708-3.053Zm1.25.166H178.207v.671H20.616Z" transform="translate(648.845 6704.406)" fill="#1a1a18"/>
    <path id="Trazado_899712" data-name="Trazado 899712" d="M219.295,195.9a1.6,1.6,0,0,1-.1-.458,1.659,1.659,0,0,1-1.237.537,1.528,1.528,0,0,1-1.053-.363,1.17,1.17,0,0,1-.412-.921,1.228,1.228,0,0,1,.515-1.055,2.44,2.44,0,0,1,1.452-.375h.722v-.341a.836.836,0,0,0-.232-.621.943.943,0,0,0-.687-.23,1.079,1.079,0,0,0-.666.2.591.591,0,0,0-.27.486h-.747a1.035,1.035,0,0,1,.231-.63,1.589,1.589,0,0,1,.627-.479,2.115,2.115,0,0,1,.869-.176,1.721,1.721,0,0,1,1.177.375,1.359,1.359,0,0,1,.442,1.035v2a2.443,2.443,0,0,0,.153.952v.065Zm-1.233-.567a1.32,1.32,0,0,0,.664-.18,1.1,1.1,0,0,0,.452-.47v-.893H218.6q-1.365,0-1.366.8a.678.678,0,0,0,.233.546.894.894,0,0,0,.6.2" transform="translate(685.198 6713.718)"/>
    <path id="Trazado_899713" data-name="Trazado 899713" d="M224.044,193.77a2.6,2.6,0,0,1-.455,1.6,1.453,1.453,0,0,1-1.229.607,1.6,1.6,0,0,1-1.245-.5v2.093h-.743v-6.016h.679l.037.482a1.53,1.53,0,0,1,1.261-.562,1.479,1.479,0,0,1,1.238.591,2.626,2.626,0,0,1,.457,1.642Zm-.743-.084a1.911,1.911,0,0,0-.314-1.16,1.009,1.009,0,0,0-.859-.426,1.093,1.093,0,0,0-1.012.6v2.076a1.094,1.094,0,0,0,1.02.594,1,1,0,0,0,.849-.424,2.089,2.089,0,0,0,.316-1.258" transform="translate(685.912 6713.718)"/>
    <path id="Trazado_899714" data-name="Trazado 899714" d="M226.371,192.217a2.2,2.2,0,0,0-.366-.028.978.978,0,0,0-.991.623v3.084h-.743V191.55h.723l.012.5a1.157,1.157,0,0,1,1.036-.582.75.75,0,0,1,.329.057Z" transform="translate(686.628 6713.718)"/>
    <path id="Trazado_899715" data-name="Trazado 899715" d="M226.455,193.682a2.552,2.552,0,0,1,.251-1.148,1.867,1.867,0,0,1,.7-.787,1.9,1.9,0,0,1,1.022-.277,1.833,1.833,0,0,1,1.436.614,2.362,2.362,0,0,1,.548,1.635v.052a2.58,2.58,0,0,1-.243,1.138,1.849,1.849,0,0,1-.695.786,1.929,1.929,0,0,1-1.038.281,1.829,1.829,0,0,1-1.432-.614,2.35,2.35,0,0,1-.548-1.626Zm.747.089a1.863,1.863,0,0,0,.335,1.16,1.137,1.137,0,0,0,1.8-.006,2.039,2.039,0,0,0,.333-1.243,1.864,1.864,0,0,0-.339-1.159,1.129,1.129,0,0,0-1.79-.006,2.029,2.029,0,0,0-.337,1.254" transform="translate(687.029 6713.718)"/>
    <path id="Trazado_899716" data-name="Trazado 899716" d="M232.1,193.124l.964-1.586h.869l-1.422,2.148,1.465,2.2h-.861l-1-1.626-1,1.626h-.863l1.465-2.2-1.42-2.148h.858Z" transform="translate(687.726 6713.73)"/>
    <path id="Trazado_899717" data-name="Trazado 899717" d="M234.041,194.949a.462.462,0,0,1,.115-.321.433.433,0,0,1,.343-.129.45.45,0,0,1,.348.129.458.458,0,0,1,.117.321.433.433,0,0,1-.117.309.457.457,0,0,1-.348.124.413.413,0,0,1-.458-.433" transform="translate(688.423 6714.274)"/>
    <path id="Trazado_899718" data-name="Trazado 899718" d="M239.462,193.634a3.4,3.4,0,0,1-.445,1.94,1.854,1.854,0,0,1-2.781.014,3.227,3.227,0,0,1-.464-1.854v-.992a3.323,3.323,0,0,1,.445-1.915,1.6,1.6,0,0,1,1.4-.626,1.612,1.612,0,0,1,1.39.6,3.211,3.211,0,0,1,.458,1.866Zm-.743-1.016a2.717,2.717,0,0,0-.265-1.375.911.911,0,0,0-.839-.431.9.9,0,0,0-.831.429,2.673,2.673,0,0,0-.269,1.322v1.188a2.775,2.775,0,0,0,.275,1.4.91.91,0,0,0,.833.452.9.9,0,0,0,.818-.426,2.675,2.675,0,0,0,.278-1.341Z" transform="translate(688.741 6713.485)"/>
    <path id="Trazado_899719" data-name="Trazado 899719" d="M239.8,196.509l-.421-.289a1.954,1.954,0,0,0,.393-1.084v-.671h.727v.582a1.823,1.823,0,0,1-.2.811,1.9,1.9,0,0,1-.5.651" transform="translate(689.404 6714.268)"/>
    <path id="Trazado_899720" data-name="Trazado 899720" d="M241.379,193.185l.3-2.917h2.995v.688h-2.365l-.176,1.593a1.889,1.889,0,0,1,.975-.252,1.61,1.61,0,0,1,1.269.528,2.068,2.068,0,0,1,.471,1.428,2,2,0,0,1-.488,1.424,1.783,1.783,0,0,1-1.365.52,1.85,1.85,0,0,1-1.264-.428,1.719,1.719,0,0,1-.559-1.19h.7a1.175,1.175,0,0,0,.357.756,1.116,1.116,0,0,0,.762.256,1,1,0,0,0,.814-.354,1.474,1.474,0,0,0,.295-.975,1.354,1.354,0,0,0-.32-.941,1.087,1.087,0,0,0-.85-.357,1.223,1.223,0,0,0-.762.214l-.2.161Z" transform="translate(689.732 6713.497)"/>
    <path id="Trazado_899721" data-name="Trazado 899721" d="M246.8,195.369a1.068,1.068,0,0,0,.695-.241.846.846,0,0,0,.329-.6h.7a1.358,1.358,0,0,1-.257.71,1.709,1.709,0,0,1-.633.539,1.824,1.824,0,0,1-.837.2,1.79,1.79,0,0,1-1.411-.592,2.361,2.361,0,0,1-.524-1.62v-.124a2.623,2.623,0,0,1,.233-1.129,1.754,1.754,0,0,1,.669-.766,1.9,1.9,0,0,1,1.03-.273,1.737,1.737,0,0,1,1.213.438,1.561,1.561,0,0,1,.517,1.136h-.7a1.028,1.028,0,0,0-.318-.694,1,1,0,0,0-.709-.271,1.038,1.038,0,0,0-.877.408,1.906,1.906,0,0,0-.312,1.179v.14a1.868,1.868,0,0,0,.31,1.156,1.043,1.043,0,0,0,.883.406" transform="translate(690.41 6713.718)"/>
    <path id="Trazado_899722" data-name="Trazado 899722" d="M249.359,191.549l.02.482a1.606,1.606,0,0,1,1.288-.562,1.243,1.243,0,0,1,1.242.7,1.62,1.62,0,0,1,1.385-.7q1.431,0,1.455,1.514v2.912h-.743v-2.867a1,1,0,0,0-.213-.7.936.936,0,0,0-.714-.231.986.986,0,0,0-.687.246,1,1,0,0,0-.318.665v2.883h-.747v-2.847a.829.829,0,0,0-.927-.948.994.994,0,0,0-1,.623v3.172h-.743v-4.345Z" transform="translate(691.107 6713.718)"/>
    <path id="Trazado_899723" data-name="Trazado 899723" d="M216.6,196.783a.449.449,0,0,1,.109-.305.5.5,0,0,1,.657,0,.436.436,0,0,1,.114.305.461.461,0,0,1-.771.3.433.433,0,0,1-.109-.3m.8,5.5h-.743v-4.345h.743Z" transform="translate(685.218 6714.615)"/>
    <path id="Trazado_899724" data-name="Trazado 899724" d="M218.131,199.839a2.551,2.551,0,0,1,.47-1.617,1.619,1.619,0,0,1,2.485-.038l.037-.482h.679v4.24a1.765,1.765,0,0,1-.5,1.329,1.841,1.841,0,0,1-1.344.486,2.229,2.229,0,0,1-.919-.2,1.566,1.566,0,0,1-.687-.55l.385-.445a1.454,1.454,0,0,0,1.168.591,1.137,1.137,0,0,0,.845-.305,1.166,1.166,0,0,0,.3-.859v-.374a1.525,1.525,0,0,1-1.217.514,1.482,1.482,0,0,1-1.235-.614,2.683,2.683,0,0,1-.472-1.674m.747.084a1.951,1.951,0,0,0,.3,1.154.981.981,0,0,0,.844.42,1.09,1.09,0,0,0,1.032-.639v-1.984a1.1,1.1,0,0,0-1.024-.623.986.986,0,0,0-.848.423,2.119,2.119,0,0,0-.305,1.249" transform="translate(685.5 6714.848)"/>
    <path id="Trazado_899725" data-name="Trazado 899725" d="M224.862,201.606a1.579,1.579,0,0,1-1.272.51,1.354,1.354,0,0,1-1.059-.4,1.757,1.757,0,0,1-.367-1.194V197.69h.743V200.5q0,.989.8.988a1.113,1.113,0,0,0,1.133-.634v-3.16h.742v4.345h-.705Z" transform="translate(686.241 6714.861)"/>
    <path id="Trazado_899726" data-name="Trazado 899726" d="M228.709,202.048a1.6,1.6,0,0,1-.1-.458,1.659,1.659,0,0,1-1.237.537,1.528,1.528,0,0,1-1.053-.363,1.17,1.17,0,0,1-.412-.921,1.228,1.228,0,0,1,.515-1.055,2.44,2.44,0,0,1,1.452-.375h.722v-.341a.836.836,0,0,0-.232-.621.943.943,0,0,0-.687-.23,1.079,1.079,0,0,0-.666.2.591.591,0,0,0-.27.487h-.747a1.035,1.035,0,0,1,.231-.63,1.589,1.589,0,0,1,.627-.479,2.115,2.115,0,0,1,.869-.176,1.721,1.721,0,0,1,1.177.375,1.359,1.359,0,0,1,.442,1.035v2a2.444,2.444,0,0,0,.153.952v.065Zm-1.233-.567a1.32,1.32,0,0,0,.664-.18,1.1,1.1,0,0,0,.452-.47v-.892h-.581q-1.365,0-1.366.8a.678.678,0,0,0,.233.546.894.894,0,0,0,.6.2" transform="translate(686.927 6714.848)"/>
    <path id="Trazado_900603" data-name="Trazado 900603" d="M0,0H.743V6.168H0Z" transform="translate(917.492 6910.727)"/>
    <path id="Trazado_899727" data-name="Trazado 899727" d="M234.175,202.048a1.6,1.6,0,0,1-.1-.458,1.659,1.659,0,0,1-1.237.537,1.528,1.528,0,0,1-1.053-.363,1.17,1.17,0,0,1-.412-.921,1.228,1.228,0,0,1,.515-1.055,2.44,2.44,0,0,1,1.452-.375h.722v-.341a.836.836,0,0,0-.232-.621.943.943,0,0,0-.687-.23,1.079,1.079,0,0,0-.666.2.591.591,0,0,0-.27.487h-.747a1.035,1.035,0,0,1,.231-.63,1.589,1.589,0,0,1,.627-.479,2.115,2.115,0,0,1,.869-.176,1.721,1.721,0,0,1,1.177.375,1.359,1.359,0,0,1,.441,1.035v2a2.443,2.443,0,0,0,.153.952v.065Zm-1.233-.567a1.32,1.32,0,0,0,.664-.18,1.1,1.1,0,0,0,.452-.47v-.892h-.581q-1.365,0-1.366.8a.678.678,0,0,0,.233.546.894.894,0,0,0,.6.2" transform="translate(687.932 6714.848)"/>
    <path id="Trazado_899728" data-name="Trazado 899728" d="M237.352,198.369a2.194,2.194,0,0,0-.366-.028.978.978,0,0,0-.991.623v3.084h-.743V197.7h.723l.012.5a1.157,1.157,0,0,1,1.036-.582.75.75,0,0,1,.329.057Z" transform="translate(688.645 6714.848)"/>
    <path id="Trazado_899729" data-name="Trazado 899729" d="M240.023,197.7l.02.482a1.606,1.606,0,0,1,1.288-.562,1.243,1.243,0,0,1,1.242.7,1.62,1.62,0,0,1,1.385-.7q1.431,0,1.455,1.514v2.912h-.743V199.18a1,1,0,0,0-.213-.7.936.936,0,0,0-.714-.231.986.986,0,0,0-.687.246,1,1,0,0,0-.318.665v2.883h-.747V199.2a.829.829,0,0,0-.927-.948.994.994,0,0,0-1,.623v3.172h-.743V197.7Z" transform="translate(689.392 6714.848)"/>
    <path id="Trazado_899730" data-name="Trazado 899730" d="M247.245,202.127a1.906,1.906,0,0,1-1.438-.58,2.159,2.159,0,0,1-.553-1.552v-.137a2.607,2.607,0,0,1,.246-1.154,1.93,1.93,0,0,1,.691-.8,1.735,1.735,0,0,1,.961-.288,1.627,1.627,0,0,1,1.317.559,2.416,2.416,0,0,1,.47,1.6v.309H246a1.537,1.537,0,0,0,.376,1.038,1.178,1.178,0,0,0,.913.4,1.306,1.306,0,0,0,.668-.161,1.659,1.659,0,0,0,.477-.426l.455.354a1.826,1.826,0,0,1-1.639.839m-.092-3.9a.99.99,0,0,0-.755.328,1.58,1.58,0,0,0-.376.917H248.2v-.057a1.428,1.428,0,0,0-.305-.877.935.935,0,0,0-.74-.311" transform="translate(690.482 6714.848)"/>
    <path id="Trazado_899731" data-name="Trazado 899731" d="M248.941,200.11a2.551,2.551,0,0,1,.473-1.609,1.613,1.613,0,0,1,2.45-.086v-2.266h.743v6.168h-.683l-.037-.465a1.514,1.514,0,0,1-1.242.546,1.485,1.485,0,0,1-1.23-.618,2.574,2.574,0,0,1-.476-1.615Zm.743.084a1.926,1.926,0,0,0,.305,1.156.987.987,0,0,0,.843.418,1.084,1.084,0,0,0,1.032-.636v-2a1.092,1.092,0,0,0-1.024-.614.99.99,0,0,0-.851.423,2.119,2.119,0,0,0-.305,1.249" transform="translate(691.16 6714.578)"/>
    <path id="Trazado_899732" data-name="Trazado 899732" d="M253.016,196.783a.449.449,0,0,1,.109-.305.5.5,0,0,1,.657,0,.436.436,0,0,1,.114.305.461.461,0,0,1-.771.3.433.433,0,0,1-.109-.3m.8,5.5h-.743v-4.345h.743Z" transform="translate(691.908 6714.615)"/>
    <path id="Trazado_899733" data-name="Trazado 899733" d="M254.546,200.11a2.551,2.551,0,0,1,.473-1.609,1.613,1.613,0,0,1,2.45-.086v-2.266h.743v6.168h-.683l-.037-.465a1.514,1.514,0,0,1-1.242.546,1.485,1.485,0,0,1-1.23-.618,2.574,2.574,0,0,1-.476-1.615Zm.743.084a1.926,1.926,0,0,0,.305,1.156.987.987,0,0,0,.843.418,1.084,1.084,0,0,0,1.032-.636v-2a1.092,1.092,0,0,0-1.024-.614.99.99,0,0,0-.851.423,2.119,2.119,0,0,0-.305,1.249" transform="translate(692.189 6714.578)"/>
    <path id="Trazado_899734" data-name="Trazado 899734" d="M261.319,202.048a1.6,1.6,0,0,1-.1-.458,1.66,1.66,0,0,1-1.237.537,1.528,1.528,0,0,1-1.053-.363,1.17,1.17,0,0,1-.412-.921,1.228,1.228,0,0,1,.515-1.055,2.44,2.44,0,0,1,1.452-.375h.722v-.341a.836.836,0,0,0-.232-.621.943.943,0,0,0-.687-.23,1.079,1.079,0,0,0-.666.2.591.591,0,0,0-.27.487H258.6a1.035,1.035,0,0,1,.231-.63,1.589,1.589,0,0,1,.627-.479,2.115,2.115,0,0,1,.869-.176A1.721,1.721,0,0,1,261.5,198a1.359,1.359,0,0,1,.441,1.035v2a2.443,2.443,0,0,0,.153.952v.065Zm-1.233-.567a1.32,1.32,0,0,0,.664-.18,1.1,1.1,0,0,0,.452-.47v-.892h-.581q-1.365,0-1.366.8a.678.678,0,0,0,.233.546.894.894,0,0,0,.6.2" transform="translate(692.918 6714.848)"/>
    <path id="Trazado_899735" data-name="Trazado 899735" d="M263.964,200.11a2.551,2.551,0,0,1,.474-1.609,1.613,1.613,0,0,1,2.45-.086v-2.266h.743v6.168h-.683l-.037-.465a1.514,1.514,0,0,1-1.242.546,1.485,1.485,0,0,1-1.23-.618,2.574,2.574,0,0,1-.476-1.615Zm.743.084a1.926,1.926,0,0,0,.305,1.156.987.987,0,0,0,.843.418,1.084,1.084,0,0,0,1.032-.636v-2a1.092,1.092,0,0,0-1.024-.614.99.99,0,0,0-.851.423,2.119,2.119,0,0,0-.305,1.249" transform="translate(693.919 6714.578)"/>
    <path id="Trazado_899736" data-name="Trazado 899736" d="M269.866,202.127a1.906,1.906,0,0,1-1.438-.58,2.159,2.159,0,0,1-.553-1.552v-.137a2.607,2.607,0,0,1,.246-1.154,1.938,1.938,0,0,1,.691-.8,1.738,1.738,0,0,1,.961-.288,1.627,1.627,0,0,1,1.317.559,2.417,2.417,0,0,1,.471,1.6v.309h-2.944a1.537,1.537,0,0,0,.375,1.038,1.178,1.178,0,0,0,.913.4,1.3,1.3,0,0,0,.668-.161,1.664,1.664,0,0,0,.478-.426l.455.354a1.83,1.83,0,0,1-1.641.839m-.092-3.9a.992.992,0,0,0-.755.328,1.588,1.588,0,0,0-.376.917h2.177v-.057a1.414,1.414,0,0,0-.305-.877.934.934,0,0,0-.74-.311" transform="translate(694.638 6714.848)"/>
    <path id="Trazado_899737" data-name="Trazado 899737" d="M275.268,202.127a1.906,1.906,0,0,1-1.438-.58,2.159,2.159,0,0,1-.553-1.552v-.137a2.607,2.607,0,0,1,.246-1.154,1.93,1.93,0,0,1,.691-.8,1.735,1.735,0,0,1,.961-.288,1.627,1.627,0,0,1,1.317.559,2.416,2.416,0,0,1,.47,1.6v.309h-2.944a1.537,1.537,0,0,0,.376,1.038,1.178,1.178,0,0,0,.913.4,1.306,1.306,0,0,0,.668-.161,1.659,1.659,0,0,0,.477-.426l.455.354a1.826,1.826,0,0,1-1.639.839m-.092-3.9a.99.99,0,0,0-.755.328,1.58,1.58,0,0,0-.376.917h2.177v-.057a1.428,1.428,0,0,0-.305-.877.935.935,0,0,0-.74-.311" transform="translate(695.63 6714.848)"/>
    <path id="Trazado_899738" data-name="Trazado 899738" d="M277.819,197.7l.025.546a1.584,1.584,0,0,1,1.3-.626q1.378,0,1.39,1.554v2.872h-.743v-2.875a.992.992,0,0,0-.215-.695.856.856,0,0,0-.656-.225,1.07,1.07,0,0,0-.634.193,1.306,1.306,0,0,0-.426.505v3.1h-.743V197.7Z" transform="translate(696.335 6714.848)"/>
    <path id="Trazado_899739" data-name="Trazado 899739" d="M282.04,196.8v1.052h.812v.574h-.812v2.7a.6.6,0,0,0,.109.392.454.454,0,0,0,.369.131,1.8,1.8,0,0,0,.353-.049v.6a2.156,2.156,0,0,1-.569.079.925.925,0,0,1-.75-.3,1.293,1.293,0,0,1-.253-.856v-2.694h-.792v-.574h.792V196.8Z" transform="translate(696.958 6714.697)"/>
    <path id="Trazado_899740" data-name="Trazado 899740" d="M285.32,198.369a2.194,2.194,0,0,0-.366-.028.978.978,0,0,0-.991.623v3.084h-.743V197.7h.723l.012.5a1.157,1.157,0,0,1,1.036-.582.75.75,0,0,1,.329.057Z" transform="translate(697.457 6714.848)"/>
    <path id="Trazado_899741" data-name="Trazado 899741" d="M287.4,202.127a1.906,1.906,0,0,1-1.438-.58,2.159,2.159,0,0,1-.553-1.552v-.137a2.607,2.607,0,0,1,.246-1.154,1.93,1.93,0,0,1,.691-.8,1.735,1.735,0,0,1,.961-.288,1.627,1.627,0,0,1,1.317.559,2.416,2.416,0,0,1,.47,1.6v.309h-2.944a1.537,1.537,0,0,0,.376,1.038,1.178,1.178,0,0,0,.913.4,1.306,1.306,0,0,0,.668-.161,1.659,1.659,0,0,0,.477-.426l.455.354a1.826,1.826,0,0,1-1.639.839m-.092-3.9a.99.99,0,0,0-.755.328,1.58,1.58,0,0,0-.376.917h2.177v-.057a1.428,1.428,0,0,0-.305-.877.935.935,0,0,0-.74-.311" transform="translate(697.859 6714.848)"/>
    <path id="Trazado_899742" data-name="Trazado 899742" d="M292.923,199.923a2.6,2.6,0,0,1-.455,1.6,1.453,1.453,0,0,1-1.229.607,1.6,1.6,0,0,1-1.245-.5v2.093h-.743V197.7h.679l.037.482a1.53,1.53,0,0,1,1.261-.562,1.479,1.479,0,0,1,1.238.591,2.626,2.626,0,0,1,.457,1.642Zm-.743-.084a1.911,1.911,0,0,0-.314-1.16,1.009,1.009,0,0,0-.859-.426,1.093,1.093,0,0,0-1.012.6v2.076a1.094,1.094,0,0,0,1.02.594,1,1,0,0,0,.849-.424,2.089,2.089,0,0,0,.316-1.258" transform="translate(698.565 6714.848)"/>
    <path id="Trazado_899743" data-name="Trazado 899743" d="M293.153,196.783a.45.45,0,0,1,.11-.305.415.415,0,0,1,.327-.124.42.42,0,0,1,.33.124.44.44,0,0,1,.112.305.46.46,0,0,1-.769.3.434.434,0,0,1-.11-.3m.8,5.5h-.743v-4.345h.743Z" transform="translate(699.281 6714.615)"/>
    <path id="Trazado_899744" data-name="Trazado 899744" d="M296.668,202.127a1.906,1.906,0,0,1-1.438-.58,2.159,2.159,0,0,1-.553-1.552v-.137a2.607,2.607,0,0,1,.246-1.154,1.93,1.93,0,0,1,.691-.8,1.735,1.735,0,0,1,.961-.288,1.627,1.627,0,0,1,1.317.559,2.417,2.417,0,0,1,.47,1.6v.309h-2.944a1.537,1.537,0,0,0,.376,1.038,1.178,1.178,0,0,0,.913.4,1.306,1.306,0,0,0,.668-.161,1.66,1.66,0,0,0,.477-.426l.455.354a1.826,1.826,0,0,1-1.639.839m-.092-3.9a.99.99,0,0,0-.755.328,1.58,1.58,0,0,0-.376.917h2.177v-.057a1.429,1.429,0,0,0-.305-.877.935.935,0,0,0-.74-.311" transform="translate(699.562 6714.848)"/>
    <path id="Trazado_899745" data-name="Trazado 899745" d="M300.617,198.369a2.193,2.193,0,0,0-.366-.028.978.978,0,0,0-.991.623v3.084h-.743V197.7h.723l.012.5a1.157,1.157,0,0,1,1.036-.582.75.75,0,0,1,.329.057Z" transform="translate(700.267 6714.848)"/>
    <path id="Trazado_899746" data-name="Trazado 899746" d="M301.57,197.7l.025.546a1.584,1.584,0,0,1,1.3-.626q1.378,0,1.39,1.554v2.872h-.743v-2.875a.992.992,0,0,0-.215-.695.856.856,0,0,0-.656-.225,1.07,1.07,0,0,0-.634.193,1.305,1.305,0,0,0-.426.505v3.1h-.743V197.7Z" transform="translate(700.699 6714.848)"/>
    <path id="Trazado_899747" data-name="Trazado 899747" d="M307.4,202.048a1.6,1.6,0,0,1-.1-.458,1.659,1.659,0,0,1-1.237.537,1.528,1.528,0,0,1-1.053-.363,1.17,1.17,0,0,1-.412-.921,1.228,1.228,0,0,1,.515-1.055,2.44,2.44,0,0,1,1.452-.375h.722v-.341a.836.836,0,0,0-.232-.621.943.943,0,0,0-.687-.23,1.079,1.079,0,0,0-.666.2.591.591,0,0,0-.27.487h-.747a1.035,1.035,0,0,1,.231-.63,1.589,1.589,0,0,1,.627-.479,2.115,2.115,0,0,1,.869-.176,1.721,1.721,0,0,1,1.177.375,1.359,1.359,0,0,1,.442,1.035v2a2.443,2.443,0,0,0,.153.952v.065Zm-1.233-.567a1.32,1.32,0,0,0,.664-.18,1.1,1.1,0,0,0,.452-.47v-.892h-.581q-1.365,0-1.366.8a.678.678,0,0,0,.233.546.894.894,0,0,0,.6.2" transform="translate(701.384 6714.848)"/>
    <path id="Trazado_899748" data-name="Trazado 899748" d="M311.039,200.895a.55.55,0,0,0-.226-.469,2.213,2.213,0,0,0-.792-.286,3.728,3.728,0,0,1-.895-.289,1.269,1.269,0,0,1-.49-.4.958.958,0,0,1-.159-.554,1.129,1.129,0,0,1,.451-.9,1.767,1.767,0,0,1,1.154-.369,1.816,1.816,0,0,1,1.2.381,1.213,1.213,0,0,1,.46.977h-.747a.673.673,0,0,0-.259-.527.975.975,0,0,0-.653-.221,1.013,1.013,0,0,0-.634.178.555.555,0,0,0-.228.462.451.451,0,0,0,.213.406,2.676,2.676,0,0,0,.769.262,4.02,4.02,0,0,1,.9.3,1.313,1.313,0,0,1,.51.417,1.008,1.008,0,0,1,.168.592,1.114,1.114,0,0,1-.466.934,1.96,1.96,0,0,1-1.209.352,2.187,2.187,0,0,1-.923-.186,1.5,1.5,0,0,1-.63-.515,1.244,1.244,0,0,1-.226-.717h.743a.768.768,0,0,0,.3.592,1.15,1.15,0,0,0,.736.219,1.2,1.2,0,0,0,.676-.17.523.523,0,0,0,.256-.456" transform="translate(702.069 6714.848)"/>
    <path id="Trazado_899749" data-name="Trazado 899749" d="M41.23,603.845H35.567v-.789l2.992-3.325a7.032,7.032,0,0,0,.916-1.225,2.045,2.045,0,0,0,.252-.977,1.547,1.547,0,0,0-.41-1.109,1.426,1.426,0,0,0-1.091-.434,1.7,1.7,0,0,0-1.274.466,1.781,1.781,0,0,0-.455,1.3H35.4a2.55,2.55,0,0,1,.768-1.929,2.852,2.852,0,0,1,2.057-.735,2.731,2.731,0,0,1,1.9.632,2.151,2.151,0,0,1,.7,1.682,4.947,4.947,0,0,1-1.626,3.04l-2.315,2.511H41.23Z" transform="translate(651.932 6787.862)"/>
    <path id="Trazado_899750" data-name="Trazado 899750" d="M44.024,602.722a1.582,1.582,0,0,0,1.027-.356,1.253,1.253,0,0,0,.486-.89h1.038a1.979,1.979,0,0,1-.38,1.051,2.5,2.5,0,0,1-.935.8,2.7,2.7,0,0,1-1.237.3,2.648,2.648,0,0,1-2.087-.876,3.49,3.49,0,0,1-.774-2.4v-.183a3.864,3.864,0,0,1,.344-1.668,2.619,2.619,0,0,1,.987-1.134,2.814,2.814,0,0,1,1.523-.4,2.572,2.572,0,0,1,1.8.647,2.311,2.311,0,0,1,.762,1.68H45.538a1.519,1.519,0,0,0-.472-1.025,1.47,1.47,0,0,0-1.048-.4,1.537,1.537,0,0,0-1.3.6,2.83,2.83,0,0,0-.459,1.742v.208a2.769,2.769,0,0,0,.457,1.709,1.545,1.545,0,0,0,1.306.6" transform="translate(652.991 6788.207)"/>
    <path id="Trazado_899751" data-name="Trazado 899751" d="M47.812,597.079l.03.713a2.373,2.373,0,0,1,1.906-.832,1.835,1.835,0,0,1,1.834,1.033,2.4,2.4,0,0,1,2.048-1.033q2.113,0,2.148,2.238v4.3h-1.1v-4.238a1.475,1.475,0,0,0-.315-1.03,1.38,1.38,0,0,0-1.056-.342,1.458,1.458,0,0,0-1.016.365,1.487,1.487,0,0,0-.469.982V603.5h-1.1v-4.209a1.225,1.225,0,0,0-1.371-1.4,1.469,1.469,0,0,0-1.478.92v4.69h-1.1v-6.423Z" transform="translate(654.022 6788.207)"/>
    <path id="Trazado_899752" data-name="Trazado 899752" d="M59.553,597.989l-1.792-.534.272-.9,1.793.665-.053-2.041h.908l-.059,2.07,1.763-.653.273.9-1.823.54,1.175,1.609-.736.557-1.1-1.709L59.1,600.167l-.742-.54Z" transform="translate(656.04 6787.88)"/>
    <path id="Trazado_899753" data-name="Trazado 899753" d="M172.63,603.845h-5.663v-.789l2.991-3.325a7.069,7.069,0,0,0,.919-1.225,2.057,2.057,0,0,0,.251-.977,1.551,1.551,0,0,0-.408-1.109,1.433,1.433,0,0,0-1.093-.434,1.7,1.7,0,0,0-1.274.466,1.78,1.78,0,0,0-.453,1.3h-1.1a2.546,2.546,0,0,1,.769-1.929,2.847,2.847,0,0,1,2.056-.735,2.729,2.729,0,0,1,1.9.632,2.151,2.151,0,0,1,.7,1.682,4.947,4.947,0,0,1-1.626,3.04l-2.315,2.511h4.339Z" transform="translate(676.071 6787.862)"/>
    <path id="Trazado_899754" data-name="Trazado 899754" d="M175.423,602.722a1.581,1.581,0,0,0,1.026-.356,1.255,1.255,0,0,0,.488-.89h1.038a1.989,1.989,0,0,1-.38,1.051,2.5,2.5,0,0,1-.934.8,2.708,2.708,0,0,1-1.238.3,2.642,2.642,0,0,1-2.086-.876,3.491,3.491,0,0,1-.776-2.4v-.183a3.9,3.9,0,0,1,.344-1.668,2.631,2.631,0,0,1,.99-1.134,2.812,2.812,0,0,1,1.521-.4,2.581,2.581,0,0,1,1.8.647,2.314,2.314,0,0,1,.761,1.68h-1.038a1.524,1.524,0,0,0-.472-1.025,1.468,1.468,0,0,0-1.049-.4,1.537,1.537,0,0,0-1.3.6,2.838,2.838,0,0,0-.459,1.742v.208a2.769,2.769,0,0,0,.457,1.709,1.545,1.545,0,0,0,1.306.6" transform="translate(677.129 6788.207)"/>
    <path id="Trazado_899755" data-name="Trazado 899755" d="M179.212,597.079l.03.713a2.374,2.374,0,0,1,1.906-.832,1.838,1.838,0,0,1,1.835,1.033,2.4,2.4,0,0,1,2.048-1.033q2.111,0,2.148,2.238v4.3h-1.1v-4.238a1.469,1.469,0,0,0-.316-1.03,1.38,1.38,0,0,0-1.056-.342,1.463,1.463,0,0,0-1.016.365,1.48,1.48,0,0,0-.468.982V603.5h-1.1v-4.209a1.225,1.225,0,0,0-1.372-1.4,1.467,1.467,0,0,0-1.477.92v4.69h-1.1v-6.423Z" transform="translate(678.16 6788.207)"/>
    <path id="Trazado_899756" data-name="Trazado 899756" d="M190.954,597.989l-1.793-.534.273-.9,1.792.665-.052-2.041h.907l-.059,2.07,1.764-.653.272.9-1.822.54,1.174,1.609-.735.557-1.1-1.709-1.069,1.668-.742-.54Z" transform="translate(680.178 6787.88)"/>
    <path id="Trazado_900604" data-name="Trazado 900604" d="M6.738,1.684,0,0" transform="translate(863.581 7092.731)" fill="none" stroke="#000" stroke-linecap="round" stroke-width="0.57"/>
    <path id="Trazado_900605" data-name="Trazado 900605" d="M0,0,2.876,1.947" transform="translate(863.581 7092.731)" fill="none" stroke="#000" stroke-linecap="round" stroke-width="0.57"/>
    <path id="Trazado_900606" data-name="Trazado 900606" d="M0,.357,3.456,0" transform="translate(863.581 7092.374)" fill="none" stroke="#000" stroke-linecap="round" stroke-width="0.57"/>
    <path id="Trazado_899757" data-name="Trazado 899757" d="M120.035,358.468l-.5.326-3.055-4.709,1-.65,3.054,4.709Zm-2.553-5.033h-1l.5-.772Zm0,0-1,.65h1l-3.052,4.708-1-.649,3.052-4.709Zm-.165,41.843h-.671V354.686h.671Zm2.718-3.783.5.324-3.054,4.709-1-.65,3.055-4.708Zm-2.553,5.033-.5.772-.5-.772Zm0,0h-1l-3.052-4.709,1-.649,3.052,4.709h-1Z" transform="translate(666.266 6743.329)" fill="#1a1a18"/>
    <path id="Trazado_899758" data-name="Trazado 899758" d="M121.931,372.338l.439-4.31H126.8v1.017h-3.5l-.262,2.356a2.785,2.785,0,0,1,1.443-.373,2.384,2.384,0,0,1,1.876.78,3.058,3.058,0,0,1,.694,2.109,2.953,2.953,0,0,1-.721,2.1,2.629,2.629,0,0,1-2.015.769,2.725,2.725,0,0,1-1.869-.636,2.534,2.534,0,0,1-.826-1.758h1.038a1.756,1.756,0,0,0,.528,1.12,1.65,1.65,0,0,0,1.129.376,1.482,1.482,0,0,0,1.2-.522,2.182,2.182,0,0,0,.436-1.442,2,2,0,0,0-.471-1.393,1.608,1.608,0,0,0-1.256-.524,1.817,1.817,0,0,0-1.128.314l-.29.238Z" transform="translate(667.771 6746.152)"/>
    <path id="Trazado_899759" data-name="Trazado 899759" d="M129.938,375.567a1.582,1.582,0,0,0,1.027-.356,1.253,1.253,0,0,0,.486-.89h1.039a2,2,0,0,1-.38,1.051,2.511,2.511,0,0,1-.935.8,2.7,2.7,0,0,1-1.238.3,2.646,2.646,0,0,1-2.086-.876,3.49,3.49,0,0,1-.775-2.4v-.183a3.882,3.882,0,0,1,.344-1.668,2.629,2.629,0,0,1,.988-1.134,2.813,2.813,0,0,1,1.522-.4,2.577,2.577,0,0,1,1.8.647,2.315,2.315,0,0,1,.762,1.68h-1.039a1.523,1.523,0,0,0-.471-1.025,1.47,1.47,0,0,0-1.049-.4,1.54,1.54,0,0,0-1.3.6,2.838,2.838,0,0,0-.459,1.742v.208a2.777,2.777,0,0,0,.457,1.709,1.545,1.545,0,0,0,1.306.6" transform="translate(668.773 6746.478)"/>
    <path id="Trazado_899760" data-name="Trazado 899760" d="M133.727,369.923l.03.713a2.374,2.374,0,0,1,1.906-.832,1.838,1.838,0,0,1,1.835,1.033,2.4,2.4,0,0,1,2.048-1.033q2.111,0,2.148,2.238v4.3h-1.1v-4.238a1.469,1.469,0,0,0-.316-1.03,1.38,1.38,0,0,0-1.056-.342,1.463,1.463,0,0,0-1.016.365,1.48,1.48,0,0,0-.468.982v4.262h-1.1v-4.209a1.225,1.225,0,0,0-1.372-1.4,1.467,1.467,0,0,0-1.477.92v4.69h-1.1v-6.423Z" transform="translate(669.804 6746.478)"/>
    <path id="Trazado_900607" data-name="Trazado 900607" d="M0,0H403.136V713.281H0Z" transform="translate(645.429 6678.545)" fill="none"/>
  </g>
</svg>
