<svg id="Grupo_1114505" data-name="Grupo 1114505" xmlns="http://www.w3.org/2000/svg" xmlns:xlink="http://www.w3.org/1999/xlink" width="367.692" height="296.136" viewBox="0 0 367.692 296.136">
  <defs>
    <clipPath id="clip-path">
      <rect id="Rectángulo_409463" data-name="Rectángulo 409463" width="367.692" height="296.136" fill="none"/>
    </clipPath>
  </defs>
  <g id="Grupo_1114504" data-name="Grupo 1114504" clip-path="url(#clip-path)">
    <path id="Trazado_899019" data-name="Trazado 899019" d="M75.372,51.854c15.971,0,38.837-11.651,34.03-37.87-.049-.267.035-.242-.195-.168-11.5,3.727-25.424,4.662-33.8,4.662s-24.594-1.165-33.868-4.662c-.227-.085-.146-.1-.195.168C36.535,40.2,59.4,51.854,75.372,51.854" fill="#fefefe" fill-rule="evenodd"/>
    <path id="Trazado_899020" data-name="Trazado 899020" d="M75.372,51.854c15.971,0,38.837-11.651,34.03-37.87-.049-.267.035-.242-.195-.168-11.5,3.727-25.424,4.662-33.8,4.662s-24.594-1.165-33.868-4.662c-.227-.085-.146-.1-.195.168C36.535,40.2,59.4,51.854,75.372,51.854Z" fill="none" stroke="#000" stroke-miterlimit="22.926" stroke-width="2.455"/>
    <path id="Trazado_899021" data-name="Trazado 899021" d="M75.394,37.592c-15.867,0-28.542-9.952-23.735-36.17.049-.267-.047-.189.195-.168,7.882.684,13.7.848,23.54.848s14.792-.286,23.4-.848c.24-.016.146-.1.195.168,4.807,26.218-7.732,36.17-23.6,36.17" fill="#fefefe" fill-rule="evenodd"/>
    <path id="Trazado_899022" data-name="Trazado 899022" d="M75.394,37.592c-15.867,0-28.542-9.952-23.735-36.17.049-.267-.047-.189.195-.168,7.882.684,13.7.848,23.54.848s14.792-.286,23.4-.848c.24-.016.146-.1.195.168C103.8,27.64,91.26,37.592,75.394,37.592Z" fill="none" stroke="#000" stroke-miterlimit="22.926" stroke-width="2.455"/>
    <path id="Trazado_899023" data-name="Trazado 899023" d="M75.4,18c11.231,0,21.526-1.173,31.681-5-2.395-4.687-3.883-7.44-8.016-11.339-8.914.521-12.528.9-23.676.921A234.838,234.838,0,0,1,51.58,1.662C47.447,5.561,44.533,8.314,42.138,13c8.08,3.806,22.036,5,33.267,5" fill="#fefefe" fill-rule="evenodd"/>
    <path id="Trazado_899024" data-name="Trazado 899024" d="M75.4,18c11.231,0,21.526-1.173,31.681-5-2.395-4.687-3.883-7.44-8.016-11.339-8.914.521-12.528.9-23.676.921A234.838,234.838,0,0,1,51.58,1.662C47.447,5.561,44.533,8.314,42.138,13,50.218,16.807,64.174,18,75.4,18Z" fill="none" stroke="#000" stroke-miterlimit="22.926" stroke-width="1.364"/>
    <path id="Trazado_899025" data-name="Trazado 899025" d="M75.375,30.487c-16.56,0-30.064-6.613-33.912-16.773-20.258,8.315-28.109,11.308-40,17.737,7.267,24,7.139,61.958.07,76.852,10.984,29.569,13.9,47.667,13.047,66.993-1.074,24.256-7.587,52.757-12.57,103.68C28.358,284.818,35.465,295.26,75.4,294.9c1.671-.015,2.794-.017,4.341-.051.012-.337,0-.96,0-1.283,34.591-.9,42.2-8.735,69.166-14.672-5.463-53.413-12.358-81.155-12.8-107.015-.313-18.14,2.9-36.084,13.114-63.575-7.069-14.894-7.2-52.851.071-76.852-11.889-6.429-19.741-9.422-40-17.737-3.847,10.16-17.352,16.773-33.911,16.773" fill="#fefefe" fill-rule="evenodd"/>
    <path id="Trazado_899026" data-name="Trazado 899026" d="M75.375,30.487c-16.56,0-30.064-6.613-33.912-16.773-20.258,8.315-28.109,11.308-40,17.737,7.267,24,7.139,61.958.07,76.852,10.984,29.569,13.9,47.667,13.047,66.993-1.074,24.256-7.587,52.757-12.57,103.68C28.358,284.818,35.465,295.26,75.4,294.9c1.671-.015,2.794-.017,4.341-.051.012-.337,0-.96,0-1.283,34.591-.9,42.2-8.735,69.166-14.672-5.463-53.413-12.358-81.155-12.8-107.015-.313-18.14,2.9-36.084,13.114-63.575-7.069-14.894-7.2-52.851.071-76.852-11.889-6.429-19.741-9.422-40-17.737C105.439,23.874,91.934,30.487,75.375,30.487Z" fill="none" stroke="#000" stroke-miterlimit="22.926" stroke-width="2.455"/>
    <path id="Trazado_899027" data-name="Trazado 899027" d="M365.782,278.935c-5.4-53.455-12.3-81.2-12.741-107.056-.312-18.141,2.9-36.085,13.115-63.575-7.069-14.9-7.2-52.851.071-76.853-11.889-6.429-19.741-9.423-40-17.737-7.6-4.13-17.352-1.414-33.911-1.414S267.449,8.141,258.4,13.714c-20.258,8.314-28.11,11.308-40,17.737,7.267,24,7.14,61.958.071,76.853,10.984,29.569,13.9,47.667,13.046,66.993-1.073,24.255-7.586,52.756-12.57,103.679,26.346,5.842,33.454,16.284,73.383,15.923,39.93.361,47.037-10.081,73.446-15.964" fill="#fefefe" fill-rule="evenodd"/>
    <path id="Trazado_899028" data-name="Trazado 899028" d="M365.782,278.935c-5.4-53.455-12.3-81.2-12.741-107.056-.312-18.141,2.9-36.085,13.115-63.575-7.069-14.9-7.2-52.851.071-76.853-11.889-6.429-19.741-9.423-40-17.737-7.6-4.13-17.352-1.414-33.911-1.414S267.449,8.141,258.4,13.714c-20.258,8.314-28.11,11.308-40,17.737,7.267,24,7.14,61.958.071,76.853,10.984,29.569,13.9,47.667,13.046,66.993-1.073,24.255-7.586,52.756-12.57,103.679,26.346,5.842,33.454,16.284,73.383,15.923C332.266,295.26,339.373,284.818,365.782,278.935Z" fill="none" stroke="#000" stroke-miterlimit="22.926" stroke-width="2.455"/>
    <path id="Trazado_899029" data-name="Trazado 899029" d="M86.181,37.981a47.866,47.866,0,0,1-10.872,1.1,57.531,57.531,0,0,1-10.951-1.116c-.013-3.2,1.262-8.35,1.975-8.234a56.137,56.137,0,0,0,8.976.76,56.948,56.948,0,0,0,10.007-.938c.339-.062.694,7.611.865,8.432" fill="#fefefe" fill-rule="evenodd"/>
    <path id="Trazado_899030" data-name="Trazado 899030" d="M86.181,37.981a47.866,47.866,0,0,1-10.872,1.1,57.531,57.531,0,0,1-10.951-1.116c-.013-3.2,1.262-8.35,1.975-8.234a56.137,56.137,0,0,0,8.976.76,56.948,56.948,0,0,0,10.007-.938C85.655,29.487,86.01,37.16,86.181,37.981Z" fill="none" stroke="#000" stroke-miterlimit="22.926" stroke-width="1.364"/>
    <path id="Trazado_899031" data-name="Trazado 899031" d="M4.242,31.02c9.234,32.447,5.825,69.9-1.406,80.313M221.183,31.02c9.235,32.447,5.826,69.9-1.406,80.313" fill="none" stroke="#000" stroke-miterlimit="22.926" stroke-width="0.682" stroke-dasharray="1.364 0.682"/>
    <path id="Trazado_899032" data-name="Trazado 899032" d="M146.552,31.02c-9.234,32.447-5.825,69.9,1.406,80.313M363.494,31.02c-9.235,32.447-5.826,69.9,1.406,80.313" fill="none" stroke="#000" stroke-miterlimit="22.926" stroke-width="0.682" stroke-dasharray="1.364 0.682"/>
    <path id="Trazado_899033" data-name="Trazado 899033" d="M71.033,38.878a56.507,56.507,0,0,0,8.483.089c.032,12.965.19,242.346.224,255.311-1.631.09-2.566.135-4.335.135s-3.11-.015-4.343-.06c.032-12.995-.061-242.48-.029-255.475" fill="#fefefe" fill-rule="evenodd"/>
    <path id="Trazado_899034" data-name="Trazado 899034" d="M71.033,38.878a56.507,56.507,0,0,0,8.483.089c.032,12.965.19,242.346.224,255.311-1.631.09-2.566.135-4.335.135s-3.11-.015-4.343-.06C71.094,281.358,71,51.873,71.033,38.878Z" fill="none" stroke="#000" stroke-miterlimit="22.926" stroke-width="1.364"/>
    <path id="Trazado_899035" data-name="Trazado 899035" d="M78.427,39.026c.032,12.965.122,242.7.155,255.663m-6.414-.058c.032-13,0-242.914.035-255.908" fill="none" stroke="#000" stroke-miterlimit="22.926" stroke-width="0.48" stroke-dasharray="0.96 0.48"/>
    <path id="Trazado_899036" data-name="Trazado 899036" d="M75.7,30.578c4.317.728,4.085,5.064,4.161,8.3" fill="none" stroke="#000" stroke-miterlimit="22.926" stroke-width="1.364"/>
    <path id="Trazado_899037" data-name="Trazado 899037" d="M110.486,12.5C105.544,7.95,101,1.244,98.915,1.209c-.05,0-.054.054-.037.1C97.845,9.928,86.592,23.5,77.2,29.762c-.035.023-.052.023-.009.033,3.185.688,13.1,14.852,17.878,21.756C100.49,40.695,107.4,25.4,110.486,12.5" fill="#fefefe" fill-rule="evenodd"/>
    <path id="Trazado_899038" data-name="Trazado 899038" d="M110.486,12.5C105.544,7.95,101,1.244,98.915,1.209c-.05,0-.054.054-.037.1C97.845,9.928,86.592,23.5,77.2,29.762c-.035.023-.052.023-.009.033,3.185.688,13.1,14.852,17.878,21.756C100.49,40.695,107.4,25.4,110.486,12.5Z" fill="none" stroke="#000" stroke-miterlimit="22.926" stroke-width="2.182"/>
    <path id="Trazado_899039" data-name="Trazado 899039" d="M40.236,12.5C45.178,7.95,49.72,1.244,51.807,1.209c.05,0,.054.054.037.1C52.877,9.928,64.13,23.5,73.523,29.762c.035.023.052.023.009.033-3.185.688-13.1,14.852-17.878,21.756C50.232,40.695,43.317,25.4,40.236,12.5" fill="#fefefe" fill-rule="evenodd"/>
    <path id="Trazado_899040" data-name="Trazado 899040" d="M40.236,12.5C45.178,7.95,49.72,1.244,51.807,1.209c.05,0,.054.054.037.1C52.877,9.928,64.13,23.5,73.523,29.762c.035.023.052.023.009.033-3.185.688-13.1,14.852-17.878,21.756C50.232,40.695,43.317,25.4,40.236,12.5Z" fill="none" stroke="#000" stroke-miterlimit="22.926" stroke-width="2.182"/>
    <path id="Trazado_899041" data-name="Trazado 899041" d="M75.29,33.112a1.877,1.877,0,1,0,1.876,1.876,1.876,1.876,0,0,0-1.876-1.876" fill="#fefefe" fill-rule="evenodd"/>
    <path id="Trazado_899042" data-name="Trazado 899042" d="M75.29,33.112a1.877,1.877,0,1,0,1.876,1.876A1.876,1.876,0,0,0,75.29,33.112Z" fill="none" stroke="#000" stroke-miterlimit="22.926" stroke-width="0.682"/>
    <path id="Trazado_899043" data-name="Trazado 899043" d="M75.281,41.22A1.876,1.876,0,1,0,77.157,43.1a1.876,1.876,0,0,0-1.876-1.876" fill="#fefefe" fill-rule="evenodd"/>
    <path id="Trazado_899044" data-name="Trazado 899044" d="M75.281,41.22A1.876,1.876,0,1,0,77.157,43.1,1.876,1.876,0,0,0,75.281,41.22Z" fill="none" stroke="#000" stroke-miterlimit="22.926" stroke-width="0.682"/>
    <path id="Trazado_899045" data-name="Trazado 899045" d="M75.281,73.037a1.876,1.876,0,1,0,1.876,1.876,1.876,1.876,0,0,0-1.876-1.876" fill="#fefefe" fill-rule="evenodd"/>
    <path id="Trazado_899046" data-name="Trazado 899046" d="M75.281,73.037a1.876,1.876,0,1,0,1.876,1.876A1.876,1.876,0,0,0,75.281,73.037Z" fill="none" stroke="#000" stroke-miterlimit="22.926" stroke-width="0.682"/>
    <path id="Trazado_899047" data-name="Trazado 899047" d="M75.281,104.855a1.876,1.876,0,1,0,1.876,1.876,1.876,1.876,0,0,0-1.876-1.876" fill="#fefefe" fill-rule="evenodd"/>
    <path id="Trazado_899048" data-name="Trazado 899048" d="M75.281,104.855a1.876,1.876,0,1,0,1.876,1.876A1.876,1.876,0,0,0,75.281,104.855Z" fill="none" stroke="#000" stroke-miterlimit="22.926" stroke-width="0.682"/>
    <path id="Trazado_899049" data-name="Trazado 899049" d="M75.281,136.79a1.877,1.877,0,1,0,1.876,1.876,1.876,1.876,0,0,0-1.876-1.876" fill="#fefefe" fill-rule="evenodd"/>
    <path id="Trazado_899050" data-name="Trazado 899050" d="M75.281,136.79a1.877,1.877,0,1,0,1.876,1.876A1.876,1.876,0,0,0,75.281,136.79Z" fill="none" stroke="#000" stroke-miterlimit="22.926" stroke-width="0.682"/>
    <path id="Trazado_899051" data-name="Trazado 899051" d="M75.281,168.953a1.876,1.876,0,1,0,1.876,1.876,1.876,1.876,0,0,0-1.876-1.876" fill="#fefefe" fill-rule="evenodd"/>
    <path id="Trazado_899052" data-name="Trazado 899052" d="M75.281,168.953a1.876,1.876,0,1,0,1.876,1.876A1.876,1.876,0,0,0,75.281,168.953Z" fill="none" stroke="#000" stroke-miterlimit="22.926" stroke-width="0.682"/>
    <path id="Trazado_899053" data-name="Trazado 899053" d="M75.281,201a1.877,1.877,0,1,0,1.876,1.876A1.876,1.876,0,0,0,75.281,201" fill="#fefefe" fill-rule="evenodd"/>
    <path id="Trazado_899054" data-name="Trazado 899054" d="M75.281,201a1.877,1.877,0,1,0,1.876,1.876A1.876,1.876,0,0,0,75.281,201Z" fill="none" stroke="#000" stroke-miterlimit="22.926" stroke-width="0.682"/>
    <path id="Trazado_899055" data-name="Trazado 899055" d="M75.281,232.946a1.877,1.877,0,1,0,1.876,1.876,1.876,1.876,0,0,0-1.876-1.876" fill="#fefefe" fill-rule="evenodd"/>
    <path id="Trazado_899056" data-name="Trazado 899056" d="M75.281,232.946a1.877,1.877,0,1,0,1.876,1.876A1.876,1.876,0,0,0,75.281,232.946Z" fill="none" stroke="#000" stroke-miterlimit="22.926" stroke-width="0.682"/>
    <path id="Trazado_899057" data-name="Trazado 899057" d="M79.356,29.142C82.008,29.831,93.014,45.233,94.807,48c1.678-3.232,10.647-21.449,14.215-36.92" fill="none" stroke="#000" stroke-miterlimit="22.926" stroke-width="0.682" stroke-dasharray="1.363 0.681"/>
    <path id="Trazado_899058" data-name="Trazado 899058" d="M71.366,29.142C68.714,29.831,57.708,45.233,55.915,48,54.237,44.771,45.269,26.554,41.7,11.083" fill="none" stroke="#000" stroke-miterlimit="22.926" stroke-width="0.682" stroke-dasharray="1.363 0.681"/>
    <path id="Trazado_899059" data-name="Trazado 899059" d="M69.509,31.479c2.53.254,5.569-.019,6.35.285,2.649,1.029,2.693,3.181,2.909,6.074-3.22.283-10.019-.035-12.755-.805m19.363.064c-2.6.273-4.338.622-5.533.644" fill="none" stroke="#000" stroke-miterlimit="22.926" stroke-width="0.481" stroke-dasharray="0.961 0.481"/>
    <line id="Línea_4353" data-name="Línea 4353" x1="0.015" y2="1.594" transform="translate(75.389 44.936)" fill="none" stroke="#000" stroke-miterlimit="22.926" stroke-width="0.682"/>
    <line id="Línea_4354" data-name="Línea 4354" x1="1.594" y2="0.006" transform="translate(71.776 35.033)" fill="none" stroke="#000" stroke-miterlimit="22.926" stroke-width="0.682"/>
    <path id="Trazado_899060" data-name="Trazado 899060" d="M75.428,76.827l-.015,1.594m0,30.2L75.4,110.21m0,30.369-.015,1.594" fill="none" stroke="#000" stroke-miterlimit="22.926" stroke-width="0.682"/>
    <path id="Trazado_899061" data-name="Trazado 899061" d="M75.36,172.746l-.015,1.594m.028,30.43-.015,1.594m.039,30.355-.015,1.594" fill="none" stroke="#000" stroke-miterlimit="22.926" stroke-width="0.682"/>
    <path id="Trazado_899062" data-name="Trazado 899062" d="M147.463,275.039c-27.856,6.138-36.858,14.661-67.731,14.682,0,.443,0,.81-.005,1.214-40.758,2.308-51.221-10.141-76.013-15.351" fill="none" stroke="#000" stroke-miterlimit="22.926" stroke-width="0.682" stroke-dasharray="1.364 0.682"/>
    <path id="Trazado_899063" data-name="Trazado 899063" d="M220.656,275.583c23.866,5.016,34.434,15.549,71.964,15.549,37.963,0,47.989-10.75,71.856-15.766" fill="none" stroke="#000" stroke-miterlimit="22.926" stroke-width="0.682" stroke-dasharray="1.364 0.682"/>
    <path id="Trazado_899064" data-name="Trazado 899064" d="M133.091,77.285H100.444v33.066l16.114,6.121,16.533-6.121Z" fill="none" stroke="#000" stroke-miterlimit="22.926" stroke-width="1.364"/>
    <path id="Trazado_899065" data-name="Trazado 899065" d="M101.695,77l-.064,32.524,14.984,5.582,15.244-5.644.009-32.178m-28.623.114-.005,30.977,13.375,4.982,13.71-5.071-.049-31" fill="none" stroke="#000" stroke-miterlimit="22.926" stroke-width="0.682" stroke-dasharray="1.364 0.682"/>
    <line id="Línea_4355" data-name="Línea 4355" x1="32.708" transform="translate(100.444 82.799)" fill="none" stroke="#000" stroke-miterlimit="22.926" stroke-width="0.682" stroke-dasharray="1.364 0.682"/>
    <path id="Trazado_899066" data-name="Trazado 899066" d="M292.226,18.054c-13.615,0-26.476-1.852-35.221-5.428,2.12-2.09,8.89-10,11.178-11.174a1.1,1.1,0,0,1,.646-.146c8.611.562,13.568.848,23.4.848s14.786-.286,23.4-.848a1.1,1.1,0,0,1,.646.146c2.288,1.179,9.058,9.084,11.178,11.174-8.745,3.576-21.606,5.428-35.221,5.428" fill="#fefefe" fill-rule="evenodd"/>
    <path id="Trazado_899067" data-name="Trazado 899067" d="M292.226,18.054c-13.615,0-26.476-1.852-35.221-5.428,2.12-2.09,8.89-10,11.178-11.174a1.1,1.1,0,0,1,.646-.146c8.611.562,13.568.848,23.4.848s14.786-.286,23.4-.848a1.1,1.1,0,0,1,.646.146c2.288,1.179,9.058,9.084,11.178,11.174C318.7,16.2,305.841,18.054,292.226,18.054Z" fill="none" stroke="#000" stroke-miterlimit="22.926" stroke-width="2.455"/>
    <path id="Trazado_899068" data-name="Trazado 899068" d="M292.221,16.2c-15.3.155-28.729-2.856-33.617-5.068" fill="none" stroke="#000" stroke-miterlimit="22.926" stroke-width="0.682" stroke-dasharray="1.363 0.681"/>
    <path id="Trazado_899069" data-name="Trazado 899069" d="M292.231,16.2c15.3.155,28.729-2.856,33.617-5.068" fill="none" stroke="#000" stroke-miterlimit="22.926" stroke-width="0.682" stroke-dasharray="1.363 0.681"/>
    <path id="Trazado_899070" data-name="Trazado 899070" d="M30.858,134.346c7.14,60.855-4.725,88.03-6.726,151.531M247.8,134.346c7.14,60.855-4.724,88.03-6.726,151.531" fill="none" stroke="#000" stroke-miterlimit="22.926" stroke-width="1.364"/>
    <path id="Trazado_899071" data-name="Trazado 899071" d="M120.017,134.346c-7.14,60.855,4.725,88.03,6.726,151.531M336.959,134.346c-7.14,60.855,4.724,88.03,6.726,151.531" fill="none" stroke="#000" stroke-miterlimit="22.926" stroke-width="1.364"/>
  </g>
</svg>
