<svg xmlns="http://www.w3.org/2000/svg" width="610.69" height="315.091" viewBox="0 0 610.69 315.091">
  <g id="Grupo_1114622" data-name="Grupo 1114622" transform="translate(-494.711 -8973.226)">
    <path id="Trazado_899924" data-name="Trazado 899924" d="M135.186,61.171l-5.592-49.019,46.216,44.3" transform="translate(477.568 9004.465)" fill="none" stroke="#9d9d9c" stroke-miterlimit="10" stroke-width="0.75"/>
    <path id="Trazado_899925" data-name="Trazado 899925" d="M165.817,71.947,127.41,84.7l17.007-15.861" transform="translate(471.953 9150.188)" fill="none" stroke="#9d9d9c" stroke-miterlimit="10" stroke-width="0.75"/>
    <path id="Trazado_899960" data-name="Trazado 899960" d="M233.458,108.141s46.755-4.164,69.447-34.3" transform="translate(744.571 9163.05)" fill="none" stroke="#9d9d9c" stroke-miterlimit="10" stroke-width="0.5"/>
    <path id="Trazado_899961" data-name="Trazado 899961" d="M171.069,111.776s76.667-6.284,103.433-37.935" transform="translate(584.187 9163.05)" fill="none" stroke="#9d9d9c" stroke-miterlimit="10" stroke-width="0.5"/>
    <path id="Trazado_899962" data-name="Trazado 899962" d="M281.345,110.445s-53.611-4.435-80.377-36.086" transform="translate(661.049 9164.382)" fill="none" stroke="#9d9d9c" stroke-miterlimit="10" stroke-width="0.5"/>
    <path id="Trazado_899963" data-name="Trazado 899963" d="M216.069,108.141s-46.994-4.06-76.342-34.3" transform="translate(503.615 9163.05)" fill="none" stroke="#9d9d9c" stroke-miterlimit="10" stroke-width="0.5"/>
    <path id="Trazado_900065" data-name="Trazado 900065" d="M135.189,105.96h-3.128V85.222l-6.274,2.3V84.7l8.912-3.349h.489Z" transform="translate(467.78 9182.356)"/>
    <path id="Trazado_900068" data-name="Trazado 900068" d="M261.559,72.953H263.9a5.135,5.135,0,0,0,3.467-1.16,3.877,3.877,0,0,0,1.26-3.042q0-4.306-4.292-4.306a4.46,4.46,0,0,0-3.217,1.15,4.026,4.026,0,0,0-1.2,3.053H256.8a6.243,6.243,0,0,1,2.132-4.835,7.744,7.744,0,0,1,5.4-1.928,7.661,7.661,0,0,1,5.435,1.835,6.615,6.615,0,0,1,1.971,5.1,5.373,5.373,0,0,1-1.035,3.1,6.251,6.251,0,0,1-2.821,2.235,6.071,6.071,0,0,1,3.124,2.121,5.884,5.884,0,0,1,1.1,3.617,6.687,6.687,0,0,1-2.15,5.231,8.083,8.083,0,0,1-5.606,1.935,8.278,8.278,0,0,1-5.606-1.867,6.2,6.2,0,0,1-2.164-4.931h3.128a4.006,4.006,0,0,0,1.264,3.1,4.8,4.8,0,0,0,3.378,1.157,4.722,4.722,0,0,0,3.449-1.175,4.542,4.542,0,0,0,1.2-3.381,4.11,4.11,0,0,0-1.314-3.278,5.721,5.721,0,0,0-3.785-1.182h-2.339Z" transform="translate(804.014 9132.313)"/>
    <path id="Trazado_900069" data-name="Trazado 900069" d="M261.561,56.039H263.9a5.122,5.122,0,0,0,3.467-1.16,3.879,3.879,0,0,0,1.264-3.042q0-4.306-4.292-4.306a4.463,4.463,0,0,0-3.221,1.15,4.025,4.025,0,0,0-1.2,3.053H256.8A6.24,6.24,0,0,1,258.93,46.9a7.759,7.759,0,0,1,5.406-1.928,7.667,7.667,0,0,1,5.435,1.835,6.626,6.626,0,0,1,1.967,5.1,5.4,5.4,0,0,1-1.032,3.1,6.25,6.25,0,0,1-2.821,2.235,6.071,6.071,0,0,1,3.125,2.121,5.906,5.906,0,0,1,1.1,3.617,6.675,6.675,0,0,1-2.15,5.231,8.074,8.074,0,0,1-5.6,1.935,8.281,8.281,0,0,1-5.61-1.868,6.207,6.207,0,0,1-2.164-4.931h3.128a4.018,4.018,0,0,0,1.264,3.1,4.81,4.81,0,0,0,3.381,1.157,4.728,4.728,0,0,0,3.449-1.175A4.541,4.541,0,0,0,269,63.038a4.108,4.108,0,0,0-1.31-3.278,5.731,5.731,0,0,0-3.788-1.182h-2.335Z" transform="translate(804.012 9088.831)"/>
    <path id="Trazado_900070" data-name="Trazado 900070" d="M262.233,52.822a1.946,1.946,0,0,1,.482-1.346,1.823,1.823,0,0,1,1.435-.536,1.882,1.882,0,0,1,1.457.536,1.923,1.923,0,0,1,.5,1.346,1.813,1.813,0,0,1-.5,1.3,1.916,1.916,0,0,1-1.457.521,1.855,1.855,0,0,1-1.435-.521,1.833,1.833,0,0,1-.482-1.3" transform="translate(818.544 9104.178)"/>
    <path id="Trazado_900071" data-name="Trazado 900071" d="M265.691,57.277l1.246-12.212h12.548v2.878h-9.9l-.743,6.677a7.912,7.912,0,0,1,4.088-1.061,6.764,6.764,0,0,1,5.317,2.214,8.672,8.672,0,0,1,1.964,5.977,8.354,8.354,0,0,1-2.042,5.963,7.44,7.44,0,0,1-5.706,2.178,7.747,7.747,0,0,1-5.3-1.8,7.171,7.171,0,0,1-2.335-4.978h2.942a4.947,4.947,0,0,0,1.5,3.171,4.668,4.668,0,0,0,3.2,1.068,4.193,4.193,0,0,0,3.4-1.482,6.172,6.172,0,0,0,1.236-4.085,5.675,5.675,0,0,0-1.339-3.946,4.54,4.54,0,0,0-3.556-1.489,5.108,5.108,0,0,0-3.192.893l-.828.671Z" transform="translate(825.194 9089.075)"/>
    <path id="Trazado_900072" data-name="Trazado 900072" d="M137.547,24.827H121.5V22.592l8.477-9.423a19.99,19.99,0,0,0,2.6-3.471,5.819,5.819,0,0,0,.714-2.767,4.389,4.389,0,0,0-1.16-3.146,4.055,4.055,0,0,0-3.1-1.228,4.8,4.8,0,0,0-3.606,1.321,5.045,5.045,0,0,0-1.285,3.674h-3.114a7.237,7.237,0,0,1,2.178-5.467A8.083,8.083,0,0,1,129.035,0a7.743,7.743,0,0,1,5.4,1.793,6.107,6.107,0,0,1,1.989,4.767q0,3.621-4.61,8.613l-6.559,7.116h12.294Z" transform="translate(455.548 8973.226)"/>
    <path id="Trazado_900073" data-name="Trazado 900073" d="M126.686,7.851a1.959,1.959,0,0,1,.478-1.346,1.836,1.836,0,0,1,1.439-.536,1.893,1.893,0,0,1,1.457.536,1.92,1.92,0,0,1,.493,1.346,1.81,1.81,0,0,1-.493,1.3,1.927,1.927,0,0,1-1.457.521,1.868,1.868,0,0,1-1.439-.521,1.846,1.846,0,0,1-.478-1.3" transform="translate(470.09 8988.57)"/>
    <path id="Trazado_900074" data-name="Trazado 900074" d="M130.147,12.306,131.393.094h12.548V2.972h-9.909l-.739,6.677a7.9,7.9,0,0,1,4.089-1.061,6.751,6.751,0,0,1,5.313,2.214,8.656,8.656,0,0,1,1.967,5.977,8.354,8.354,0,0,1-2.042,5.963,7.443,7.443,0,0,1-5.71,2.178,7.743,7.743,0,0,1-5.3-1.8,7.188,7.188,0,0,1-2.339-4.978h2.946a4.947,4.947,0,0,0,1.5,3.171,4.658,4.658,0,0,0,3.2,1.068,4.2,4.2,0,0,0,3.407-1.482,6.174,6.174,0,0,0,1.235-4.085,5.676,5.676,0,0,0-1.339-3.946,4.54,4.54,0,0,0-3.556-1.489,5.119,5.119,0,0,0-3.2.893l-.825.671Z" transform="translate(476.738 8973.467)"/>
    <path id="Trazado_900075" data-name="Trazado 900075" d="M114.62,76.581H98.573V74.346l8.477-9.423a19.991,19.991,0,0,0,2.6-3.471,5.82,5.82,0,0,0,.714-2.767,4.389,4.389,0,0,0-1.161-3.146,4.055,4.055,0,0,0-3.1-1.228,4.8,4.8,0,0,0-3.606,1.321,5.045,5.045,0,0,0-1.285,3.674H98.1a7.237,7.237,0,0,1,2.178-5.467,8.084,8.084,0,0,1,5.827-2.085,7.743,7.743,0,0,1,5.4,1.793,6.107,6.107,0,0,1,1.989,4.767q0,3.621-4.61,8.613l-6.559,7.116H114.62Z" transform="translate(396.609 9106.271)"/>
    <path id="Trazado_900076" data-name="Trazado 900076" d="M103.76,59.6a1.959,1.959,0,0,1,.478-1.346,1.836,1.836,0,0,1,1.439-.536,1.893,1.893,0,0,1,1.457.536,1.92,1.92,0,0,1,.493,1.346,1.81,1.81,0,0,1-.493,1.3,1.927,1.927,0,0,1-1.457.521,1.868,1.868,0,0,1-1.439-.521,1.846,1.846,0,0,1-.478-1.3" transform="translate(411.154 9121.615)"/>
    <path id="Trazado_900077" data-name="Trazado 900077" d="M107.221,64.06l1.246-12.212h12.548v2.878h-9.909l-.739,6.677a7.9,7.9,0,0,1,4.088-1.06,6.751,6.751,0,0,1,5.313,2.214,8.656,8.656,0,0,1,1.967,5.977,8.354,8.354,0,0,1-2.042,5.963,7.443,7.443,0,0,1-5.71,2.178,7.743,7.743,0,0,1-5.3-1.8,7.189,7.189,0,0,1-2.339-4.978h2.946a4.947,4.947,0,0,0,1.5,3.171,4.658,4.658,0,0,0,3.2,1.068,4.2,4.2,0,0,0,3.407-1.482,6.173,6.173,0,0,0,1.235-4.085,5.676,5.676,0,0,0-1.339-3.946,4.54,4.54,0,0,0-3.556-1.489,5.119,5.119,0,0,0-3.2.893l-.825.671Z" transform="translate(417.802 9106.512)"/>
    <path id="Trazado_900078" data-name="Trazado 900078" d="M122.435,97.719h-3.128V76.981l-6.274,2.3V76.459l8.913-3.349h.489Z" transform="translate(434.992 9161.171)"/>
    <path id="Trazado_900079" data-name="Trazado 900079" d="M118.327,80.9a1.96,1.96,0,0,1,.478-1.346,1.836,1.836,0,0,1,1.439-.536,1.893,1.893,0,0,1,1.457.536,1.92,1.92,0,0,1,.493,1.346,1.81,1.81,0,0,1-.493,1.3,1.927,1.927,0,0,1-1.457.521,1.868,1.868,0,0,1-1.439-.521,1.846,1.846,0,0,1-.478-1.3" transform="translate(448.602 9176.358)"/>
    <path id="Trazado_900080" data-name="Trazado 900080" d="M121.788,85.355l1.246-12.212h12.548v2.878h-9.909l-.739,6.677a7.9,7.9,0,0,1,4.088-1.06,6.751,6.751,0,0,1,5.313,2.214,8.656,8.656,0,0,1,1.967,5.977,8.354,8.354,0,0,1-2.042,5.963,7.443,7.443,0,0,1-5.71,2.178,7.743,7.743,0,0,1-5.3-1.8,7.189,7.189,0,0,1-2.339-4.978h2.946a4.947,4.947,0,0,0,1.5,3.171,4.658,4.658,0,0,0,3.2,1.068,4.2,4.2,0,0,0,3.406-1.482,6.173,6.173,0,0,0,1.235-4.085,5.676,5.676,0,0,0-1.339-3.946A4.54,4.54,0,0,0,128.3,84.43a5.119,5.119,0,0,0-3.2.893l-.825.671Z" transform="translate(455.25 9161.256)"/>
    <path id="Trazado_900081" data-name="Trazado 900081" d="M133.242,38.361V41h-.575a8.2,8.2,0,0,0-5.785,2.153,8.954,8.954,0,0,0-2.489,5.87,6.644,6.644,0,0,1,5.281-2.217,6.352,6.352,0,0,1,5.106,2.253,8.7,8.7,0,0,1,1.907,5.82,8.66,8.66,0,0,1-2.06,6.056,7.092,7.092,0,0,1-5.524,2.271,6.992,6.992,0,0,1-5.7-2.7,10.7,10.7,0,0,1-2.189-6.956v-1.2q0-6.759,2.885-10.334t8.588-3.66Zm-4.088,11.034a5.239,5.239,0,0,0-4.81,3.364V53.9a8.048,8.048,0,0,0,1.36,4.878,4.092,4.092,0,0,0,3.4,1.85,3.964,3.964,0,0,0,3.306-1.55,6.423,6.423,0,0,0,1.2-4.053,6.439,6.439,0,0,0-1.221-4.078,3.916,3.916,0,0,0-3.239-1.557" transform="translate(456.018 9071.841)"/>
    <path id="Trazado_900082" data-name="Trazado 900082" d="M126.686,46.122a1.959,1.959,0,0,1,.478-1.346,1.836,1.836,0,0,1,1.439-.536,1.893,1.893,0,0,1,1.457.536,1.92,1.92,0,0,1,.493,1.346,1.81,1.81,0,0,1-.493,1.3,1.927,1.927,0,0,1-1.457.521,1.868,1.868,0,0,1-1.439-.521,1.846,1.846,0,0,1-.478-1.3" transform="translate(470.09 9086.954)"/>
    <path id="Trazado_900083" data-name="Trazado 900083" d="M130.147,50.574l1.246-12.208h12.548v2.878h-9.909l-.739,6.677a7.9,7.9,0,0,1,4.089-1.061,6.751,6.751,0,0,1,5.313,2.214,8.649,8.649,0,0,1,1.967,5.977,8.339,8.339,0,0,1-2.042,5.96,7.432,7.432,0,0,1-5.71,2.182,7.743,7.743,0,0,1-5.3-1.8,7.2,7.2,0,0,1-2.339-4.978h2.946a4.947,4.947,0,0,0,1.5,3.171,4.658,4.658,0,0,0,3.2,1.068,4.2,4.2,0,0,0,3.407-1.482,6.184,6.184,0,0,0,1.235-4.088,5.666,5.666,0,0,0-1.339-3.942,4.528,4.528,0,0,0-3.556-1.489,5.1,5.1,0,0,0-3.2.893l-.825.671Z" transform="translate(476.738 9071.854)"/>
    <path id="Trazado_900084" data-name="Trazado 900084" d="M270.67,42.1h3.4v2.539h-3.4v5.688h-3.128V44.642H256.387V42.811l10.966-16.972h3.317Zm-10.751,0h7.623V30.1l-.375.671Z" transform="translate(803.516 9039.65)"/>
    <path id="Trazado_900085" data-name="Trazado 900085" d="M262.233,33.6a1.946,1.946,0,0,1,.482-1.346,1.823,1.823,0,0,1,1.435-.536,1.882,1.882,0,0,1,1.457.536,1.923,1.923,0,0,1,.5,1.346,1.813,1.813,0,0,1-.5,1.3,1.916,1.916,0,0,1-1.457.521,1.855,1.855,0,0,1-1.435-.521,1.833,1.833,0,0,1-.482-1.3" transform="translate(818.544 9054.754)"/>
    <path id="Trazado_900086" data-name="Trazado 900086" d="M265.691,38.051l1.246-12.212h12.548v2.878h-9.9l-.743,6.677a7.912,7.912,0,0,1,4.088-1.06,6.764,6.764,0,0,1,5.317,2.214,8.672,8.672,0,0,1,1.964,5.977,8.354,8.354,0,0,1-2.042,5.963,7.44,7.44,0,0,1-5.706,2.178,7.746,7.746,0,0,1-5.3-1.8,7.171,7.171,0,0,1-2.335-4.978h2.942a4.947,4.947,0,0,0,1.5,3.171,4.668,4.668,0,0,0,3.2,1.068,4.193,4.193,0,0,0,3.4-1.482,6.172,6.172,0,0,0,1.236-4.085,5.675,5.675,0,0,0-1.339-3.946,4.54,4.54,0,0,0-3.556-1.489,5.108,5.108,0,0,0-3.192.893l-.828.671Z" transform="translate(825.194 9039.65)"/>
    <path id="Trazado_900126" data-name="Trazado 900126" d="M256.829,66.106a4.89,4.89,0,1,1-4.888-4.888A4.889,4.889,0,0,1,256.829,66.106Z" transform="translate(779.51 9130.6)" fill="none" stroke="#000" stroke-miterlimit="10" stroke-width="0.75"/>
    <path id="Trazado_900127" data-name="Trazado 900127" d="M256.829,74.293a4.89,4.89,0,1,1-4.888-4.888A4.889,4.889,0,0,1,256.829,74.293Z" transform="translate(779.51 9151.646)" fill="none" stroke="#000" stroke-miterlimit="10" stroke-width="0.75"/>
    <path id="Trazado_900128" data-name="Trazado 900128" d="M249.788,70.026a4.89,4.89,0,1,1-4.888-4.888A4.889,4.889,0,0,1,249.788,70.026Z" transform="translate(761.41 9140.678)" fill="none" stroke="#000" stroke-miterlimit="10" stroke-width="0.75"/>
    <path id="Trazado_900129" data-name="Trazado 900129" d="M256.829,29.4a4.89,4.89,0,1,1-4.888-4.888A4.889,4.889,0,0,1,256.829,29.4Z" transform="translate(779.51 9036.236)" fill="none" stroke="#000" stroke-miterlimit="10" stroke-width="0.75"/>
    <path id="Trazado_900130" data-name="Trazado 900130" d="M256.829,37.586a4.89,4.89,0,1,1-4.888-4.888A4.889,4.889,0,0,1,256.829,37.586Z" transform="translate(779.51 9057.283)" fill="none" stroke="#000" stroke-miterlimit="10" stroke-width="0.75"/>
    <path id="Trazado_900131" data-name="Trazado 900131" d="M249.788,33.318A4.89,4.89,0,1,1,244.9,28.43,4.889,4.889,0,0,1,249.788,33.318Z" transform="translate(761.41 9046.312)" fill="none" stroke="#000" stroke-miterlimit="10" stroke-width="0.75"/>
    <path id="Trazado_900145" data-name="Trazado 900145" d="M237.418,60.629l9,15.593-9-3.571-9,3.571Z" transform="translate(731.609 9129.087)"/>
    <path id="Trazado_900146" data-name="Trazado 900146" d="M237.418,83.37l-9-15.593,9,3.571,9-3.571Z" transform="translate(731.61 9147.461)"/>
    <path id="Trazado_900642" data-name="Trazado 900642" d="M0,0V19.578" transform="translate(969.027 9199.447)" fill="none" stroke="#000" stroke-width="0.75"/>
    <path id="Trazado_900147" data-name="Trazado 900147" d="M237.418,21.15l9,15.593-9-3.571-9,3.571Z" transform="translate(731.609 9027.596)"/>
    <path id="Trazado_900148" data-name="Trazado 900148" d="M237.418,49.3l-9-15.593,9,3.571,9-3.571Z" transform="translate(731.61 9059.871)"/>
    <path id="Trazado_900643" data-name="Trazado 900643" d="M0,0V41.281" transform="translate(969.027 9058.477)" fill="none" stroke="#000" stroke-width="0.75"/>
    <path id="Trazado_900149" data-name="Trazado 900149" d="M149.368,4.228l9,15.593-9-3.571-9,3.571Z" transform="translate(505.258 8984.095)"/>
    <path id="Trazado_900644" data-name="Trazado 900644" d="M0,0V174.823" transform="translate(654.626 8998.054)" fill="none" stroke="#000" stroke-width="0.75"/>
    <path id="Trazado_900157" data-name="Trazado 900157" d="M173,81.264l-9,15.593h18Z" transform="translate(566.012 9182.133)"/>
    <path id="Trazado_900159" data-name="Trazado 900159" d="M233.684,81.264l-9,15.593h18Z" transform="translate(722.012 9182.133)" fill="none" stroke="#000" stroke-miterlimit="10" stroke-width="0.5"/>
    <path id="Trazado_900167" data-name="Trazado 900167" d="M131.161,47.734S392.017,15.312,565.882,17.483v83.941s-243.877-9.405-392.851,53.55Z" transform="translate(481.594 9017.902)" fill="none" stroke="#000" stroke-miterlimit="10" stroke-width="1"/>
    <path id="Trazado_900168" data-name="Trazado 900168" d="M150.812,57.391s-11.837,31.2-11.059,58.742H289.37" transform="translate(503.589 9120.762)" fill="none" stroke="#9d9d9c" stroke-miterlimit="10" stroke-width="0.75"/>
    <path id="Trazado_900169" data-name="Trazado 900169" d="M162.568,75.862a12.8,12.8,0,1,1-9.188-15.59A12.8,12.8,0,0,1,162.568,75.862Z" transform="translate(497.581 9127.115)" fill="none" stroke="#000" stroke-miterlimit="10" stroke-width="0.664"/>
    <path id="Trazado_900645" data-name="Trazado 900645" d="M0,0,13.276,3.432" transform="translate(641.123 9198.061)" fill="none" stroke="#000" stroke-width="0.75"/>
    <path id="Trazado_900170" data-name="Trazado 900170" d="M185.891,55.156l-7.074,48.855L114.03,66.932l71.861-11.776,31.18,2.707" transform="translate(437.556 9115.016)" fill="none" stroke="#9d9d9c" stroke-miterlimit="10" stroke-width="0.75"/>
    <path id="Trazado_900646" data-name="Trazado 900646" d="M0,28.9,29.512,0" transform="translate(613.794 9226.955)" fill="none" stroke="#9d9d9c" stroke-width="0.5"/>
    <path id="Trazado_900647" data-name="Trazado 900647" d="M0,0V62.959" transform="translate(1047.474 9119.326)" fill="none" stroke="#9d9d9c" stroke-width="0.75"/>
    <path id="Trazado_900171" data-name="Trazado 900171" d="M132.174,100.544s178.722,29.833,431.1,17.532V63.8L176.962,56.581S139.765,52.66,132.174,100.544Z" transform="translate(484.198 9118.479)" fill="none" stroke="#000" stroke-miterlimit="10" stroke-width="1"/>
  </g>
</svg>
