<svg xmlns="http://www.w3.org/2000/svg" width="400" height="278" viewBox="0 0 400 278">
  <g id="Grupo_1114608" data-name="Grupo 1114608" transform="translate(2625.533 8926)">
    <path id="Trazado_900428" data-name="Trazado 900428" d="M0,0H400V278H0Z" transform="translate(-2625.533 -8926)" fill="#fff"/>
    <path id="Trazado_895576" data-name="Trazado 895576" d="M35.817,78.39a34.5,34.5,0,0,1-6.223-14.565,37.382,37.382,0,0,1-.65-8.539.355.355,0,0,0-.095-.263.312.312,0,0,0-.214-.1l-1.659-.263-.022,0h0a.311.311,0,0,0-.237.112,16.835,16.835,0,0,1-6.362,2.066,19.017,19.017,0,0,1-5.726-.238,20.754,20.754,0,0,1-5.459-1.836.312.312,0,0,0-.231-.1h0l-.021,0-1.661.263a.312.312,0,0,0-.215.1.356.356,0,0,0-.095.263,37.381,37.381,0,0,1-.65,8.539A34.5,34.5,0,0,1,.071,78.39a.358.358,0,0,0-.051.333L4.691,92.067a.325.325,0,0,0,.3.223h25.9a.325.325,0,0,0,.3-.223l4.671-13.343a.358.358,0,0,0-.05-.333M20.38,57.125a17.107,17.107,0,0,0,6.02-1.852A9.979,9.979,0,0,1,18.138,60.2a9.5,9.5,0,0,1-4.879-1.327,11.611,11.611,0,0,1-3.777-3.63,21.6,21.6,0,0,0,5.08,1.64,19.309,19.309,0,0,0,5.817.244" transform="translate(-2607.533 -8953.155)"/>
    <path id="Trazado_895577" data-name="Trazado 895577" d="M1057.786,75.437a24.455,24.455,0,0,1-.389-19.506.342.342,0,0,0-.232-.466l-2.632-.661a.34.34,0,0,0-.173,0,98.962,98.962,0,0,1-29.01,0,.34.34,0,0,0-.172,0l-2.632.661a.343.343,0,0,0-.232.466,24.457,24.457,0,0,1-.389,19.506.144.144,0,0,0-.006.1l5.273,16.635a.341.341,0,0,0,.327.239h24.674a.341.341,0,0,0,.327-.239l5.273-16.635a.144.144,0,0,0-.006-.1m-5.054-20.112c-.9.266-1.849.514-2.838.741-7.88,1.814-12.2,1.814-20.075,0-.99-.228-1.939-.476-2.839-.741a99.262,99.262,0,0,0,25.752,0" transform="translate(-3563.923 -8953.281)"/>
    <path id="Trazado_895578" data-name="Trazado 895578" d="M2079.688,69.5a18.088,18.088,0,0,1-3.052-12.153,18.634,18.634,0,0,1,2.452-6.863c.1-.179.188-.333.255-.461l.007-.016a.361.361,0,0,0-.014-.291.328.328,0,0,0-.2-.17l-.018,0-6.587-.978a.551.551,0,0,0-.24.011,52.669,52.669,0,0,1-10.521.906,52.669,52.669,0,0,1-10.521-.905.549.549,0,0,0-.24-.012l-6.587.978-.017,0a.327.327,0,0,0-.2.17.362.362,0,0,0-.015.291l.007.016c.067.128.155.282.255.461a18.631,18.631,0,0,1,2.451,6.863,18.087,18.087,0,0,1-3.052,12.153.145.145,0,0,0-.021.1l2.431,16.765a.273.273,0,0,0,.007.035.241.241,0,0,0,.231.18h30.546a.241.241,0,0,0,.231-.179.317.317,0,0,0,.008-.034l2.431-16.766a.145.145,0,0,0-.021-.1m-7.641-20.579a20.2,20.2,0,0,1-1.493,6.771,28.382,28.382,0,0,1-8.689,11.548.154.154,0,0,1-.2,0,28.38,28.38,0,0,1-8.689-11.548,20.187,20.187,0,0,1-1.493-6.771,55.261,55.261,0,0,0,10.28.85,55.263,55.263,0,0,0,10.28-.85" transform="translate(-4520.312 -8947.441)"/>
    <path id="Trazado_895579" data-name="Trazado 895579" d="M3101.624,69.53a33.225,33.225,0,0,1-2.094-13.094,18.206,18.206,0,0,1,1.446-6.716.142.142,0,0,0,0-.133.145.145,0,0,0-.11-.077l-7.244-.95h0a76.033,76.033,0,0,1-9.93.66,76.027,76.027,0,0,1-9.93-.66h0l-7.244.95a.144.144,0,0,0-.109.21,18.2,18.2,0,0,1,1.446,6.716,33.221,33.221,0,0,1-2.093,13.094.147.147,0,0,0-.007.07l2.431,16.766a.242.242,0,0,0,.237.214h30.546a.242.242,0,0,0,.238-.214l2.431-16.766a.147.147,0,0,0-.007-.07m-17.935-17.787a19.656,19.656,0,0,1-9.273-2.811,74.945,74.945,0,0,0,18.546,0,19.656,19.656,0,0,1-9.273,2.811" transform="translate(-5476.713 -8947.446)"/>
    <path id="Trazado_895580" data-name="Trazado 895580" d="M4123.532,75.511a.117.117,0,0,0,0-.026v0c0-.008,0-.016,0-.023s0-.005,0-.008a.106.106,0,0,0-.006-.017v0a24.454,24.454,0,0,1-.388-19.506.343.343,0,0,0-.232-.466l-2.633-.661a.342.342,0,0,0-.194.008,44.5,44.5,0,0,1-4.446,1.253c-7.88,1.814-12.2,1.814-20.075,0a44.52,44.52,0,0,1-4.447-1.253.339.339,0,0,0-.193-.008l-2.632.661a.342.342,0,0,0-.232.466,24.458,24.458,0,0,1-.389,19.506v0a.122.122,0,0,0-.006.018l0,.007a.144.144,0,0,0,0,.052.029.029,0,0,0,0,.007.108.108,0,0,0,0,.017l5.273,16.635a.341.341,0,0,0,.327.239h24.674a.342.342,0,0,0,.327-.239l5.273-16.635c0-.005,0-.011,0-.016v-.008m-33.5-12.942a24.56,24.56,0,0,0-1.72-6.757.055.055,0,0,1,.037-.073l2.632-.661a.052.052,0,0,1,.03,0,44.841,44.841,0,0,0,4.476,1.262c7.931,1.825,12.273,1.825,20.2,0a44.793,44.793,0,0,0,4.475-1.262.054.054,0,0,1,.03,0l2.632.661a.052.052,0,0,1,.035.029.05.05,0,0,1,0,.045,24.578,24.578,0,0,0-1.72,6.757,24.306,24.306,0,0,0,1.949,12.62,15.014,15.014,0,0,0-5.5-1.257,13.943,13.943,0,0,0-5.791,1.027,6.515,6.515,0,0,1-12.428,0,13.943,13.943,0,0,0-5.791-1.027,15.016,15.016,0,0,0-5.5,1.257,24.306,24.306,0,0,0,1.949-12.62" transform="translate(-6433.093 -8953.275)"/>
    <path id="Trazado_895581" data-name="Trazado 895581" d="M5145.43,24.153a24.641,24.641,0,0,1-2.312-12.123,24.174,24.174,0,0,1,1.484-6.779q.042-.121.079-.221a.145.145,0,0,0-.121-.191l-11.795-1.3a.055.055,0,0,1-.048-.054V.34a.343.343,0,0,0-.343-.343h-9.75a.343.343,0,0,0-.342.343V3.483a.055.055,0,0,1-.049.054l-11.795,1.3a.142.142,0,0,0-.105.067.144.144,0,0,0-.015.125l.079.221a24.179,24.179,0,0,1,1.483,6.779,24.63,24.63,0,0,1-2.312,12.123.147.147,0,0,0-.006.1l5.273,16.635a.342.342,0,0,0,.326.239h24.674a.342.342,0,0,0,.327-.239l5.273-16.635a.142.142,0,0,0-.007-.1" transform="translate(-7389.48 -8901.997)"/>
    <path id="Trazado_895582" data-name="Trazado 895582" d="M35.875,1106.4a24.456,24.456,0,0,1-.389-19.506.343.343,0,0,0-.232-.466l-2.632-.661a.144.144,0,0,0-.172.1l-4.159,12.843a10.876,10.876,0,0,1-20.694,0l-4.159-12.843a.144.144,0,0,0-.172-.1l-2.632.661a.343.343,0,0,0-.232.466,24.265,24.265,0,0,1,1.7,6.675A24.04,24.04,0,0,1,.014,1106.4a.144.144,0,0,0-.006.1l5.274,16.635a.341.341,0,0,0,.327.239H30.282a.341.341,0,0,0,.326-.239l5.274-16.635a.144.144,0,0,0-.006-.1" transform="translate(-2607.534 -9918.148)"/>
    <path id="Trazado_895583" data-name="Trazado 895583" d="M1057.786,1102.963a24.456,24.456,0,0,1-.389-19.506.342.342,0,0,0-.231-.466l-3.4-.89a.317.317,0,0,0-.388.229l-3.844,15.224a2.553,2.553,0,0,1-2.477,1.93h-14.4a2.553,2.553,0,0,1-2.477-1.93l-3.844-15.224a.317.317,0,0,0-.388-.229l-3.4.89a.343.343,0,0,0-.232.466,24.457,24.457,0,0,1-.389,19.506.144.144,0,0,0-.006.1l5.273,16.635a.342.342,0,0,0,.327.239h24.674a.341.341,0,0,0,.327-.239l5.273-16.635a.144.144,0,0,0-.006-.1" transform="translate(-3563.923 -9914.71)"/>
    <path id="Trazado_895584" data-name="Trazado 895584" d="M2079.7,1106.4c-4.06-8.823-1.879-15.937-.753-18.586a.144.144,0,0,0-.1-.2l-9.363-1.85a.145.145,0,0,0-.168.107,30.765,30.765,0,0,0-.7,6.593c0,4.154.856,8.44,3.282,11.812a11.679,11.679,0,0,0-3.067-.163,9.889,9.889,0,0,1-14.12,0,11.7,11.7,0,0,0-3.066.163c2.426-3.372,3.281-7.658,3.282-11.812a30.737,30.737,0,0,0-.7-6.593.144.144,0,0,0-.168-.107l-9.363,1.85a.144.144,0,0,0-.1.2c1.126,2.649,3.307,9.763-.753,18.586a.145.145,0,0,0-.006.1l5.273,16.635a.341.341,0,0,0,.327.239H2074.1a.341.341,0,0,0,.326-.239l5.273-16.635a.143.143,0,0,0-.006-.1" transform="translate(-4520.313 -9918.149)"/>
    <path id="Trazado_895585" data-name="Trazado 895585" d="M3101.613,1106.412l-1.915-5.037a110.554,110.554,0,0,1-4.381-14.425l-.247-1.072a.144.144,0,0,0-.141-.112h-2.5a.144.144,0,0,0-.141.177,128.7,128.7,0,0,0,5.141,17.724l.276.687a11.054,11.054,0,0,0-4.286-.877,11.265,11.265,0,0,0-4.649.97,5.291,5.291,0,0,1-10.175,0,11.271,11.271,0,0,0-4.649-.97,11.055,11.055,0,0,0-4.286.877l.276-.687a128.6,128.6,0,0,0,5.141-17.724.144.144,0,0,0-.141-.177h-2.5a.144.144,0,0,0-.141.112l-.247,1.072a110.518,110.518,0,0,1-4.381,14.425l-1.915,5.037a.145.145,0,0,0,0,.095l5.273,16.635a.341.341,0,0,0,.327.239h24.674a.341.341,0,0,0,.327-.239l5.273-16.635a.144.144,0,0,0,0-.095" transform="translate(-5476.702 -9918.15)"/>
    <path id="Trazado_895586" data-name="Trazado 895586" d="M4123.909,1104.939a13.889,13.889,0,0,0-3.832-1.058.053.053,0,0,1-.045-.058l2.3-17.889a.142.142,0,0,0-.035-.114.145.145,0,0,0-.108-.049h-.679a.144.144,0,0,0-.143.126l-2.289,17.833a.053.053,0,0,1-.057.047,14.605,14.605,0,0,0-6.047.888,7.234,7.234,0,0,1-13.526,0,14.6,14.6,0,0,0-6.046-.888.054.054,0,0,1-.058-.048l-2.289-17.832a.144.144,0,0,0-.143-.126h-.68a.144.144,0,0,0-.143.162l2.3,17.888a.054.054,0,0,1-.045.059,13.874,13.874,0,0,0-3.832,1.058.342.342,0,0,0-.183.411l5.222,17.8a.342.342,0,0,0,.326.239h24.674a.343.343,0,0,0,.328-.242l5.22-17.79a.344.344,0,0,0-.183-.415" transform="translate(-6433.709 -9918.154)"/>
    <path id="Trazado_895587" data-name="Trazado 895587" d="M5140.795,1108.093a10.932,10.932,0,0,0-8.964-3.977,14.545,14.545,0,0,0-7.978,2.922,30.41,30.41,0,0,1,1.734-9.537,18.3,18.3,0,0,1,3.384-5.782,11.7,11.7,0,0,1,4.78-3.428.144.144,0,0,0,.1-.1.142.142,0,0,0-.038-.138l-2.238-2.238a.145.145,0,0,0-.212.008l-.013.016-.084.1a11.49,11.49,0,0,1-17.324,0l-.1-.112a.145.145,0,0,0-.1-.051.142.142,0,0,0-.108.042l-2.239,2.238a.146.146,0,0,0-.038.138.144.144,0,0,0,.1.1,11.7,11.7,0,0,1,4.78,3.428,18.288,18.288,0,0,1,3.384,5.782,30.41,30.41,0,0,1,1.734,9.537,14.546,14.546,0,0,0-7.978-2.922,10.934,10.934,0,0,0-8.964,3.977.363.363,0,0,0-.071.341l4.486,14.7a.361.361,0,0,0,.344.25h26.867a.361.361,0,0,0,.344-.252l4.486-14.7a.363.363,0,0,0-.072-.341" transform="translate(-7384.583 -9918.152)"/>
    <path id="Trazado_895594" data-name="Trazado 895594" d="M138.2,748.9l-.367,2.083h2.408l.367-2.083h.65l-.878,4.978h-.65l.412-2.334h-2.408l-.412,2.334h-.643l.878-4.978Z" transform="translate(-2735.45 -9602.881)"/>
    <path id="Trazado_895595" data-name="Trazado 895595" d="M211.517,773.175l.028-.451h-.022a1.615,1.615,0,0,1-1.187.532.836.836,0,0,1-.912-1.027c.152-.864,1-1.337,2.384-1.329l.013-.074c.052-.3.065-.827-.667-.827a2.037,2.037,0,0,0-.978.266l-.072-.428a2.526,2.526,0,0,1,1.23-.318c1.093,0,1.228.746,1.1,1.462l-.236,1.337a5.078,5.078,0,0,0-.092.857Zm.226-1.824c-.706-.015-1.534.111-1.656.805a.474.474,0,0,0,.5.62,1.106,1.106,0,0,0,.97-.6.774.774,0,0,0,.073-.207Z" transform="translate(-2803.513 -9622.18)"/>
    <path id="Trazado_895596" data-name="Trazado 895596" d="M267.9,744.751h.65l-.925,5.244h-.65Z" transform="translate(-2857.386 -9599)"/>
    <path id="Trazado_895597" data-name="Trazado 895597" d="M297.748,754.773l-.181,1.027h.931l-.087.495h-.931l-.34,1.928c-.078.443,0,.694.365.694a1.546,1.546,0,0,0,.385-.044l-.056.487a1.729,1.729,0,0,1-.592.089.756.756,0,0,1-.654-.273,1.2,1.2,0,0,1-.087-.931l.344-1.95h-.554l.087-.495h.554l.151-.857Z" transform="translate(-2884.827 -9608.379)"/>
    <path id="Trazado_895598" data-name="Trazado 895598" d="M332.373,771.5a.945.945,0,0,0,1.007,1.241,2.59,2.59,0,0,0,1.022-.185l.029.465a3.2,3.2,0,0,1-1.228.222,1.37,1.37,0,0,1-1.44-1.8,2.151,2.151,0,0,1,2.017-1.928c1.167,0,1.3,1.027,1.18,1.684a2.67,2.67,0,0,1-.076.3Zm1.988-.465c.08-.414.016-1.056-.715-1.056a1.348,1.348,0,0,0-1.183,1.056Z" transform="translate(-2917.989 -9622.179)"/>
    <path id="Trazado_895599" data-name="Trazado 895599" d="M389.745,770.716c.074-.421.131-.783.167-1.115h.569l-.1.7h.03a1.341,1.341,0,0,1,1.128-.783.659.659,0,0,1,.181.022l-.108.613a.925.925,0,0,0-.218-.022,1.141,1.141,0,0,0-1.019.835,2.01,2.01,0,0,0-.083.3l-.336,1.906h-.643Z" transform="translate(-2971.883 -9622.18)"/>
    <path id="Trazado_895600" data-name="Trazado 895600" d="M1124.156,751.908a1.978,1.978,0,0,0,1.095.325,1.1,1.1,0,0,0,1.191-.849c.082-.465-.137-.731-.764-.99-.762-.288-1.19-.709-1.066-1.411a1.769,1.769,0,0,1,1.849-1.352,2.01,2.01,0,0,1,1.057.244l-.27.525a1.736,1.736,0,0,0-.9-.236.992.992,0,0,0-1.07.746c-.082.465.18.694.82.96.785.325,1.141.731,1.012,1.462a1.849,1.849,0,0,1-2,1.433,2.263,2.263,0,0,1-1.214-.318Z" transform="translate(-3659.37 -9601.695)"/>
    <path id="Trazado_895601" data-name="Trazado 895601" d="M1184.009,773.175l.028-.451h-.022a1.615,1.615,0,0,1-1.187.532.836.836,0,0,1-.912-1.027c.152-.864,1-1.337,2.384-1.329l.013-.074c.052-.3.065-.827-.667-.827a2.037,2.037,0,0,0-.978.266l-.072-.428a2.526,2.526,0,0,1,1.23-.318c1.093,0,1.228.746,1.1,1.462l-.236,1.337a5.094,5.094,0,0,0-.092.857Zm.226-1.824c-.706-.015-1.534.111-1.656.805a.474.474,0,0,0,.5.62,1.106,1.106,0,0,0,.97-.6.779.779,0,0,0,.073-.207Z" transform="translate(-3713.652 -9622.18)"/>
    <path id="Trazado_895602" data-name="Trazado 895602" d="M1239,750c.058-.244.136-.606.192-.923l.762-4.321h.643l-.4,2.245h.015a1.625,1.625,0,0,1,1.335-.657c.886,0,1.384.739,1.185,1.824a2.106,2.106,0,0,1-1.94,1.913,1.039,1.039,0,0,1-1.078-.672h-.022l-.134.591Zm.925-1.433a1.19,1.19,0,0,0-.012.236.807.807,0,0,0,.841.761c.68,0,1.183-.554,1.328-1.374.126-.716-.135-1.33-.829-1.33a1.294,1.294,0,0,0-1.13.8,1.445,1.445,0,0,0-.084.266Z" transform="translate(-3767.093 -9599)"/>
    <path id="Trazado_895603" data-name="Trazado 895603" d="M1305.443,770.716c.074-.421.131-.783.167-1.115h.569l-.1.7h.03a1.341,1.341,0,0,1,1.128-.783.66.66,0,0,1,.181.022l-.108.613a.925.925,0,0,0-.218-.022,1.141,1.141,0,0,0-1.019.835,2.039,2.039,0,0,0-.083.3l-.336,1.906h-.643Z" transform="translate(-3828.869 -9622.18)"/>
    <path id="Trazado_895604" data-name="Trazado 895604" d="M1344.67,749.188a.475.475,0,0,1-.484.4.317.317,0,0,1-.321-.4.492.492,0,0,1,.478-.406.317.317,0,0,1,.327.406m-1.531,4.579.63-3.575h.65l-.63,3.575Z" transform="translate(-3864.554 -9602.772)"/>
    <path id="Trazado_895605" data-name="Trazado 895605" d="M1370.556,770.568c.065-.369.111-.672.141-.968h.576l-.067.591h.015a1.616,1.616,0,0,1,1.3-.672c.495,0,1.211.3.995,1.522l-.376,2.135h-.65l.363-2.061c.1-.576-.028-1.056-.641-1.056a1.154,1.154,0,0,0-.989.665,1.057,1.057,0,0,0-.1.3l-.379,2.149h-.65Z" transform="translate(-3889.783 -9622.18)"/>
    <path id="Trazado_895606" data-name="Trazado 895606" d="M1434.1,773.175l.028-.451h-.022a1.615,1.615,0,0,1-1.187.532.836.836,0,0,1-.912-1.027c.152-.864,1-1.337,2.384-1.329l.013-.074c.052-.3.065-.827-.667-.827a2.037,2.037,0,0,0-.977.266l-.072-.428a2.526,2.526,0,0,1,1.23-.318c1.093,0,1.227.746,1.1,1.462l-.236,1.337a5.093,5.093,0,0,0-.092.857Zm.225-1.824c-.706-.015-1.534.111-1.656.805a.474.474,0,0,0,.5.62,1.106,1.106,0,0,0,.97-.6.766.766,0,0,0,.073-.207Z" transform="translate(-3947.711 -9622.18)"/>
    <path id="Trazado_895607" data-name="Trazado 895607" d="M2172.015,753.875l-.747-4.978h.694l.343,2.452c.1.672.174,1.278.2,1.861h.015c.242-.576.559-1.2.9-1.854l1.276-2.46h.687l-2.658,4.978Z" transform="translate(-4639.586 -9602.88)"/>
    <path id="Trazado_895608" data-name="Trazado 895608" d="M2229.986,791.637l-.085.48h-1.824l.085-.48Z" transform="translate(-4692.753 -9642.879)"/>
    <path id="Trazado_895609" data-name="Trazado 895609" d="M2264.022,770.568c.065-.369.111-.672.141-.968h.576l-.067.591h.015a1.616,1.616,0,0,1,1.3-.672c.495,0,1.211.3.995,1.522l-.376,2.135h-.65l.363-2.061c.1-.576-.028-1.056-.641-1.056a1.154,1.154,0,0,0-.989.665,1.064,1.064,0,0,0-.1.3l-.379,2.149h-.65Z" transform="translate(-4725.963 -9622.18)"/>
    <path id="Trazado_895610" data-name="Trazado 895610" d="M2328.273,771.5a.945.945,0,0,0,1.007,1.241,2.591,2.591,0,0,0,1.022-.185l.029.465a3.2,3.2,0,0,1-1.229.222,1.37,1.37,0,0,1-1.44-1.8,2.151,2.151,0,0,1,2.016-1.928c1.167,0,1.3,1.027,1.181,1.684a2.672,2.672,0,0,1-.076.3Zm1.988-.465c.08-.414.016-1.056-.715-1.056a1.349,1.349,0,0,0-1.184,1.056Z" transform="translate(-4785.919 -9622.179)"/>
    <path id="Trazado_895611" data-name="Trazado 895611" d="M2387.975,773.149a2.661,2.661,0,0,1-1.063.207,1.4,1.4,0,0,1-1.458-1.824,2.247,2.247,0,0,1,2.255-1.9,1.949,1.949,0,0,1,.869.185l-.236.5a1.336,1.336,0,0,0-.723-.17,1.531,1.531,0,0,0-1.5,1.352c-.146.827.3,1.337,1.005,1.337a2.068,2.068,0,0,0,.829-.177Z" transform="translate(-4840.005 -9622.286)"/>
    <path id="Trazado_895612" data-name="Trazado 895612" d="M2437.8,748.059h.015c.111-.125.263-.281.389-.406l1.266-1.233h.783l-1.641,1.47,1.2,2.105h-.79l-.931-1.714-.4.369-.237,1.344h-.643l.925-5.244h.643Z" transform="translate(-4888.112 -9598.999)"/>
    <path id="Trazado_895613" data-name="Trazado 895613" d="M3215.138,748.9h.643l-.587,3.331c-.233,1.322-.955,1.728-1.812,1.728a1.9,1.9,0,0,1-.666-.118l.188-.524a1.391,1.391,0,0,0,.522.1c.576,0,.961-.258,1.133-1.233Z" transform="translate(-5614.259 -9602.881)"/>
    <path id="Trazado_895614" data-name="Trazado 895614" d="M3263.962,771.5a.945.945,0,0,0,1.007,1.241,2.588,2.588,0,0,0,1.022-.185l.029.465a3.2,3.2,0,0,1-1.228.222,1.37,1.37,0,0,1-1.44-1.8,2.151,2.151,0,0,1,2.016-1.928c1.167,0,1.3,1.027,1.18,1.684a2.682,2.682,0,0,1-.075.3Zm1.988-.465c.08-.414.016-1.056-.715-1.056a1.348,1.348,0,0,0-1.183,1.056Z" transform="translate(-5661.613 -9622.179)"/>
    <path id="Trazado_895615" data-name="Trazado 895615" d="M3325.06,770.785l.152,1.817c.033.4.064.768.065,1.138h.022c.145-.362.331-.746.517-1.13l.905-1.824h.547l.239,1.787c.057.428.094.805.112,1.167h.022c.123-.362.285-.739.478-1.16l.826-1.795h.643l-1.782,3.575h-.591l-.246-1.706a10.878,10.878,0,0,1-.11-1.174h-.015a12.636,12.636,0,0,1-.533,1.182l-.876,1.7h-.591l-.448-3.575Z" transform="translate(-5718.778 -9623.364)"/>
    <path id="Trazado_895616" data-name="Trazado 895616" d="M3405.312,771.5a.945.945,0,0,0,1.007,1.241,2.588,2.588,0,0,0,1.022-.185l.029.465a3.2,3.2,0,0,1-1.228.222,1.37,1.37,0,0,1-1.44-1.8,2.151,2.151,0,0,1,2.016-1.928c1.167,0,1.3,1.027,1.18,1.684a2.63,2.63,0,0,1-.075.3Zm1.988-.465c.08-.414.016-1.056-.715-1.056a1.348,1.348,0,0,0-1.183,1.056Z" transform="translate(-5793.9 -9622.179)"/>
    <path id="Trazado_895617" data-name="Trazado 895617" d="M3463.174,744.751h.65l-.925,5.244h-.65Z" transform="translate(-5847.793 -9599)"/>
    <path id="Trazado_895618" data-name="Trazado 895618" d="M4201.194,748.9l-.877,4.978h-.643l.878-4.978Z" transform="translate(-6537.938 -9602.881)"/>
    <path id="Trazado_895619" data-name="Trazado 895619" d="M4228.938,744.751h.65l-.924,5.244h-.65Z" transform="translate(-6564.459 -9599)"/>
    <path id="Trazado_895620" data-name="Trazado 895620" d="M4256.124,744.751h.65l-.925,5.244h-.65Z" transform="translate(-6589.902 -9599)"/>
    <path id="Trazado_895621" data-name="Trazado 895621" d="M4288.374,773.385c-.065.369-.115.694-.143.975h-.576l.065-.584h-.015a1.656,1.656,0,0,1-1.3.665c-.562,0-1.179-.31-.958-1.566l.369-2.09h.65l-.349,1.979c-.12.679.006,1.137.6,1.137a1.171,1.171,0,0,0,.961-.591,1.091,1.091,0,0,0,.117-.332l.387-2.194h.65Z" transform="translate(-6618.17 -9623.364)"/>
    <path id="Trazado_895622" data-name="Trazado 895622" d="M4342.661,772.51a1.469,1.469,0,0,0,.812.258c.473,0,.736-.236.788-.532s-.1-.48-.549-.657c-.6-.229-.842-.583-.767-1.012a1.361,1.361,0,0,1,1.418-1.049,1.57,1.57,0,0,1,.84.222l-.246.473a1.208,1.208,0,0,0-.7-.207.643.643,0,0,0-.684.487c-.052.3.139.428.572.606.579.236.842.547.749,1.078a1.4,1.4,0,0,1-1.526,1.071,1.8,1.8,0,0,1-.961-.244Z" transform="translate(-6671.522 -9622.18)"/>
    <path id="Trazado_895623" data-name="Trazado 895623" d="M4393.011,749.188a.474.474,0,0,1-.484.4.317.317,0,0,1-.321-.4.492.492,0,0,1,.478-.406.317.317,0,0,1,.327.406m-1.532,4.579.631-3.575h.65l-.63,3.575Z" transform="translate(-6717.444 -9602.772)"/>
    <path id="Trazado_895624" data-name="Trazado 895624" d="M4422.2,771.358a2.162,2.162,0,0,1-2.115,1.9,1.4,1.4,0,0,1-1.39-1.839,2.161,2.161,0,0,1,2.107-1.9,1.394,1.394,0,0,1,1.4,1.839m-2.843.037c-.138.783.208,1.374.843,1.374a1.525,1.525,0,0,0,1.331-1.389c.107-.606-.061-1.374-.829-1.374a1.5,1.5,0,0,0-1.345,1.389" transform="translate(-6742.88 -9622.18)"/>
    <path id="Trazado_895625" data-name="Trazado 895625" d="M4482.139,770.568c.065-.369.111-.672.141-.968h.576l-.067.591h.015a1.615,1.615,0,0,1,1.3-.672c.5,0,1.211.3.995,1.522l-.376,2.135h-.65l.363-2.061c.1-.576-.028-1.056-.641-1.056a1.153,1.153,0,0,0-.988.665,1.034,1.034,0,0,0-.1.3l-.38,2.149h-.649Z" transform="translate(-6801.861 -9622.18)"/>
    <path id="Trazado_895626" data-name="Trazado 895626" d="M5150.011,748.9l-.367,2.083h2.408l.367-2.083h.65l-.878,4.978h-.649l.411-2.334h-2.408l-.411,2.334h-.643l.877-4.978Z" transform="translate(-7425.918 -9602.881)"/>
    <path id="Trazado_895627" data-name="Trazado 895627" d="M5225.938,749.188a.474.474,0,0,1-.484.4.317.317,0,0,1-.321-.4.492.492,0,0,1,.478-.406.317.317,0,0,1,.327.406m-1.532,4.579.631-3.575h.65l-.63,3.575Z" transform="translate(-7496.966 -9602.772)"/>
    <path id="Trazado_895628" data-name="Trazado 895628" d="M5252.615,769.6c-.061.258-.126.546-.2.982l-.366,2.076a2.46,2.46,0,0,1-.8,1.632,2.193,2.193,0,0,1-1.375.428,2.037,2.037,0,0,1-1.138-.3l.25-.495a1.759,1.759,0,0,0,1,.281,1.321,1.321,0,0,0,1.373-1.248l.07-.4h-.015a1.557,1.557,0,0,1-1.243.6c-.887,0-1.389-.753-1.214-1.743a2.131,2.131,0,0,1,1.944-1.9.965.965,0,0,1,1.006.62h.015l.125-.539Zm-.921,1.411a.9.9,0,0,0,.015-.3.753.753,0,0,0-.787-.687,1.443,1.443,0,0,0-1.3,1.352c-.124.7.128,1.285.83,1.285a1.183,1.183,0,0,0,1.019-.665,1.248,1.248,0,0,0,.113-.347Z" transform="translate(-7519.736 -9622.18)"/>
    <path id="Trazado_895629" data-name="Trazado 895629" d="M5316.683,744.751h.649l-.393,2.231h.015a1.566,1.566,0,0,1,.546-.458,1.524,1.524,0,0,1,.7-.185c.48,0,1.2.3.979,1.529L5318.8,750h-.65l.362-2.053c.1-.576-.026-1.064-.639-1.064a1.166,1.166,0,0,0-.986.65.867.867,0,0,0-.1.31l-.38,2.157h-.65Z" transform="translate(-7582.461 -9599)"/>
    <path id="Trazado_895630" data-name="Trazado 895630" d="M5404.575,770.568c.065-.369.111-.672.141-.968h.576l-.067.591h.015a1.617,1.617,0,0,1,1.3-.672c.5,0,1.211.3.995,1.522l-.376,2.135h-.65l.363-2.061c.1-.576-.028-1.056-.641-1.056a1.153,1.153,0,0,0-.988.665,1.049,1.049,0,0,0-.1.3l-.379,2.149h-.65Z" transform="translate(-7665.153 -9622.18)"/>
    <path id="Trazado_895631" data-name="Trazado 895631" d="M5468.826,771.5a.946.946,0,0,0,1.008,1.241,2.589,2.589,0,0,0,1.022-.185l.029.465a3.2,3.2,0,0,1-1.229.222,1.37,1.37,0,0,1-1.439-1.8,2.15,2.15,0,0,1,2.016-1.928c1.167,0,1.3,1.027,1.181,1.684a2.672,2.672,0,0,1-.076.3Zm1.988-.465c.08-.414.016-1.056-.714-1.056a1.348,1.348,0,0,0-1.184,1.056Z" transform="translate(-7725.109 -9622.179)"/>
    <path id="Trazado_895632" data-name="Trazado 895632" d="M5528.528,773.149a2.663,2.663,0,0,1-1.063.207,1.4,1.4,0,0,1-1.458-1.824,2.247,2.247,0,0,1,2.255-1.9,1.947,1.947,0,0,1,.869.185l-.236.5a1.336,1.336,0,0,0-.724-.17,1.53,1.53,0,0,0-1.5,1.352c-.146.827.3,1.337,1.005,1.337a2.068,2.068,0,0,0,.829-.177Z" transform="translate(-7779.195 -9622.286)"/>
    <path id="Trazado_895633" data-name="Trazado 895633" d="M5578.357,748.059h.015c.11-.125.264-.281.389-.406l1.267-1.233h.783l-1.641,1.47,1.2,2.105h-.79l-.932-1.714-.4.369-.237,1.344h-.643l.925-5.244h.643Z" transform="translate(-7827.302 -9598.999)"/>
    <path id="Trazado_895634" data-name="Trazado 895634" d="M122.987,1785.819a1.979,1.979,0,0,0,1.095.325,1.1,1.1,0,0,0,1.191-.85c.082-.465-.137-.731-.764-.99-.762-.288-1.19-.709-1.066-1.411a1.769,1.769,0,0,1,1.849-1.352,2.013,2.013,0,0,1,1.058.243l-.27.525a1.738,1.738,0,0,0-.9-.236.992.992,0,0,0-1.07.746c-.082.466.18.694.82.96.785.325,1.141.731,1.013,1.462a1.849,1.849,0,0,1-2,1.433,2.264,2.264,0,0,1-1.214-.318Z" transform="translate(-2722.393 -10569.314)"/>
    <path id="Trazado_895635" data-name="Trazado 895635" d="M185.877,1807.06a2.661,2.661,0,0,1-1.063.207,1.4,1.4,0,0,1-1.458-1.824,2.247,2.247,0,0,1,2.255-1.9,1.947,1.947,0,0,1,.869.185l-.236.5a1.334,1.334,0,0,0-.723-.17,1.531,1.531,0,0,0-1.5,1.352c-.146.827.3,1.337,1.005,1.337a2.067,2.067,0,0,0,.829-.177Z" transform="translate(-2779.098 -10589.906)"/>
    <path id="Trazado_895636" data-name="Trazado 895636" d="M237.8,1805.269a2.162,2.162,0,0,1-2.115,1.9,1.4,1.4,0,0,1-1.389-1.839,2.161,2.161,0,0,1,2.107-1.9,1.394,1.394,0,0,1,1.4,1.839m-2.843.037c-.138.783.208,1.374.844,1.374a1.525,1.525,0,0,0,1.331-1.389c.107-.605-.061-1.374-.829-1.374a1.5,1.5,0,0,0-1.345,1.389" transform="translate(-2826.768 -10589.8)"/>
    <path id="Trazado_895637" data-name="Trazado 895637" d="M301.04,1805.269a2.162,2.162,0,0,1-2.115,1.9,1.4,1.4,0,0,1-1.389-1.839,2.161,2.161,0,0,1,2.107-1.9,1.394,1.394,0,0,1,1.4,1.839m-2.843.037c-.138.783.208,1.374.844,1.374a1.525,1.525,0,0,0,1.331-1.389c.107-.605-.061-1.374-.829-1.374a1.5,1.5,0,0,0-1.345,1.389" transform="translate(-2885.957 -10589.8)"/>
    <path id="Trazado_895638" data-name="Trazado 895638" d="M357.181,1804.678c.081-.458.131-.827.176-1.167h.583l-.079.613h.015a1.716,1.716,0,0,1,1.393-.694c.864,0,1.385.731,1.194,1.817a2.1,2.1,0,0,1-1.964,1.92,1.026,1.026,0,0,1-1-.561h-.015l-.342,1.942H356.5Zm.475.953a1.446,1.446,0,0,0-.017.266.807.807,0,0,0,.841.761c.687,0,1.185-.561,1.329-1.381.126-.717-.142-1.33-.829-1.33a1.3,1.3,0,0,0-1.124.805,1.192,1.192,0,0,0-.091.266Z" transform="translate(-2941.175 -10589.8)"/>
    <path id="Trazado_895639" data-name="Trazado 895639" d="M1127.25,1785.615a1.979,1.979,0,0,0,1.095.325,1.1,1.1,0,0,0,1.191-.849c.082-.465-.137-.731-.764-.99-.762-.288-1.19-.709-1.066-1.411a1.769,1.769,0,0,1,1.849-1.352,2.011,2.011,0,0,1,1.057.244l-.27.524a1.738,1.738,0,0,0-.9-.236.992.992,0,0,0-1.069.746c-.082.465.18.694.82.96.785.325,1.141.731,1.012,1.462a1.849,1.849,0,0,1-2,1.433,2.263,2.263,0,0,1-1.214-.318Z" transform="translate(-3662.267 -10569.124)"/>
    <path id="Trazado_895640" data-name="Trazado 895640" d="M1190.033,1806.328h-.015a1.556,1.556,0,0,1-1.279.635c-.835,0-1.386-.724-1.2-1.81a2.123,2.123,0,0,1,1.957-1.927.954.954,0,0,1,.991.62h.015l.117-.539h.613c-.068.3-.13.613-.2.982l-.715,4.055h-.65Zm.277-1.573a1.093,1.093,0,0,0,.019-.273.765.765,0,0,0-.8-.739c-.672,0-1.179.569-1.321,1.374-.125.709.105,1.33.822,1.33a1.206,1.206,0,0,0,1.056-.709,1.244,1.244,0,0,0,.107-.31Z" transform="translate(-3718.9 -10589.608)"/>
    <path id="Trazado_895641" data-name="Trazado 895641" d="M1258.222,1807.092c-.065.369-.115.694-.142.975h-.576l.066-.583h-.015a1.656,1.656,0,0,1-1.3.665c-.561,0-1.179-.31-.957-1.566l.369-2.09h.65l-.349,1.979c-.12.68.006,1.138.6,1.138a1.171,1.171,0,0,0,.961-.591,1.09,1.09,0,0,0,.118-.333l.387-2.194h.65Z" transform="translate(-3782.303 -10590.793)"/>
    <path id="Trazado_895642" data-name="Trazado 895642" d="M1315.782,1806.881l.028-.451h-.022a1.615,1.615,0,0,1-1.187.532.836.836,0,0,1-.912-1.027c.152-.864,1-1.337,2.384-1.33l.013-.074c.052-.3.065-.827-.667-.827a2.039,2.039,0,0,0-.978.266l-.072-.428a2.524,2.524,0,0,1,1.23-.318c1.093,0,1.227.746,1.1,1.462l-.236,1.337a5.085,5.085,0,0,0-.092.857Zm.226-1.824c-.707-.015-1.534.111-1.656.805a.474.474,0,0,0,.5.62,1.106,1.106,0,0,0,.97-.6.77.77,0,0,0,.073-.207Z" transform="translate(-3836.976 -10589.607)"/>
    <path id="Trazado_895643" data-name="Trazado 895643" d="M1371.668,1804.423c.074-.421.131-.783.167-1.115h.569l-.1.7h.03a1.341,1.341,0,0,1,1.128-.783.655.655,0,0,1,.181.022l-.108.613a.918.918,0,0,0-.218-.022,1.141,1.141,0,0,0-1.019.835,2.023,2.023,0,0,0-.083.3l-.336,1.906h-.643Z" transform="translate(-3890.848 -10589.608)"/>
    <path id="Trazado_895644" data-name="Trazado 895644" d="M1408.529,1805.212a.945.945,0,0,0,1.007,1.241,2.593,2.593,0,0,0,1.022-.185l.029.465a3.193,3.193,0,0,1-1.228.222,1.37,1.37,0,0,1-1.44-1.8,2.151,2.151,0,0,1,2.016-1.928c1.167,0,1.3,1.027,1.18,1.684a2.685,2.685,0,0,1-.075.3Zm1.988-.465c.08-.414.016-1.056-.715-1.056a1.348,1.348,0,0,0-1.183,1.056Z" transform="translate(-3925.145 -10589.607)"/>
    <path id="Trazado_895645" data-name="Trazado 895645" d="M2024.412,1785.195c-.641-.177-1.263-.377-1.8-.576a.846.846,0,0,0-.29-.074c-1.174-.044-2.032-.916-1.75-2.519a2.924,2.924,0,0,1,2.781-2.622c1.352,0,2.046,1.049,1.786,2.519a2.885,2.885,0,0,1-1.839,2.386l-.005.03c.473.125.991.244,1.4.318Zm.04-3.243c.176-1-.16-2.024-1.216-2.024a2.227,2.227,0,0,0-1.978,2.083c-.194,1.056.222,2.009,1.226,2.009a2.217,2.217,0,0,0,1.968-2.068" transform="translate(-4498.499 -10567.313)"/>
    <path id="Trazado_895646" data-name="Trazado 895646" d="M2104.624,1805.158c-.065.369-.115.695-.142.975h-.576l.066-.583h-.015a1.656,1.656,0,0,1-1.3.665c-.562,0-1.179-.31-.957-1.566l.368-2.09h.65l-.349,1.979c-.12.679.006,1.138.6,1.138a1.172,1.172,0,0,0,.961-.591,1.083,1.083,0,0,0,.117-.332l.387-2.194h.65Z" transform="translate(-4574.436 -10588.983)"/>
    <path id="Trazado_895647" data-name="Trazado 895647" d="M2162.887,1803.278a.945.945,0,0,0,1.007,1.241,2.588,2.588,0,0,0,1.022-.185l.029.465a3.191,3.191,0,0,1-1.228.222,1.37,1.37,0,0,1-1.44-1.8,2.151,2.151,0,0,1,2.017-1.928c1.167,0,1.3,1.027,1.18,1.684a2.626,2.626,0,0,1-.075.3Zm1.988-.465c.08-.414.016-1.056-.715-1.056a1.349,1.349,0,0,0-1.183,1.056Z" transform="translate(-4631.136 -10587.798)"/>
    <path id="Trazado_895648" data-name="Trazado 895648" d="M2220.6,1803.278a.945.945,0,0,0,1.007,1.241,2.586,2.586,0,0,0,1.022-.185l.029.465a3.2,3.2,0,0,1-1.229.222,1.37,1.37,0,0,1-1.44-1.8,2.151,2.151,0,0,1,2.016-1.928c1.167,0,1.3,1.027,1.181,1.684a2.668,2.668,0,0,1-.076.3Zm1.988-.465c.08-.414.016-1.056-.715-1.056a1.349,1.349,0,0,0-1.184,1.056Z" transform="translate(-4685.15 -10587.798)"/>
    <path id="Trazado_895649" data-name="Trazado 895649" d="M2278,1802.341c.065-.369.111-.672.141-.968h.576l-.067.591h.015a1.617,1.617,0,0,1,1.3-.672c.5,0,1.211.3.995,1.522l-.376,2.135h-.65l.364-2.061c.1-.576-.028-1.056-.641-1.056a1.154,1.154,0,0,0-.989.665,1.076,1.076,0,0,0-.1.3l-.379,2.149h-.65Z" transform="translate(-4739.044 -10587.799)"/>
    <path id="Trazado_895650" data-name="Trazado 895650" d="M2361.824,1784.083l-.793,1.566h-.665l2.569-4.978h.775l.821,4.978h-.687l-.256-1.566Zm1.721-.5-.235-1.433c-.053-.325-.075-.621-.1-.909h-.015c-.126.3-.26.6-.41.9l-.741,1.44Z" transform="translate(-4816.56 -10568.5)"/>
    <path id="Trazado_895651" data-name="Trazado 895651" d="M2436.514,1802.341c.065-.369.111-.672.141-.968h.576l-.067.591h.015a1.617,1.617,0,0,1,1.3-.672c.495,0,1.211.3.995,1.522l-.376,2.135h-.65l.363-2.061c.1-.576-.028-1.056-.641-1.056a1.154,1.154,0,0,0-.989.665,1.06,1.06,0,0,0-.1.3l-.379,2.149h-.65Z" transform="translate(-4887.395 -10587.799)"/>
    <path id="Trazado_895652" data-name="Trazado 895652" d="M2500.449,1802.341c.065-.369.111-.672.141-.968h.576l-.067.591h.015a1.616,1.616,0,0,1,1.3-.672c.495,0,1.211.3.995,1.522l-.376,2.135h-.65l.364-2.061c.1-.576-.028-1.056-.641-1.056a1.153,1.153,0,0,0-.989.665,1.045,1.045,0,0,0-.1.3l-.379,2.149h-.65Z" transform="translate(-4947.23 -10587.799)"/>
    <path id="Trazado_895653" data-name="Trazado 895653" d="M2564.7,1803.278a.945.945,0,0,0,1.007,1.241,2.588,2.588,0,0,0,1.022-.185l.029.465a3.19,3.19,0,0,1-1.228.222,1.37,1.37,0,0,1-1.44-1.8,2.152,2.152,0,0,1,2.017-1.928c1.167,0,1.3,1.027,1.18,1.684a2.626,2.626,0,0,1-.075.3Zm1.988-.465c.081-.414.017-1.056-.715-1.056a1.349,1.349,0,0,0-1.184,1.056Z" transform="translate(-5007.186 -10587.798)"/>
    <path id="Trazado_895654" data-name="Trazado 895654" d="M3062.394,1786.229l-.367,2.083h2.408l.367-2.083h.65l-.878,4.978h-.65l.412-2.334h-2.408l-.412,2.334h-.643l.878-4.978Z" transform="translate(-5472.153 -10573.701)"/>
    <path id="Trazado_895655" data-name="Trazado 895655" d="M3135.71,1810.506l.028-.45h-.022a1.615,1.615,0,0,1-1.187.532.836.836,0,0,1-.912-1.027c.152-.864,1-1.337,2.384-1.33l.013-.074c.052-.3.065-.827-.667-.827a2.035,2.035,0,0,0-.977.266l-.072-.428a2.524,2.524,0,0,1,1.23-.318c1.093,0,1.228.746,1.1,1.463l-.236,1.337a5.1,5.1,0,0,0-.092.857Zm.226-1.824c-.707-.015-1.534.111-1.656.805a.475.475,0,0,0,.5.62,1.106,1.106,0,0,0,.97-.6.773.773,0,0,0,.073-.207Z" transform="translate(-5540.217 -10593)"/>
    <path id="Trazado_895656" data-name="Trazado 895656" d="M3192.088,1782.082h.65l-.925,5.244h-.65Z" transform="translate(-5594.089 -10569.82)"/>
    <path id="Trazado_895657" data-name="Trazado 895657" d="M3221.941,1792.1l-.181,1.027h.931l-.087.5h-.931l-.34,1.927c-.078.443,0,.694.365.694a1.555,1.555,0,0,0,.385-.044l-.056.488a1.734,1.734,0,0,1-.592.088.756.756,0,0,1-.654-.273,1.2,1.2,0,0,1-.087-.931l.344-1.95h-.554l.087-.5h.554l.151-.857Z" transform="translate(-5621.529 -10579.199)"/>
    <path id="Trazado_895658" data-name="Trazado 895658" d="M3256.566,1808.837a.945.945,0,0,0,1.007,1.241,2.59,2.59,0,0,0,1.022-.185l.029.465a3.2,3.2,0,0,1-1.228.221,1.37,1.37,0,0,1-1.44-1.8,2.151,2.151,0,0,1,2.016-1.928c1.167,0,1.3,1.027,1.18,1.684a2.64,2.64,0,0,1-.075.3Zm1.988-.465c.081-.414.017-1.056-.715-1.056a1.348,1.348,0,0,0-1.183,1.056Z" transform="translate(-5654.692 -10593)"/>
    <path id="Trazado_895659" data-name="Trazado 895659" d="M3313.938,1808.047c.074-.421.131-.783.167-1.115h.569l-.1.7h.03a1.341,1.341,0,0,1,1.127-.783.669.669,0,0,1,.181.022l-.108.613a.931.931,0,0,0-.218-.022,1.141,1.141,0,0,0-1.019.835,1.973,1.973,0,0,0-.083.3l-.336,1.906h-.643Z" transform="translate(-5708.585 -10593)"/>
    <path id="Trazado_895660" data-name="Trazado 895660" d="M3372.395,1809.841a1.468,1.468,0,0,0,.811.259c.473,0,.736-.236.788-.532s-.1-.48-.549-.657c-.6-.229-.843-.583-.767-1.012a1.362,1.362,0,0,1,1.418-1.049,1.569,1.569,0,0,1,.84.222l-.246.473a1.2,1.2,0,0,0-.695-.207.643.643,0,0,0-.684.488c-.052.3.139.428.573.606.579.236.842.547.748,1.078a1.4,1.4,0,0,1-1.526,1.071,1.8,1.8,0,0,1-.962-.244Z" transform="translate(-5763.467 -10593)"/>
    <path id="Trazado_895661" data-name="Trazado 895661" d="M3424.8,1792.1l-.181,1.027h.931l-.087.5h-.931l-.34,1.927c-.078.443,0,.694.365.694a1.552,1.552,0,0,0,.385-.044l-.056.488a1.733,1.733,0,0,1-.592.088.756.756,0,0,1-.654-.273,1.2,1.2,0,0,1-.087-.931l.344-1.95h-.554l.087-.5h.554l.151-.857Z" transform="translate(-5811.386 -10579.199)"/>
    <path id="Trazado_895662" data-name="Trazado 895662" d="M3459.778,1808.047c.074-.421.131-.783.167-1.115h.569l-.1.7h.03a1.341,1.341,0,0,1,1.127-.783.666.666,0,0,1,.181.022l-.108.613a.934.934,0,0,0-.218-.022,1.14,1.14,0,0,0-1.019.835,2.03,2.03,0,0,0-.083.3l-.336,1.906h-.643Z" transform="translate(-5845.075 -10593)"/>
    <path id="Trazado_895663" data-name="Trazado 895663" d="M3496.512,1810.506l.028-.45h-.022a1.616,1.616,0,0,1-1.187.532.836.836,0,0,1-.912-1.027c.152-.864,1-1.337,2.384-1.33l.013-.074c.052-.3.065-.827-.667-.827a2.036,2.036,0,0,0-.978.266l-.072-.428a2.525,2.525,0,0,1,1.23-.318c1.093,0,1.227.746,1.1,1.463l-.236,1.337a5.12,5.12,0,0,0-.092.857Zm.226-1.824c-.707-.015-1.534.111-1.656.805a.475.475,0,0,0,.5.62,1.105,1.105,0,0,0,.969-.6.773.773,0,0,0,.073-.207Z" transform="translate(-5877.885 -10593)"/>
    <path id="Trazado_895664" data-name="Trazado 895664" d="M3548.627,1808.1c.081-.458.131-.827.176-1.167h.584l-.079.613h.015a1.716,1.716,0,0,1,1.393-.694c.864,0,1.385.731,1.194,1.817a2.1,2.1,0,0,1-1.964,1.92,1.026,1.026,0,0,1-1-.562h-.015l-.343,1.943h-.643Zm.475.953a1.408,1.408,0,0,0-.018.266.808.808,0,0,0,.841.761c.687,0,1.184-.561,1.329-1.381.126-.717-.142-1.33-.83-1.33a1.3,1.3,0,0,0-1.124.805,1.2,1.2,0,0,0-.091.266Z" transform="translate(-5927.994 -10593)"/>
    <path id="Trazado_895665" data-name="Trazado 895665" d="M3993.467,1789.477a1.979,1.979,0,0,0,1.095.325,1.1,1.1,0,0,0,1.191-.849c.082-.465-.137-.731-.764-.99-.762-.288-1.189-.709-1.066-1.411a1.77,1.77,0,0,1,1.849-1.352,2.009,2.009,0,0,1,1.058.244l-.27.524a1.737,1.737,0,0,0-.9-.237.992.992,0,0,0-1.07.746c-.082.465.18.694.82.96.785.325,1.142.731,1.013,1.462a1.849,1.849,0,0,1-2,1.433,2.261,2.261,0,0,1-1.214-.317Z" transform="translate(-6344.71 -10572.738)"/>
    <path id="Trazado_895666" data-name="Trazado 895666" d="M4049.563,1808.336c.081-.458.131-.827.176-1.167h.583l-.079.613h.015a1.717,1.717,0,0,1,1.393-.694c.864,0,1.385.731,1.194,1.817a2.1,2.1,0,0,1-1.964,1.92,1.026,1.026,0,0,1-1-.562h-.015l-.343,1.943h-.643Zm.475.953a1.471,1.471,0,0,0-.018.266.807.807,0,0,0,.841.761c.687,0,1.185-.562,1.33-1.381.126-.717-.143-1.33-.829-1.33a1.3,1.3,0,0,0-1.125.805,1.189,1.189,0,0,0-.091.266Z" transform="translate(-6396.812 -10593.223)"/>
    <path id="Trazado_895667" data-name="Trazado 895667" d="M4118.521,1810.744l.028-.451h-.022a1.614,1.614,0,0,1-1.187.532.836.836,0,0,1-.912-1.027c.152-.864,1-1.337,2.384-1.329l.013-.074c.052-.3.065-.827-.666-.827a2.034,2.034,0,0,0-.978.266l-.072-.428a2.526,2.526,0,0,1,1.23-.318c1.093,0,1.228.746,1.1,1.463l-.235,1.337a5.017,5.017,0,0,0-.092.857Zm.226-1.824c-.707-.015-1.534.111-1.656.805a.474.474,0,0,0,.5.62,1.106,1.106,0,0,0,.97-.6.763.763,0,0,0,.073-.207Z" transform="translate(-6460.013 -10593.223)"/>
    <path id="Trazado_895668" data-name="Trazado 895668" d="M4175.228,1807.169c-.06.259-.126.546-.2.982l-.366,2.075a2.46,2.46,0,0,1-.8,1.632,2.2,2.2,0,0,1-1.376.428,2.031,2.031,0,0,1-1.137-.3l.249-.495a1.758,1.758,0,0,0,1,.281,1.32,1.32,0,0,0,1.371-1.248l.071-.4h-.015a1.557,1.557,0,0,1-1.243.6c-.886,0-1.389-.753-1.215-1.743a2.132,2.132,0,0,1,1.945-1.9.965.965,0,0,1,1.006.621h.015l.125-.539Zm-.921,1.411a.914.914,0,0,0,.016-.3.754.754,0,0,0-.788-.687,1.443,1.443,0,0,0-1.3,1.352c-.123.7.128,1.285.83,1.285a1.184,1.184,0,0,0,1.019-.665,1.263,1.263,0,0,0,.112-.347Z" transform="translate(-6511.429 -10593.223)"/>
    <path id="Trazado_895669" data-name="Trazado 895669" d="M4239.3,1782.32h.649l-.393,2.231h.015a1.559,1.559,0,0,1,.546-.458,1.524,1.524,0,0,1,.7-.185c.48,0,1.2.3.979,1.529l-.375,2.127h-.649l.361-2.053c.1-.576-.026-1.063-.64-1.063a1.164,1.164,0,0,0-.985.65.889.889,0,0,0-.1.31l-.38,2.157h-.65Z" transform="translate(-6574.153 -10570.043)"/>
    <path id="Trazado_895670" data-name="Trazado 895670" d="M4303.083,1809.075a.945.945,0,0,0,1.007,1.241,2.6,2.6,0,0,0,1.022-.185l.028.465a3.189,3.189,0,0,1-1.228.222,1.37,1.37,0,0,1-1.44-1.8,2.151,2.151,0,0,1,2.017-1.928c1.167,0,1.3,1.027,1.18,1.684a2.662,2.662,0,0,1-.076.3Zm1.988-.465c.08-.414.016-1.056-.715-1.056a1.347,1.347,0,0,0-1.183,1.056Z" transform="translate(-6634.109 -10593.223)"/>
    <path id="Trazado_895671" data-name="Trazado 895671" d="M4363.612,1792.342l-.181,1.026h.931l-.087.5h-.931l-.34,1.928c-.078.443,0,.694.365.694a1.551,1.551,0,0,0,.384-.044l-.056.487a1.727,1.727,0,0,1-.592.089.757.757,0,0,1-.654-.273,1.2,1.2,0,0,1-.087-.931l.344-1.95h-.554l.087-.5h.554l.151-.857Z" transform="translate(-6690 -10579.423)"/>
    <path id="Trazado_895672" data-name="Trazado 895672" d="M4401.744,1792.342l-.181,1.026h.931l-.088.5h-.93l-.34,1.928c-.078.443,0,.694.365.694a1.545,1.545,0,0,0,.384-.044l-.056.487a1.724,1.724,0,0,1-.591.089.757.757,0,0,1-.654-.273,1.2,1.2,0,0,1-.087-.931l.344-1.95h-.554l.087-.5h.554l.151-.857Z" transform="translate(-6725.687 -10579.423)"/>
    <path id="Trazado_895673" data-name="Trazado 895673" d="M4437.813,1786.759a.474.474,0,0,1-.484.4.317.317,0,0,1-.321-.4.492.492,0,0,1,.479-.406.317.317,0,0,1,.327.406m-1.531,4.579.63-3.575h.65l-.63,3.575Z" transform="translate(-6759.375 -10573.816)"/>
    <path id="Trazado_895674" data-name="Trazado 895674" d="M4484.458,1810.079a1.469,1.469,0,0,0,.812.259c.473,0,.736-.236.788-.532s-.1-.48-.549-.657c-.6-.229-.842-.583-.767-1.012a1.362,1.362,0,0,1,1.418-1.049,1.567,1.567,0,0,1,.84.222l-.245.473a1.208,1.208,0,0,0-.7-.207.643.643,0,0,0-.684.488c-.052.3.139.428.572.606.579.236.842.546.748,1.078a1.4,1.4,0,0,1-1.525,1.071,1.8,1.8,0,0,1-.961-.244Z" transform="translate(-6804.229 -10593.223)"/>
    <path id="Trazado_895675" data-name="Trazado 895675" d="M4536.869,1792.342l-.181,1.026h.931l-.087.5h-.931l-.34,1.928c-.078.443,0,.694.365.694a1.551,1.551,0,0,0,.384-.044l-.056.487a1.728,1.728,0,0,1-.592.089.757.757,0,0,1-.653-.273,1.2,1.2,0,0,1-.087-.931l.344-1.95h-.554l.087-.5h.554l.151-.857Z" transform="translate(-6852.148 -10579.423)"/>
    <path id="Trazado_895676" data-name="Trazado 895676" d="M4571.843,1808.285c.074-.421.131-.783.167-1.115h.569l-.1.7h.029a1.342,1.342,0,0,1,1.127-.783.664.664,0,0,1,.181.022l-.108.613a.934.934,0,0,0-.218-.022,1.141,1.141,0,0,0-1.019.835,1.967,1.967,0,0,0-.083.3l-.336,1.906h-.643Z" transform="translate(-6885.838 -10593.223)"/>
    <path id="Trazado_895677" data-name="Trazado 895677" d="M4608.577,1810.744l.028-.451h-.022a1.613,1.613,0,0,1-1.187.532.836.836,0,0,1-.912-1.027c.152-.864,1-1.337,2.383-1.329l.014-.074c.052-.3.064-.827-.667-.827a2.036,2.036,0,0,0-.978.266l-.072-.428a2.529,2.529,0,0,1,1.23-.318c1.094,0,1.228.746,1.1,1.463l-.236,1.337a5.072,5.072,0,0,0-.092.857Zm.226-1.824c-.706-.015-1.534.111-1.656.805a.475.475,0,0,0,.5.62,1.107,1.107,0,0,0,.97-.6.763.763,0,0,0,.073-.207Z" transform="translate(-6918.648 -10593.223)"/>
    <path id="Trazado_895678" data-name="Trazado 895678" d="M4660.69,1808.336c.08-.458.131-.827.176-1.167h.583l-.078.613h.014a1.717,1.717,0,0,1,1.393-.694c.864,0,1.385.731,1.194,1.817a2.1,2.1,0,0,1-1.963,1.92,1.026,1.026,0,0,1-1-.562h-.015l-.343,1.943h-.642Zm.474.953a1.468,1.468,0,0,0-.017.266.807.807,0,0,0,.841.761c.687,0,1.185-.562,1.329-1.381.126-.717-.143-1.33-.829-1.33a1.3,1.3,0,0,0-1.124.805,1.165,1.165,0,0,0-.091.266Z" transform="translate(-6968.755 -10593.223)"/>
    <path id="Trazado_895679" data-name="Trazado 895679" d="M5210.521,1782.225a5.1,5.1,0,0,1-1.578.273,2.175,2.175,0,0,1-1.745-.657,2.235,2.235,0,0,1-.367-1.854,3.087,3.087,0,0,1,3.149-2.571,2.774,2.774,0,0,1,1.2.229l-.247.524a2.326,2.326,0,0,0-1.063-.214,2.3,2.3,0,0,0-2.354,2c-.224,1.263.406,2.009,1.565,2.009a2.276,2.276,0,0,0,.88-.133l.263-1.484h-1.013l.092-.517h1.64Z" transform="translate(-7480.47 -10565.454)"/>
    <path id="Trazado_895680" data-name="Trazado 895680" d="M5279.915,1800.041c.074-.421.13-.783.167-1.115h.568l-.1.7h.03a1.342,1.342,0,0,1,1.128-.783.663.663,0,0,1,.181.022l-.108.613a.915.915,0,0,0-.217-.022,1.14,1.14,0,0,0-1.019.834,2.08,2.08,0,0,0-.083.3l-.336,1.906h-.642Z" transform="translate(-7548.51 -10585.508)"/>
    <path id="Trazado_895681" data-name="Trazado 895681" d="M5316.776,1800.831a.945.945,0,0,0,1.007,1.241,2.593,2.593,0,0,0,1.022-.185l.029.465a3.2,3.2,0,0,1-1.229.222,1.37,1.37,0,0,1-1.44-1.8,2.152,2.152,0,0,1,2.017-1.928c1.167,0,1.3,1.027,1.18,1.684a2.567,2.567,0,0,1-.076.3Zm1.988-.466c.08-.414.016-1.056-.715-1.056a1.348,1.348,0,0,0-1.183,1.056Z" transform="translate(-7582.807 -10585.508)"/>
    <path id="Trazado_895682" data-name="Trazado 895682" d="M5376.479,1802.474a2.662,2.662,0,0,1-1.063.207,1.4,1.4,0,0,1-1.458-1.824,2.247,2.247,0,0,1,2.255-1.9,1.954,1.954,0,0,1,.869.184l-.236.5a1.338,1.338,0,0,0-.724-.17,1.531,1.531,0,0,0-1.5,1.352c-.146.827.3,1.337,1.006,1.337a2.069,2.069,0,0,0,.829-.177Z" transform="translate(-7636.895 -10585.614)"/>
    <path id="Trazado_895683" data-name="Trazado 895683" d="M5426.855,1778.514a.474.474,0,0,1-.484.4.316.316,0,0,1-.321-.4.491.491,0,0,1,.478-.406.317.317,0,0,1,.328.406m-1.532,4.579.63-3.575h.65l-.63,3.575Z" transform="translate(-7685.001 -10566.102)"/>
    <path id="Trazado_895684" data-name="Trazado 895684" d="M5452.352,1802.5l.028-.451h-.022a1.615,1.615,0,0,1-1.187.532.836.836,0,0,1-.912-1.026c.153-.864,1-1.337,2.384-1.33l.013-.074c.052-.3.064-.827-.667-.827a2.036,2.036,0,0,0-.977.266l-.073-.428a2.529,2.529,0,0,1,1.23-.317c1.093,0,1.228.746,1.1,1.462l-.236,1.337a5.12,5.12,0,0,0-.092.857Zm.226-1.824c-.706-.015-1.534.111-1.656.805a.474.474,0,0,0,.5.62,1.106,1.106,0,0,0,.97-.6.776.776,0,0,0,.073-.207Z" transform="translate(-7708.323 -10585.508)"/>
    <path id="Trazado_895685" data-name="Trazado 895685" d="M5508.266,1799.893c.065-.369.111-.672.142-.968h.576l-.067.591h.015a1.618,1.618,0,0,1,1.3-.672c.495,0,1.211.3.995,1.521l-.376,2.135h-.65l.363-2.061c.1-.576-.027-1.056-.64-1.056a1.153,1.153,0,0,0-.989.665,1.045,1.045,0,0,0-.1.3l-.379,2.149h-.65Z" transform="translate(-7762.196 -10585.508)"/>
    <path id="Trazado_895588" data-name="Trazado 895588" d="M35.875,2058.336a26.5,26.5,0,0,1-2.268-13.3,25.591,25.591,0,0,1,1.515-7.136.144.144,0,0,0-.185-.191c-4.481,1.751-10.385,3.772-16.311,3.858a.144.144,0,0,0-.119.223l1.674,2.554a4.1,4.1,0,0,1,.413,4.1,2.844,2.844,0,0,1-2.65,1.449,2.844,2.844,0,0,1-2.65-1.449,4.1,4.1,0,0,1,.413-4.1l1.674-2.554a.144.144,0,0,0-.119-.223c-3.113-.045-7.781-.525-16.311-3.858a.144.144,0,0,0-.185.191,26.463,26.463,0,0,1,1.6,9.407,26.183,26.183,0,0,1-2.358,11.029.144.144,0,0,0-.006.1l5.273,16.635a.342.342,0,0,0,.278.235.145.145,0,0,0,.031,0H30.282a.342.342,0,0,0,.327-.239l5.273-16.635a.144.144,0,0,0-.006-.1" transform="translate(-2479.458 -10760.497)"/>
    <path id="Trazado_895589" data-name="Trazado 895589" d="M1057.787,2068.7a24.636,24.636,0,0,1-2.312-12.123,24.184,24.184,0,0,1,1.483-6.779c.029-.081.056-.155.079-.221a.144.144,0,0,0-.12-.191l-5.542-.612a.144.144,0,0,0-.16.13,20.793,20.793,0,0,1-4.3,9.845,23.306,23.306,0,0,1-8.729,6.779,38.516,38.516,0,0,1-16.132,3.087.144.144,0,0,0-.137.188l5.274,16.635a.341.341,0,0,0,.326.239h24.674a.342.342,0,0,0,.327-.239l5.273-16.635a.144.144,0,0,0-.006-.1" transform="translate(-3435.847 -10770.863)"/>
    <path id="Trazado_895686" data-name="Trazado 895686" d="M71.8,2734.778h.643l-.423,2.4h.022c.167-.192.331-.369.485-.532l1.851-1.868h.8L73,2736.891l1.437,2.866h-.761l-1.209-2.445-.569.546-.335,1.9h-.643Z" transform="translate(-2545.829 -11412.882)"/>
    <path id="Trazado_895687" data-name="Trazado 895687" d="M133.787,2757.385a.945.945,0,0,0,1.007,1.241,2.593,2.593,0,0,0,1.022-.185l.029.465a3.193,3.193,0,0,1-1.228.222,1.37,1.37,0,0,1-1.44-1.8,2.151,2.151,0,0,1,2.017-1.928c1.167,0,1.3,1.026,1.18,1.684a2.638,2.638,0,0,1-.076.3Zm1.988-.465c.08-.414.016-1.056-.715-1.056a1.348,1.348,0,0,0-1.183,1.056Z" transform="translate(-2604.06 -11432.18)"/>
    <path id="Trazado_895688" data-name="Trazado 895688" d="M184.808,2756.665l.41,2.112c.04.236.079.517.1.731h.015c.1-.214.226-.488.361-.746l1.079-2.1h.687l-1.424,2.548a6.907,6.907,0,0,1-1.621,2.238,2.152,2.152,0,0,1-.872.421l-.066-.546a2.137,2.137,0,0,0,.625-.317,2.55,2.55,0,0,0,.674-.724.561.561,0,0,0,.079-.155.522.522,0,0,0-.014-.17l-.741-3.294Z" transform="translate(-2651.17 -11433.365)"/>
    <path id="Trazado_895689" data-name="Trazado 895689" d="M245.909,2730.63h.65l-.393,2.23h.015a1.561,1.561,0,0,1,.546-.458,1.528,1.528,0,0,1,.7-.184c.48,0,1.2.3.979,1.529l-.375,2.127h-.65l.362-2.053c.1-.576-.027-1.063-.64-1.063a1.166,1.166,0,0,0-.986.65.879.879,0,0,0-.1.31l-.38,2.157h-.65Z" transform="translate(-2708.733 -11408.999)"/>
    <path id="Trazado_895690" data-name="Trazado 895690" d="M312.683,2757.237a2.161,2.161,0,0,1-2.115,1.9,1.4,1.4,0,0,1-1.389-1.839,2.161,2.161,0,0,1,2.107-1.9,1.394,1.394,0,0,1,1.4,1.839m-2.843.037c-.138.783.208,1.374.844,1.374a1.525,1.525,0,0,0,1.331-1.389c.107-.606-.061-1.374-.829-1.374a1.5,1.5,0,0,0-1.345,1.388" transform="translate(-2768.778 -11432.18)"/>
    <path id="Trazado_895691" data-name="Trazado 895691" d="M373.088,2730.63h.65l-.925,5.244h-.65Z" transform="translate(-2827.758 -11409)"/>
    <path id="Trazado_895692" data-name="Trazado 895692" d="M400.126,2757.385a.945.945,0,0,0,1.007,1.241,2.593,2.593,0,0,0,1.022-.185l.029.465a3.193,3.193,0,0,1-1.228.222,1.37,1.37,0,0,1-1.44-1.8,2.151,2.151,0,0,1,2.017-1.928c1.167,0,1.3,1.026,1.18,1.684a2.638,2.638,0,0,1-.076.3Zm1.988-.465c.08-.414.016-1.056-.715-1.056a1.349,1.349,0,0,0-1.183,1.056Z" transform="translate(-2853.322 -11432.18)"/>
    <path id="Trazado_895693" data-name="Trazado 895693" d="M997.654,2734.159l-.793,1.566H996.2l2.569-4.979h.776l.821,4.979h-.687l-.256-1.566Zm1.721-.5-.235-1.433c-.054-.325-.075-.62-.1-.908h-.015c-.126.3-.261.6-.41.9l-.742,1.44Z" transform="translate(-3411.78 -11409.108)"/>
    <path id="Trazado_895694" data-name="Trazado 895694" d="M1068.338,2754.357a1.466,1.466,0,0,0,.811.259c.473,0,.736-.236.788-.531.055-.311-.1-.48-.549-.657-.6-.229-.842-.583-.767-1.012a1.362,1.362,0,0,1,1.418-1.049,1.569,1.569,0,0,1,.84.221l-.246.473a1.2,1.2,0,0,0-.695-.207.643.643,0,0,0-.684.487c-.052.3.139.428.573.606.579.236.842.546.748,1.078a1.4,1.4,0,0,1-1.526,1.071,1.8,1.8,0,0,1-.961-.244Z" transform="translate(-3479.063 -11428.406)"/>
    <path id="Trazado_895695" data-name="Trazado 895695" d="M1111.24,2752.633l.41,2.112c.04.236.079.517.1.731h.015c.1-.214.226-.488.361-.746l1.079-2.1h.687l-1.424,2.548a6.905,6.905,0,0,1-1.621,2.238,2.158,2.158,0,0,1-.872.421l-.066-.547a2.136,2.136,0,0,0,.625-.317,2.555,2.555,0,0,0,.674-.724.554.554,0,0,0,.079-.155.519.519,0,0,0-.014-.17l-.741-3.294Z" transform="translate(-3518.201 -11429.592)"/>
    <path id="Trazado_895696" data-name="Trazado 895696" d="M1171.875,2752.415c.065-.369.111-.672.141-.968h.569l-.072.576h.022a1.517,1.517,0,0,1,1.239-.657.85.85,0,0,1,.885.716h.015a1.913,1.913,0,0,1,.481-.465,1.41,1.41,0,0,1,.835-.251c.473,0,1.12.31.9,1.551l-.371,2.105h-.635l.357-2.024c.121-.687-.057-1.1-.581-1.1a1.053,1.053,0,0,0-.872.591,1.206,1.206,0,0,0-.109.325l-.389,2.208h-.635l.378-2.142c.1-.569-.078-.982-.573-.982a1.115,1.115,0,0,0-.92.65,1.011,1.011,0,0,0-.108.318l-.38,2.157h-.635Z" transform="translate(-3575.765 -11428.406)"/>
    <path id="Trazado_895697" data-name="Trazado 895697" d="M1267.952,2752.415c.065-.369.111-.672.141-.968h.569l-.072.576h.022a1.517,1.517,0,0,1,1.239-.657.851.851,0,0,1,.886.716h.015a1.911,1.911,0,0,1,.481-.465,1.409,1.409,0,0,1,.835-.251c.473,0,1.12.31.9,1.551l-.371,2.105h-.635l.357-2.024c.121-.687-.057-1.1-.582-1.1a1.053,1.053,0,0,0-.872.591,1.2,1.2,0,0,0-.109.325l-.39,2.208h-.635l.378-2.142c.1-.569-.078-.982-.573-.982a1.115,1.115,0,0,0-.92.65,1.014,1.014,0,0,0-.108.318l-.38,2.157h-.635Z" transform="translate(-3665.681 -11428.406)"/>
    <path id="Trazado_895698" data-name="Trazado 895698" d="M1364.345,2753.353a.945.945,0,0,0,1.007,1.241,2.592,2.592,0,0,0,1.022-.184l.029.465a3.192,3.192,0,0,1-1.228.222,1.37,1.37,0,0,1-1.44-1.8,2.151,2.151,0,0,1,2.017-1.928c1.167,0,1.3,1.026,1.18,1.684a2.675,2.675,0,0,1-.076.3Zm1.988-.465c.08-.414.016-1.056-.715-1.056a1.348,1.348,0,0,0-1.183,1.056Z" transform="translate(-3755.718 -11428.406)"/>
    <path id="Trazado_895699" data-name="Trazado 895699" d="M1424.875,2736.621l-.181,1.026h.93l-.087.5h-.931l-.34,1.928c-.078.443,0,.694.365.694a1.547,1.547,0,0,0,.385-.044l-.056.488a1.739,1.739,0,0,1-.592.088.755.755,0,0,1-.654-.273,1.2,1.2,0,0,1-.087-.93l.344-1.95h-.554l.087-.5h.554l.151-.856Z" transform="translate(-3811.609 -11414.606)"/>
    <path id="Trazado_895700" data-name="Trazado 895700" d="M1459.847,2752.563c.074-.421.131-.783.167-1.115h.569l-.1.7h.03a1.341,1.341,0,0,1,1.128-.783.653.653,0,0,1,.181.022l-.108.613a.919.919,0,0,0-.218-.022,1.141,1.141,0,0,0-1.019.835,2.011,2.011,0,0,0-.083.3l-.336,1.906h-.643Z" transform="translate(-3845.297 -11428.406)"/>
    <path id="Trazado_895701" data-name="Trazado 895701" d="M1499.075,2731.036a.474.474,0,0,1-.484.4.316.316,0,0,1-.321-.4.491.491,0,0,1,.478-.406.317.317,0,0,1,.327.406m-1.531,4.58.63-3.575h.65l-.63,3.575Z" transform="translate(-3880.983 -11408.999)"/>
    <path id="Trazado_895702" data-name="Trazado 895702" d="M1527.265,2755a2.657,2.657,0,0,1-1.063.207,1.4,1.4,0,0,1-1.458-1.824,2.248,2.248,0,0,1,2.255-1.9,1.952,1.952,0,0,1,.869.185l-.236.5a1.339,1.339,0,0,0-.723-.17,1.53,1.53,0,0,0-1.5,1.352c-.146.827.3,1.337,1.005,1.337a2.063,2.063,0,0,0,.829-.177Z" transform="translate(-3906.404 -11428.514)"/>
    <path id="Trazado_895590" data-name="Trazado 895590" d="M2079.622,2333.023a10.769,10.769,0,0,0-7.9-3.907,14.612,14.612,0,0,1-19.913,0,10.77,10.77,0,0,0-7.9,3.907.355.355,0,0,0-.071.337l4.4,14.43a.355.355,0,0,0,.34.248h26.37a.356.356,0,0,0,.34-.25l4.4-14.428a.354.354,0,0,0-.071-.337" transform="translate(-4520.31 -11097.773)"/>
    <path id="Trazado_895591" data-name="Trazado 895591" d="M3101.57,2339.2a7.09,7.09,0,0,0-5.434-3.537,15.315,15.315,0,0,0-8.054,1.777,10.356,10.356,0,0,1-8.808,0,15.315,15.315,0,0,0-8.054-1.777,7.089,7.089,0,0,0-5.434,3.537.352.352,0,0,0-.036.289l4.408,14.381a.355.355,0,0,0,.339.247h26.361a.356.356,0,0,0,.34-.249l4.407-14.379a.353.353,0,0,0-.036-.289" transform="translate(-5476.701 -11103.854)"/>
    <path id="Trazado_895592" data-name="Trazado 895592" d="M4123.326,2333.019h0a42.573,42.573,0,0,0-35.471,0,.358.358,0,0,0-.193.429l4.389,14.381a.356.356,0,0,0,.339.248h26.4a.356.356,0,0,0,.34-.25l4.388-14.379a.358.358,0,0,0-.193-.429" transform="translate(-6433.093 -11097.811)"/>
    <path id="Trazado_895703" data-name="Trazado 895703" d="M2031.978,2737.787a1.979,1.979,0,0,0,1.095.325,1.1,1.1,0,0,0,1.191-.849c.082-.465-.137-.731-.763-.99-.762-.288-1.19-.709-1.066-1.411a1.769,1.769,0,0,1,1.849-1.352,2.01,2.01,0,0,1,1.057.244l-.27.525a1.736,1.736,0,0,0-.9-.237.992.992,0,0,0-1.07.746c-.082.465.181.694.821.96.785.325,1.142.731,1.012,1.463a1.849,1.849,0,0,1-2,1.433,2.261,2.261,0,0,1-1.214-.318Z" transform="translate(-4508.985 -11476.245)"/>
    <path id="Trazado_895704" data-name="Trazado 895704" d="M2094.653,2756.665l.152,1.817c.033.4.064.768.065,1.137h.022c.145-.362.331-.746.517-1.13l.905-1.824h.546l.239,1.787c.057.428.094.805.112,1.167h.022a12.445,12.445,0,0,1,.478-1.159l.826-1.795h.643l-1.783,3.575h-.591l-.246-1.706a10.868,10.868,0,0,1-.111-1.174h-.015a12.487,12.487,0,0,1-.533,1.182l-.876,1.7h-.591l-.448-3.575Z" transform="translate(-4567.261 -11497.916)"/>
    <path id="Trazado_895705" data-name="Trazado 895705" d="M2174.9,2757.385a.945.945,0,0,0,1.007,1.241,2.6,2.6,0,0,0,1.022-.185l.029.465a3.194,3.194,0,0,1-1.228.222,1.37,1.37,0,0,1-1.44-1.8,2.152,2.152,0,0,1,2.017-1.928c1.167,0,1.3,1.026,1.18,1.684a2.719,2.719,0,0,1-.075.3Zm1.987-.465c.08-.414.016-1.056-.715-1.056a1.349,1.349,0,0,0-1.183,1.056Z" transform="translate(-4642.383 -11496.73)"/>
    <path id="Trazado_895706" data-name="Trazado 895706" d="M2232.618,2757.385a.946.946,0,0,0,1.008,1.241,2.592,2.592,0,0,0,1.022-.185l.029.465a3.194,3.194,0,0,1-1.228.222,1.37,1.37,0,0,1-1.44-1.8,2.152,2.152,0,0,1,2.017-1.928c1.167,0,1.3,1.026,1.18,1.684a2.719,2.719,0,0,1-.075.3Zm1.988-.465c.08-.414.016-1.056-.715-1.056a1.349,1.349,0,0,0-1.183,1.056Z" transform="translate(-4696.396 -11496.73)"/>
    <path id="Trazado_895707" data-name="Trazado 895707" d="M2293.148,2740.653l-.181,1.026h.93l-.087.5h-.931l-.34,1.928c-.078.443,0,.694.365.694a1.54,1.54,0,0,0,.385-.044l-.057.488a1.722,1.722,0,0,1-.592.089.756.756,0,0,1-.654-.273,1.2,1.2,0,0,1-.087-.93l.344-1.95h-.554l.087-.5h.554l.151-.857Z" transform="translate(-4752.288 -11482.931)"/>
    <path id="Trazado_895708" data-name="Trazado 895708" d="M2328.612,2730.63h.65l-.393,2.23h.015a1.562,1.562,0,0,1,.546-.458,1.528,1.528,0,0,1,.7-.184c.48,0,1.2.3.978,1.529l-.375,2.127h-.65l.362-2.053c.1-.576-.027-1.063-.64-1.063a1.166,1.166,0,0,0-.986.65.883.883,0,0,0-.1.31l-.38,2.157h-.65Z" transform="translate(-4785.977 -11473.55)"/>
    <path id="Trazado_895709" data-name="Trazado 895709" d="M2392.4,2757.385a.946.946,0,0,0,1.008,1.241,2.592,2.592,0,0,0,1.022-.185l.029.465a3.194,3.194,0,0,1-1.228.222,1.37,1.37,0,0,1-1.44-1.8,2.151,2.151,0,0,1,2.017-1.928c1.167,0,1.3,1.026,1.18,1.684a2.655,2.655,0,0,1-.076.3Zm1.988-.465c.08-.414.016-1.056-.715-1.056a1.349,1.349,0,0,0-1.183,1.056Z" transform="translate(-4845.932 -11496.73)"/>
    <path id="Trazado_895710" data-name="Trazado 895710" d="M2449.409,2759.054l.028-.451h-.022a1.614,1.614,0,0,1-1.187.532.836.836,0,0,1-.912-1.026c.152-.864,1-1.337,2.384-1.33l.013-.074c.052-.3.065-.827-.667-.827a2.037,2.037,0,0,0-.978.266l-.072-.429a2.527,2.527,0,0,1,1.23-.317c1.093,0,1.228.746,1.1,1.462l-.236,1.337a5.044,5.044,0,0,0-.092.857Zm.226-1.824c-.707-.015-1.534.111-1.656.8a.475.475,0,0,0,.5.621,1.105,1.105,0,0,0,.969-.6.773.773,0,0,0,.073-.207Z" transform="translate(-4897.918 -11496.73)"/>
    <path id="Trazado_895711" data-name="Trazado 895711" d="M2505.3,2756.594c.074-.421.131-.783.167-1.115h.569l-.1.7h.029a1.342,1.342,0,0,1,1.128-.783.653.653,0,0,1,.181.022l-.108.613a.921.921,0,0,0-.218-.022,1.14,1.14,0,0,0-1.019.835,2.019,2.019,0,0,0-.083.3l-.336,1.906h-.643Z" transform="translate(-4951.792 -11496.73)"/>
    <path id="Trazado_895712" data-name="Trazado 895712" d="M2548.887,2740.653l-.181,1.026h.93l-.087.5h-.93l-.34,1.928c-.078.443,0,.694.365.694a1.536,1.536,0,0,0,.385-.044l-.056.488a1.725,1.725,0,0,1-.592.089.756.756,0,0,1-.653-.273,1.2,1.2,0,0,1-.087-.93l.344-1.95h-.554l.087-.5h.554l.151-.857Z" transform="translate(-4991.629 -11482.931)"/>
    <path id="Trazado_895713" data-name="Trazado 895713" d="M3164.924,2777.3l-.084.478h-1.824l.084-.478Z" transform="translate(-5567.746 -11517.231)"/>
    <path id="Trazado_895714" data-name="Trazado 895714" d="M2922.279,2737.754a1.985,1.985,0,0,0,1.1.323,1.1,1.1,0,0,0,1.19-.846c.082-.463-.138-.728-.764-.985-.762-.287-1.19-.706-1.067-1.4a1.766,1.766,0,0,1,1.848-1.345,2.019,2.019,0,0,1,1.058.242l-.269.522a1.749,1.749,0,0,0-.9-.235.99.99,0,0,0-1.069.743c-.082.463.181.691.821.956.785.324,1.143.728,1.014,1.456a1.845,1.845,0,0,1-1.995,1.426,2.274,2.274,0,0,1-1.215-.316Z" transform="translate(-5342.204 -11476.233)"/>
    <path id="Trazado_895715" data-name="Trazado 895715" d="M2983.169,2757.264a.943.943,0,0,0,1.008,1.235,2.6,2.6,0,0,0,1.022-.184l.029.463a3.207,3.207,0,0,1-1.228.22,1.367,1.367,0,0,1-1.442-1.794,2.145,2.145,0,0,1,2.015-1.919c1.167,0,1.3,1.022,1.182,1.677a2.675,2.675,0,0,1-.075.3Zm1.987-.463c.08-.412.016-1.052-.716-1.052a1.345,1.345,0,0,0-1.183,1.052Z" transform="translate(-5398.824 -11496.625)"/>
    <path id="Trazado_895716" data-name="Trazado 895716" d="M3040.581,2756.33c.065-.368.111-.669.14-.963h.569l-.072.574h.022a1.518,1.518,0,0,1,1.238-.655.851.851,0,0,1,.886.713h.015a1.9,1.9,0,0,1,.48-.463,1.414,1.414,0,0,1,.834-.25c.473,0,1.12.309.9,1.544l-.37,2.1h-.635l.355-2.014c.12-.684-.058-1.1-.583-1.1a1.053,1.053,0,0,0-.872.588,1.2,1.2,0,0,0-.109.324l-.388,2.2h-.635l.376-2.132c.1-.566-.079-.978-.573-.978a1.114,1.114,0,0,0-.919.647,1.016,1.016,0,0,0-.107.316l-.379,2.147h-.635Z" transform="translate(-5452.733 -11496.625)"/>
    <path id="Trazado_895717" data-name="Trazado 895717" d="M3137.728,2735.048a.473.473,0,0,1-.483.4.315.315,0,0,1-.321-.4.491.491,0,0,1,.478-.4.316.316,0,0,1,.327.4m-1.527,4.559.627-3.559h.65l-.627,3.559Z" transform="translate(-5542.65 -11477.307)"/>
    <path id="Trazado_895718" data-name="Trazado 895718" d="M3195.32,2758.264a1.472,1.472,0,0,0,.811.257c.473,0,.736-.235.788-.529s-.1-.478-.549-.654c-.6-.228-.843-.581-.768-1.007a1.359,1.359,0,0,1,1.417-1.044,1.573,1.573,0,0,1,.84.221l-.245.47a1.21,1.21,0,0,0-.7-.206.642.642,0,0,0-.684.485c-.052.294.139.426.573.6.579.236.842.544.749,1.074a1.4,1.4,0,0,1-1.525,1.066,1.808,1.808,0,0,1-.962-.242Z" transform="translate(-5597.746 -11496.625)"/>
    <path id="Trazado_895719" data-name="Trazado 895719" d="M3248.256,2756.547l.154,1.809c.033.4.064.765.066,1.133h.022c.145-.36.33-.743.516-1.125l.9-1.816h.547l.24,1.78c.058.427.095.8.113,1.162h.022a12.339,12.339,0,0,1,.477-1.155l.825-1.787h.642l-1.78,3.559h-.591l-.247-1.7a10.844,10.844,0,0,1-.111-1.169h-.015a12.44,12.44,0,0,1-.532,1.176l-.875,1.691h-.591l-.451-3.559Z" transform="translate(-5646.899 -11497.806)"/>
    <path id="Trazado_895720" data-name="Trazado 895720" d="M3328.535,2757.264a.943.943,0,0,0,1.008,1.235,2.6,2.6,0,0,0,1.022-.184l.029.463a3.207,3.207,0,0,1-1.228.22,1.366,1.366,0,0,1-1.441-1.794,2.145,2.145,0,0,1,2.015-1.919c1.167,0,1.3,1.022,1.182,1.677a2.622,2.622,0,0,1-.075.3Zm1.987-.463c.08-.412.016-1.052-.716-1.052a1.345,1.345,0,0,0-1.183,1.052Z" transform="translate(-5722.047 -11496.625)"/>
    <path id="Trazado_895721" data-name="Trazado 895721" d="M3386.249,2757.264a.943.943,0,0,0,1.008,1.235,2.6,2.6,0,0,0,1.022-.184l.029.463a3.206,3.206,0,0,1-1.228.22,1.367,1.367,0,0,1-1.442-1.794,2.146,2.146,0,0,1,2.015-1.919c1.167,0,1.3,1.022,1.182,1.677a2.622,2.622,0,0,1-.075.3Zm1.987-.463c.08-.412.015-1.052-.716-1.052a1.345,1.345,0,0,0-1.183,1.052Z" transform="translate(-5776.06 -11496.625)"/>
    <path id="Trazado_895722" data-name="Trazado 895722" d="M3446.755,2740.608l-.18,1.022h.931l-.087.492h-.93l-.339,1.919c-.078.441,0,.691.366.691a1.554,1.554,0,0,0,.385-.044l-.056.485a1.738,1.738,0,0,1-.592.088.758.758,0,0,1-.654-.272,1.194,1.194,0,0,1-.088-.927l.343-1.941h-.554l.087-.492h.554l.15-.853Z" transform="translate(-5831.93 -11482.889)"/>
    <path id="Trazado_895723" data-name="Trazado 895723" d="M3482.255,2730.63h.65l-.392,2.22h.015a1.563,1.563,0,0,1,.546-.456,1.528,1.528,0,0,1,.7-.184c.48,0,1.2.294.98,1.522l-.374,2.118h-.65l.36-2.044c.1-.573-.027-1.059-.641-1.059a1.166,1.166,0,0,0-.986.647.879.879,0,0,0-.1.309l-.379,2.147h-.65Z" transform="translate(-5865.655 -11473.55)"/>
    <path id="Trazado_895724" data-name="Trazado 895724" d="M3546.029,2757.264a.943.943,0,0,0,1.008,1.235,2.6,2.6,0,0,0,1.022-.184l.029.463a3.208,3.208,0,0,1-1.228.22,1.367,1.367,0,0,1-1.442-1.794,2.146,2.146,0,0,1,2.015-1.919c1.167,0,1.3,1.022,1.182,1.677a2.622,2.622,0,0,1-.075.3Zm1.987-.463c.08-.412.015-1.052-.716-1.052a1.345,1.345,0,0,0-1.183,1.052Z" transform="translate(-5925.596 -11496.625)"/>
    <path id="Trazado_895725" data-name="Trazado 895725" d="M3603.047,2758.927l.027-.448h-.022a1.616,1.616,0,0,1-1.187.53.834.834,0,0,1-.913-1.022c.151-.86,1-1.331,2.382-1.323l.013-.073c.052-.294.064-.823-.667-.823a2.043,2.043,0,0,0-.977.265l-.073-.426a2.533,2.533,0,0,1,1.23-.316c1.093,0,1.228.743,1.1,1.456l-.235,1.331a5.01,5.01,0,0,0-.091.853Zm.224-1.816c-.707-.014-1.533.11-1.655.8a.473.473,0,0,0,.5.618,1.1,1.1,0,0,0,.969-.6.761.761,0,0,0,.074-.206Z" transform="translate(-5977.589 -11496.627)"/>
    <path id="Trazado_895726" data-name="Trazado 895726" d="M3658.941,2756.477c.074-.419.13-.779.166-1.11h.569l-.1.7h.029a1.341,1.341,0,0,1,1.127-.78.653.653,0,0,1,.181.022l-.107.61a.946.946,0,0,0-.218-.022,1.139,1.139,0,0,0-1.018.831,2.064,2.064,0,0,0-.083.3l-.334,1.9h-.643Z" transform="translate(-6031.47 -11496.625)"/>
    <path id="Trazado_895727" data-name="Trazado 895727" d="M3702.5,2740.608l-.18,1.022h.931l-.087.492h-.931l-.338,1.919c-.078.441,0,.691.366.691a1.55,1.55,0,0,0,.384-.044l-.056.485a1.735,1.735,0,0,1-.591.088.758.758,0,0,1-.654-.272,1.192,1.192,0,0,1-.087-.927l.342-1.941h-.554l.087-.492h.554l.15-.853Z" transform="translate(-6071.273 -11482.889)"/>
    <path id="Trazado_895728" data-name="Trazado 895728" d="M3999.713,2737.754a1.987,1.987,0,0,0,1.1.323,1.1,1.1,0,0,0,1.19-.846c.082-.463-.138-.728-.764-.985-.762-.287-1.19-.706-1.067-1.4a1.766,1.766,0,0,1,1.848-1.345,2.017,2.017,0,0,1,1.058.242l-.269.522a1.747,1.747,0,0,0-.9-.235.99.99,0,0,0-1.069.743c-.082.463.181.691.821.956.785.324,1.142.728,1.014,1.456a1.845,1.845,0,0,1-1.995,1.426,2.273,2.273,0,0,1-1.214-.316Z" transform="translate(-6350.557 -11476.233)"/>
    <path id="Trazado_895729" data-name="Trazado 895729" d="M4062.361,2740.608l-.18,1.022h.931l-.087.492h-.931l-.338,1.919c-.078.441,0,.691.366.691a1.55,1.55,0,0,0,.384-.044l-.056.485a1.736,1.736,0,0,1-.592.088.758.758,0,0,1-.653-.272,1.194,1.194,0,0,1-.088-.927l.342-1.941h-.554l.087-.492h.554l.15-.853Z" transform="translate(-6408.065 -11482.889)"/>
    <path id="Trazado_895730" data-name="Trazado 895730" d="M4097.371,2756.477c.074-.419.13-.779.166-1.11h.569l-.1.7h.03a1.34,1.34,0,0,1,1.127-.78.662.662,0,0,1,.181.022l-.108.61a.946.946,0,0,0-.218-.022,1.139,1.139,0,0,0-1.018.831,1.95,1.95,0,0,0-.083.3l-.334,1.9h-.643Z" transform="translate(-6441.789 -11496.625)"/>
    <path id="Trazado_895731" data-name="Trazado 895731" d="M4134.1,2758.927l.027-.448h-.022a1.615,1.615,0,0,1-1.186.53.834.834,0,0,1-.913-1.022c.152-.86,1-1.331,2.383-1.323l.013-.073c.052-.294.064-.823-.667-.823a2.045,2.045,0,0,0-.977.265l-.073-.426a2.535,2.535,0,0,1,1.23-.316c1.093,0,1.228.743,1.1,1.456l-.234,1.331a5.015,5.015,0,0,0-.091.853Zm.224-1.816c-.706-.014-1.533.11-1.655.8a.473.473,0,0,0,.5.618,1.106,1.106,0,0,0,.97-.6.8.8,0,0,0,.074-.206Z" transform="translate(-6474.59 -11496.627)"/>
    <path id="Trazado_895732" data-name="Trazado 895732" d="M4191.087,2735.048a.473.473,0,0,1-.483.4.316.316,0,0,1-.322-.4.492.492,0,0,1,.478-.4.316.316,0,0,1,.327.4m-1.527,4.559.627-3.559h.649l-.627,3.559Z" transform="translate(-6528.472 -11477.307)"/>
    <path id="Trazado_895733" data-name="Trazado 895733" d="M4217.78,2755.367c-.061.258-.125.544-.2.978l-.364,2.066a2.44,2.44,0,0,1-.8,1.625,2.2,2.2,0,0,1-1.375.427,2.043,2.043,0,0,1-1.137-.294l.25-.493a1.766,1.766,0,0,0,1,.28,1.318,1.318,0,0,0,1.372-1.243l.069-.4h-.015a1.556,1.556,0,0,1-1.242.6c-.886,0-1.389-.75-1.216-1.735a2.125,2.125,0,0,1,1.943-1.89.967.967,0,0,1,1.007.618h.014l.125-.537Zm-.92,1.4a.892.892,0,0,0,.015-.294.753.753,0,0,0-.788-.684,1.438,1.438,0,0,0-1.3,1.345c-.124.7.129,1.28.831,1.28a1.183,1.183,0,0,0,1.018-.662,1.254,1.254,0,0,0,.112-.346Z" transform="translate(-6551.255 -11496.625)"/>
    <path id="Trazado_895734" data-name="Trazado 895734" d="M4281.833,2730.63h.649l-.392,2.22h.016a1.555,1.555,0,0,1,.545-.456,1.533,1.533,0,0,1,.7-.184c.48,0,1.2.294.98,1.522l-.374,2.118h-.649l.36-2.044c.1-.573-.028-1.059-.641-1.059a1.164,1.164,0,0,0-.985.647.86.86,0,0,0-.1.309l-.379,2.147h-.65Z" transform="translate(-6613.967 -11473.55)"/>
    <path id="Trazado_895735" data-name="Trazado 895735" d="M4347.938,2740.608l-.181,1.022h.931l-.087.492h-.931l-.338,1.919c-.078.441,0,.691.365.691a1.555,1.555,0,0,0,.385-.044l-.056.485a1.741,1.741,0,0,1-.592.088.758.758,0,0,1-.654-.272,1.194,1.194,0,0,1-.088-.927l.343-1.941h-.554l.087-.492h.554l.15-.853Z" transform="translate(-6675.333 -11482.889)"/>
    <path id="Trazado_895736" data-name="Trazado 895736" d="M4407,2758.927l.027-.448h-.021a1.619,1.619,0,0,1-1.187.53.834.834,0,0,1-.913-1.022c.151-.86,1-1.331,2.382-1.323l.014-.073c.052-.294.063-.823-.667-.823a2.042,2.042,0,0,0-.978.265l-.073-.426a2.538,2.538,0,0,1,1.23-.316c1.093,0,1.229.743,1.1,1.456l-.234,1.331a5.07,5.07,0,0,0-.092.853Zm.225-1.816c-.707-.014-1.534.11-1.655.8a.473.473,0,0,0,.5.618,1.1,1.1,0,0,0,.969-.6.76.76,0,0,0,.073-.206Z" transform="translate(-6729.997 -11496.627)"/>
    <path id="Trazado_895737" data-name="Trazado 895737" d="M4465.213,2758.9a2.673,2.673,0,0,1-1.063.206,1.4,1.4,0,0,1-1.459-1.816,2.243,2.243,0,0,1,2.253-1.89,1.956,1.956,0,0,1,.869.184l-.236.5a1.345,1.345,0,0,0-.724-.169,1.526,1.526,0,0,0-1.5,1.345,1.007,1.007,0,0,0,1.006,1.331,2.073,2.073,0,0,0,.829-.176Z" transform="translate(-6784.055 -11496.732)"/>
    <path id="Trazado_895738" data-name="Trazado 895738" d="M4514.506,2756.477c.074-.419.13-.779.167-1.11h.568l-.1.7h.03a1.34,1.34,0,0,1,1.127-.78.658.658,0,0,1,.181.022l-.108.61a.946.946,0,0,0-.218-.022,1.138,1.138,0,0,0-1.018.831,1.949,1.949,0,0,0-.083.3l-.334,1.9h-.643Z" transform="translate(-6832.179 -11496.625)"/>
    <path id="Trazado_895739" data-name="Trazado 895739" d="M4554.339,2757.117a2.157,2.157,0,0,1-2.113,1.889,1.394,1.394,0,0,1-1.391-1.831,2.156,2.156,0,0,1,2.105-1.89,1.391,1.391,0,0,1,1.4,1.831m-2.843.037c-.137.78.209,1.367.844,1.367a1.52,1.52,0,0,0,1.33-1.382c.106-.6-.062-1.367-.83-1.367a1.5,1.5,0,0,0-1.344,1.382" transform="translate(-6866.548 -11496.625)"/>
    <path id="Trazado_895740" data-name="Trazado 895740" d="M4610.634,2758.264a1.473,1.473,0,0,0,.812.257c.473,0,.735-.235.788-.529s-.1-.478-.55-.654c-.6-.228-.843-.581-.768-1.007a1.36,1.36,0,0,1,1.418-1.044,1.575,1.575,0,0,1,.84.221l-.246.47a1.209,1.209,0,0,0-.695-.206.642.642,0,0,0-.684.485c-.052.294.139.426.573.6.579.236.842.544.749,1.074a1.4,1.4,0,0,1-1.525,1.066,1.809,1.809,0,0,1-.962-.242Z" transform="translate(-6922.314 -11496.625)"/>
    <path id="Trazado_895741" data-name="Trazado 895741" d="M4656.253,2758.264a1.471,1.471,0,0,0,.811.257c.473,0,.736-.235.788-.529s-.1-.478-.549-.654c-.6-.228-.843-.581-.768-1.007a1.359,1.359,0,0,1,1.417-1.044,1.572,1.572,0,0,1,.84.221l-.245.47a1.211,1.211,0,0,0-.7-.206.642.642,0,0,0-.684.485c-.052.294.139.426.573.6.579.236.842.544.749,1.074a1.4,1.4,0,0,1-1.524,1.066,1.812,1.812,0,0,1-.962-.242Z" transform="translate(-6965.008 -11496.625)"/>
    <path id="Trazado_895593" data-name="Trazado 895593" d="M5059.531,2292.452a53.791,53.791,0,0,0-9.54,1.058,36.8,36.8,0,0,0-8,2.518,6.9,6.9,0,0,1-13.134,0,36.775,36.775,0,0,0-8-2.518,53.783,53.783,0,0,0-9.54-1.058.144.144,0,0,0-.145.144v3.132a.144.144,0,0,0,.111.14c.652.159,1.313.346,1.966.557a7.952,7.952,0,0,1,5.15,5.229l3.64,11.831a.355.355,0,0,0,.339.247h26.094a.356.356,0,0,0,.339-.249l3.64-11.83a7.951,7.951,0,0,1,5.15-5.229c.652-.21,1.313-.4,1.966-.557a.144.144,0,0,0,.11-.14V2292.6a.144.144,0,0,0-.144-.144" transform="translate(-7558.728 -11061.117)"/>
    <path id="Trazado_895742" data-name="Trazado 895742" d="M5055.345,2737.3a2.884,2.884,0,0,1-2.774,2.622c-1.315,0-2.059-1.019-1.793-2.526a2.931,2.931,0,0,1,2.773-2.615c1.359,0,2.054,1.041,1.794,2.519m-3.877.081c-.187,1.064.22,2.017,1.232,2.017a2.222,2.222,0,0,0,1.96-2.068c.174-.99-.161-2.024-1.232-2.024a2.219,2.219,0,0,0-1.96,2.075" transform="translate(-7595.745 -11475.083)"/>
    <path id="Trazado_895743" data-name="Trazado 895743" d="M5133.491,2735.955l.543-3.08h-1.5l-.543,3.08h-.642l.543-3.08h-.5l.087-.495h.5l.021-.118a2.018,2.018,0,0,1,.613-1.219,1.438,1.438,0,0,1,.96-.333,1.008,1.008,0,0,1,.487.126l-.218.48a.84.84,0,0,0-.368-.089c-.51,0-.727.436-.826,1l-.028.155h1.5l.03-.17a2.027,2.027,0,0,1,.641-1.248,1.457,1.457,0,0,1,.922-.332,1.338,1.338,0,0,1,.536.1l-.17.5a.908.908,0,0,0-.407-.082c-.546,0-.78.488-.876,1.034l-.034.192h.864l-.087.495h-.857l-.543,3.08Z" transform="translate(-7671.2 -11471.2)"/>
    <path id="Trazado_895744" data-name="Trazado 895744" d="M5199.263,2778.784l-.084.48h-1.825l.085-.48Z" transform="translate(-7732.973 -11516.267)"/>
    <path id="Trazado_895745" data-name="Trazado 895745" d="M5229.638,2759.656a1.47,1.47,0,0,0,.812.259c.473,0,.736-.236.788-.532s-.1-.48-.548-.657c-.6-.229-.843-.584-.768-1.012a1.362,1.362,0,0,1,1.418-1.049,1.567,1.567,0,0,1,.84.222l-.246.473a1.2,1.2,0,0,0-.695-.207.642.642,0,0,0-.684.488c-.052.3.139.428.573.606.579.236.841.546.748,1.078a1.4,1.4,0,0,1-1.526,1.071,1.8,1.8,0,0,1-.961-.244Z" transform="translate(-7762.954 -11495.566)"/>
    <path id="Trazado_895746" data-name="Trazado 895746" d="M5279.382,2731.9h.65l-.394,2.231h.015a1.559,1.559,0,0,1,.546-.458,1.527,1.527,0,0,1,.7-.185c.48,0,1.2.3.979,1.529l-.375,2.127h-.649l.361-2.053c.1-.576-.026-1.064-.64-1.064a1.167,1.167,0,0,0-.986.65.908.908,0,0,0-.1.31l-.38,2.157h-.65Z" transform="translate(-7808.876 -11472.388)"/>
    <path id="Trazado_895747" data-name="Trazado 895747" d="M5346.156,2758.505a2.162,2.162,0,0,1-2.115,1.9,1.4,1.4,0,0,1-1.389-1.839,2.161,2.161,0,0,1,2.107-1.9,1.394,1.394,0,0,1,1.4,1.839m-2.843.037c-.138.783.208,1.374.844,1.374a1.526,1.526,0,0,0,1.331-1.388c.106-.606-.061-1.374-.829-1.374a1.5,1.5,0,0,0-1.346,1.389" transform="translate(-7868.92 -11495.567)"/>
    <path id="Trazado_895748" data-name="Trazado 895748" d="M5411.625,2760.532c-.065.369-.115.694-.143.975h-.576l.066-.584h-.015a1.655,1.655,0,0,1-1.3.665c-.561,0-1.179-.31-.957-1.566l.368-2.09h.65l-.349,1.979c-.12.679.006,1.138.6,1.138a1.171,1.171,0,0,0,.961-.591,1.1,1.1,0,0,0,.118-.332l.387-2.194h.65Z" transform="translate(-7930.726 -11496.752)"/>
    <path id="Trazado_895749" data-name="Trazado 895749" d="M5470.036,2731.9h.65l-.924,5.244h-.65Z" transform="translate(-7987.306 -11472.387)"/>
    <path id="Trazado_895750" data-name="Trazado 895750" d="M5500.438,2731.9l-.762,4.321c-.056.317-.112.679-.134.923h-.583l.08-.62h-.015a1.625,1.625,0,0,1-1.343.7c-.864,0-1.4-.731-1.209-1.817a2.122,2.122,0,0,1,1.942-1.92.976.976,0,0,1,.981.547h.015l.377-2.135Zm-1.2,3.125a1.173,1.173,0,0,0,.019-.273.771.771,0,0,0-.806-.753c-.672,0-1.175.591-1.314,1.381-.128.724.121,1.322.823,1.322a1.22,1.22,0,0,0,1.09-.776,1.3,1.3,0,0,0,.079-.281Z" transform="translate(-8012.877 -11472.387)"/>
    <path id="Trazado_895751" data-name="Trazado 895751" d="M5562.046,2758.652a.945.945,0,0,0,1.007,1.241,2.591,2.591,0,0,0,1.022-.185l.028.465a3.2,3.2,0,0,1-1.228.221,1.37,1.37,0,0,1-1.44-1.8,2.152,2.152,0,0,1,2.017-1.928c1.167,0,1.3,1.027,1.181,1.684a2.542,2.542,0,0,1-.076.3Zm1.987-.465c.081-.413.017-1.056-.715-1.056a1.35,1.35,0,0,0-1.184,1.056Z" transform="translate(-8073.675 -11495.566)"/>
    <path id="Trazado_895752" data-name="Trazado 895752" d="M5619.417,2757.863c.074-.421.131-.783.167-1.115h.568l-.1.7h.03a1.341,1.341,0,0,1,1.128-.783.667.667,0,0,1,.181.022l-.108.613a.917.917,0,0,0-.218-.022,1.141,1.141,0,0,0-1.019.835,2.034,2.034,0,0,0-.083.3l-.336,1.906h-.643Z" transform="translate(-8127.569 -11495.567)"/>
    <path id="Trazado_895753" data-name="Trazado 895753" d="M5653.454,2759.656a1.467,1.467,0,0,0,.811.259c.473,0,.736-.236.788-.532s-.1-.48-.549-.657c-.6-.229-.843-.584-.767-1.012a1.362,1.362,0,0,1,1.418-1.049,1.566,1.566,0,0,1,.84.222l-.246.473a1.205,1.205,0,0,0-.7-.207.643.643,0,0,0-.684.488c-.052.3.139.428.573.606.579.236.841.546.748,1.078a1.4,1.4,0,0,1-1.526,1.071,1.8,1.8,0,0,1-.961-.244Z" transform="translate(-8159.596 -11495.566)"/>
  </g>
</svg>
