<svg xmlns="http://www.w3.org/2000/svg" xmlns:xlink="http://www.w3.org/1999/xlink" width="74" height="74" viewBox="0 0 74 74">
  <defs>
    <clipPath id="clip-path">
      <path id="path1860" d="M0-682.665H46v46H0Z" transform="translate(0 682.665)"/>
    </clipPath>
  </defs>
  <g id="Grupo_1114602" data-name="Grupo 1114602" transform="translate(-200.711 -1827)">
    <circle id="Elipse_11615" data-name="Elipse 11615" cx="37" cy="37" r="37" transform="translate(200.711 1827)" fill="#169f70"/>
    <g id="g1854" transform="translate(214.711 2523.665)">
      <g id="g1856" transform="translate(0 -682.665)">
        <g id="g1858" transform="translate(0 0)" clip-path="url(#clip-path)">
          <g id="g1864" transform="translate(7.598 0.674)">
            <path id="path1866" d="M-285.781,0h-18.246a2.389,2.389,0,0,0-2.4,2.375v39.9a2.389,2.389,0,0,0,2.4,2.375h27.744a2.389,2.389,0,0,0,2.4-2.375V11.768Z" transform="translate(306.429)" fill="#f7fafa"/>
          </g>
          <g id="g1868" transform="translate(28.246 0.674)">
            <path id="path1870" d="M0,0H0L8.306,11.768V42.277a2.389,2.389,0,0,1-2.4,2.375H9.5a2.389,2.389,0,0,0,2.4-2.375V11.768Z" fill="#f2f5f5"/>
          </g>
          <g id="g1872" transform="translate(28.246 0.674)">
            <path id="path1874" d="M0,0V8.731a3.054,3.054,0,0,0,3.071,3.037H11.9Z" fill="#e8ebeb"/>
          </g>
          <g id="g1876" transform="translate(5.854 25.631)">
            <path id="path1878" d="M-370.53-200.921H-395.5a1.8,1.8,0,0,1-1.8-1.8v-10.923a1.8,1.8,0,0,1,1.8-1.8h24.974a1.8,1.8,0,0,1,1.8,1.8v10.923a1.8,1.8,0,0,1-1.8,1.8" transform="translate(397.302 215.438)" fill="#9e48ea"/>
          </g>
          <g id="g1880" transform="translate(29.031 25.631)">
            <path id="path1882" d="M-49.739,0h-3.594a1.8,1.8,0,0,1,1.8,1.8V12.72a1.8,1.8,0,0,1-1.8,1.8h3.594a1.8,1.8,0,0,0,1.8-1.8V1.8a1.8,1.8,0,0,0-1.8-1.8" transform="translate(53.333 0)" fill="#7000d2"/>
          </g>
          <g id="g1884" transform="translate(7.598 10.106)">
            <path id="path1886" d="M0,0V15.525" fill="none" stroke="#060606" stroke-linecap="round" stroke-linejoin="round" stroke-miterlimit="10" stroke-width="2"/>
          </g>
          <g id="g1888" transform="translate(7.598 0.674)">
            <path id="path1890" d="M0-546.346v2.8a2.389,2.389,0,0,0,2.4,2.375H30.146a2.389,2.389,0,0,0,2.4-2.375v-30.51l-11.9-11.768H2.4A2.389,2.389,0,0,0,0-583.445v3.509" transform="translate(0 585.82)" fill="none" stroke="#060606" stroke-linecap="round" stroke-linejoin="round" stroke-miterlimit="10" stroke-width="2"/>
          </g>
          <g id="g1892" transform="translate(28.246 0.674)">
            <path id="path1894" d="M0,0V8.731a3.054,3.054,0,0,0,3.071,3.037H11.9Z" fill="none" stroke="#060606" stroke-linecap="round" stroke-linejoin="round" stroke-miterlimit="10" stroke-width="2"/>
          </g>
          <g id="g1896" transform="translate(5.854 25.631)">
            <path id="path1898" d="M-282.081-200.921h-18.584a1.8,1.8,0,0,1-1.8-1.8v-10.923a1.8,1.8,0,0,1,1.8-1.8h24.974a1.8,1.8,0,0,1,1.8,1.8v10.923a1.8,1.8,0,0,1-1.8,1.8h-2.672" transform="translate(302.462 215.438)" fill="none" stroke="#060606" stroke-linecap="round" stroke-linejoin="round" stroke-miterlimit="10" stroke-width="2"/>
          </g>
          <g id="g1900" transform="translate(26.464 29.499)">
            <path id="path1902" d="M-38.039,0h-2.748V6.781" transform="translate(40.788)" fill="none" stroke="#fff" stroke-linecap="round" stroke-linejoin="round" stroke-miterlimit="10" stroke-width="2"/>
          </g>
          <g id="g1904" transform="translate(26.464 32.825)">
            <path id="path1906" d="M0,0H2.53" fill="none" stroke="#fff" stroke-linecap="round" stroke-linejoin="round" stroke-miterlimit="10" stroke-width="2"/>
          </g>
          <g id="g1908" transform="translate(18.42 29.582)">
            <path id="path1910" d="M0,0V6.515" fill="none" stroke="#060606" stroke-linecap="round" stroke-linejoin="round" stroke-miterlimit="10" stroke-width="2"/>
          </g>
          <g id="g1912" transform="translate(18.42 29.575)">
            <path id="path1914" d="M-63.037-45.876c0,1.827-1.014,3.272-2.622,3.3-.535.009-1.919.015-1.919.015s-.009-2.4-.009-3.322c0-.756,0-3.307,0-3.307h1.878C-63.95-49.191-63.037-47.7-63.037-45.876Z" transform="translate(67.592 49.191)" fill="none" stroke="#fff" stroke-linecap="round" stroke-linejoin="round" stroke-miterlimit="10" stroke-width="2"/>
          </g>
          <g id="g1916" transform="translate(11.063 29.474)">
            <path id="path1918" d="M0,0V6.831" fill="none" stroke="#fff" stroke-linecap="round" stroke-linejoin="round" stroke-miterlimit="10" stroke-width="2"/>
          </g>
          <g id="g1920" transform="translate(11.063 29.474)">
            <path id="path1922" d="M-53.53-26.681A1.96,1.96,0,0,1-55.5-24.754c-.528,0-1.889.008-1.889.008s-.009-1.4-.009-1.936c0-.441,0-1.928,0-1.928h1.9A1.96,1.96,0,0,1-53.53-26.681Z" transform="translate(57.397 28.609)" fill="none" stroke="#fff" stroke-linecap="round" stroke-linejoin="round" stroke-miterlimit="10" stroke-width="2"/>
          </g>
        </g>
      </g>
    </g>
  </g>
</svg>
